<ttFont>
    <TTGlyph name=".notdef" xMin="68" yMin="0" xMax="612" yMax="1365">
      <contour>
        <pt x="68" y="0" on="1"/>
        <pt x="68" y="1365" on="1"/>
        <pt x="612" y="1365" on="1"/>
        <pt x="612" y="0" on="1"/>
      </contour>
      <contour>
        <pt x="136" y="68" on="1"/>
        <pt x="544" y="68" on="1"/>
        <pt x="544" y="1297" on="1"/>
        <pt x="136" y="1297" on="1"/>
      </contour>
    </TTGlyph>
    <TTGlyph name="A" xMin="72" yMin="0" xMax="1247" yMax="1456">
      <contour>
        <pt x="917" y="1214" on="1"/>
        <pt x="587" y="621" on="1"/>
        <pt x="1002" y="621" on="1"/>
      </contour>
      <contour>
        <pt x="1010" y="485" on="1"/>
        <pt x="513" y="485" on="1"/>
        <pt x="248" y="0" on="1"/>
        <pt x="72" y="0" on="1"/>
        <pt x="905" y="1456" on="1"/>
        <pt x="905" y="1456" on="0"/>
        <pt x="1032" y="1456" on="1"/>
        <pt x="1247" y="0" on="1"/>
        <pt x="1067" y="0" on="1"/>
      </contour>
    </TTGlyph>
    <TTGlyph name="AE" xMin="83" yMin="0" xMax="1692" yMax="1456">
      <contour>
        <pt x="922" y="645" on="1"/>
        <pt x="658" y="645" on="1"/>
        <pt x="262" y="0" on="1"/>
        <pt x="83" y="0" on="1"/>
        <pt x="983" y="1456" on="1"/>
        <pt x="1692" y="1456" on="1"/>
        <pt x="1661" y="1307" on="1"/>
        <pt x="1219" y="1307" on="1"/>
        <pt x="1108" y="788" on="1"/>
        <pt x="1550" y="788" on="1"/>
        <pt x="1519" y="641" on="1"/>
        <pt x="1077" y="641" on="1"/>
        <pt x="972" y="147" on="1"/>
        <pt x="1414" y="147" on="1"/>
        <pt x="1383" y="0" on="1"/>
        <pt x="785" y="0" on="1"/>
      </contour>
      <contour>
        <pt x="952" y="788" on="1"/>
        <pt x="1062" y="1311" on="1"/>
        <pt x="748" y="788" on="1"/>
      </contour>
    </TTGlyph>
    <TTGlyph name="Aacute" xMin="64" yMin="0" xMax="1382" yMax="1944">
      <contour>
        <pt x="935" y="1676" on="1"/>
        <pt x="1269" y="1926" on="1"/>
        <pt x="1295" y="1944" on="0"/>
        <pt x="1314" y="1944" on="1"/>
        <pt x="1358" y="1944" on="0"/>
        <pt x="1373" y="1914" on="1"/>
        <pt x="1382" y="1900" on="0"/>
        <pt x="1382" y="1878" on="0"/>
        <pt x="1380" y="1865" on="0"/>
        <pt x="1378" y="1862" on="1"/>
        <pt x="1376" y="1856" on="0"/>
        <pt x="1362" y="1827" on="0"/>
        <pt x="1338" y="1810" on="1"/>
        <pt x="986" y="1591" on="1"/>
        <pt x="972" y="1582" on="0"/>
        <pt x="964" y="1582" on="1"/>
        <pt x="930" y="1582" on="0"/>
        <pt x="919" y="1602" on="1"/>
        <pt x="903" y="1630" on="0"/>
        <pt x="922" y="1664" on="0"/>
      </contour>
      <contour>
        <pt x="909" y="1214" on="1"/>
        <pt x="579" y="621" on="1"/>
        <pt x="994" y="621" on="1"/>
      </contour>
      <contour>
        <pt x="1002" y="485" on="1"/>
        <pt x="505" y="485" on="1"/>
        <pt x="240" y="0" on="1"/>
        <pt x="64" y="0" on="1"/>
        <pt x="897" y="1456" on="1"/>
        <pt x="1024" y="1456" on="1"/>
        <pt x="1239" y="0" on="1"/>
        <pt x="1059" y="0" on="1"/>
      </contour>
    </TTGlyph>
    <TTGlyph name="Abreve" xMin="64" yMin="0" xMax="1349" yMax="1838">
      <contour>
        <pt x="909" y="1214" on="1"/>
        <pt x="579" y="621" on="1"/>
        <pt x="994" y="621" on="1"/>
      </contour>
      <contour>
        <pt x="1002" y="485" on="1"/>
        <pt x="505" y="485" on="1"/>
        <pt x="240" y="0" on="1"/>
        <pt x="64" y="0" on="1"/>
        <pt x="897" y="1456" on="1"/>
        <pt x="897" y="1456" on="0"/>
        <pt x="1024" y="1456" on="1"/>
        <pt x="1239" y="0" on="1"/>
        <pt x="1059" y="0" on="1"/>
      </contour>
      <contour>
        <pt x="737" y="1791" on="1"/>
        <pt x="742" y="1832" on="1"/>
        <pt x="742" y="1836" on="0"/>
        <pt x="743" y="1838" on="1"/>
        <pt x="824" y="1838" on="1"/>
        <pt x="849" y="1726" on="0"/>
        <pt x="916" y="1674" on="1"/>
        <pt x="950" y="1649" on="0"/>
        <pt x="1066" y="1651" on="0"/>
        <pt x="1106" y="1674" on="1"/>
        <pt x="1175" y="1717" on="0"/>
        <pt x="1269" y="1838" on="1"/>
        <pt x="1349" y="1838" on="1"/>
        <pt x="1348" y="1836" on="0"/>
        <pt x="1348" y="1829" on="0"/>
        <pt x="1347" y="1828" on="1"/>
        <pt x="1331" y="1758" on="0"/>
        <pt x="1243" y="1649" on="1"/>
        <pt x="1196" y="1592" on="0"/>
        <pt x="1044" y="1514" on="0"/>
        <pt x="911" y="1514" on="0"/>
        <pt x="792" y="1592" on="0"/>
        <pt x="737" y="1733" on="0"/>
      </contour>
    </TTGlyph>
    <TTGlyph name="Abrevecyrillic" xMin="72" yMin="0" xMax="1351" yMax="1838">
      <contour>
        <pt x="917" y="1214" on="1"/>
        <pt x="587" y="621" on="1"/>
        <pt x="1002" y="621" on="1"/>
      </contour>
      <contour>
        <pt x="1010" y="485" on="1"/>
        <pt x="513" y="485" on="1"/>
        <pt x="248" y="0" on="1"/>
        <pt x="72" y="0" on="1"/>
        <pt x="905" y="1456" on="1"/>
        <pt x="1032" y="1456" on="1"/>
        <pt x="1247" y="0" on="1"/>
        <pt x="1067" y="0" on="1"/>
      </contour>
      <contour>
        <pt x="739" y="1791" on="1"/>
        <pt x="744" y="1832" on="1"/>
        <pt x="744" y="1836" on="0"/>
        <pt x="745" y="1838" on="1"/>
        <pt x="826" y="1838" on="1"/>
        <pt x="851" y="1726" on="0"/>
        <pt x="918" y="1674" on="1"/>
        <pt x="952" y="1649" on="0"/>
        <pt x="1068" y="1651" on="0"/>
        <pt x="1108" y="1674" on="1"/>
        <pt x="1177" y="1717" on="0"/>
        <pt x="1271" y="1838" on="1"/>
        <pt x="1351" y="1838" on="1"/>
        <pt x="1350" y="1836" on="0"/>
        <pt x="1350" y="1829" on="0"/>
        <pt x="1349" y="1828" on="1"/>
        <pt x="1333" y="1758" on="0"/>
        <pt x="1245" y="1649" on="1"/>
        <pt x="1198" y="1592" on="0"/>
        <pt x="1046" y="1514" on="0"/>
        <pt x="913" y="1514" on="0"/>
        <pt x="794" y="1592" on="0"/>
        <pt x="739" y="1733" on="0"/>
      </contour>
    </TTGlyph>
    <TTGlyph name="Acircumflex" xMin="82" yMin="0" xMax="1341" yMax="1905">
      <contour>
        <pt x="927" y="1214" on="1"/>
        <pt x="597" y="621" on="1"/>
        <pt x="1012" y="621" on="1"/>
      </contour>
      <contour>
        <pt x="1020" y="485" on="1"/>
        <pt x="523" y="485" on="1"/>
        <pt x="258" y="0" on="1"/>
        <pt x="82" y="0" on="1"/>
        <pt x="915" y="1456" on="1"/>
        <pt x="915" y="1456" on="0"/>
        <pt x="1042" y="1456" on="1"/>
        <pt x="1257" y="0" on="1"/>
        <pt x="1077" y="0" on="1"/>
      </contour>
      <contour>
        <pt x="1341" y="1561" on="1"/>
        <pt x="1153" y="1561" on="1"/>
        <pt x="1042" y="1774" on="1"/>
        <pt x="839" y="1563" on="1"/>
        <pt x="653" y="1563" on="1"/>
        <pt x="1003" y="1905" on="1"/>
        <pt x="1134" y="1905" on="1"/>
      </contour>
    </TTGlyph>
    <TTGlyph name="Adieresis" xMin="82" yMin="0" xMax="1352" yMax="1778">
      <contour>
        <pt x="927" y="1214" on="1"/>
        <pt x="597" y="621" on="1"/>
        <pt x="1012" y="621" on="1"/>
      </contour>
      <contour>
        <pt x="1020" y="485" on="1"/>
        <pt x="523" y="485" on="1"/>
        <pt x="258" y="0" on="1"/>
        <pt x="82" y="0" on="1"/>
        <pt x="915" y="1456" on="1"/>
        <pt x="915" y="1456" on="0"/>
        <pt x="1042" y="1456" on="1"/>
        <pt x="1257" y="0" on="1"/>
        <pt x="1077" y="0" on="1"/>
      </contour>
      <contour>
        <pt x="733" y="1587" on="0"/>
        <pt x="689" y="1631" on="0"/>
        <pt x="689" y="1711" on="0"/>
        <pt x="768" y="1776" on="0"/>
        <pt x="839" y="1776" on="0"/>
        <pt x="860" y="1756" on="1"/>
        <pt x="891" y="1724" on="0"/>
        <pt x="871" y="1643" on="0"/>
        <pt x="803" y="1587" on="0"/>
      </contour>
      <contour>
        <pt x="1161" y="1655" on="1"/>
        <pt x="1161" y="1714" on="0"/>
        <pt x="1239" y="1778" on="0"/>
        <pt x="1310" y="1778" on="0"/>
        <pt x="1351" y="1737" on="0"/>
        <pt x="1353" y="1653" on="0"/>
        <pt x="1275" y="1589" on="0"/>
        <pt x="1204" y="1589" on="0"/>
        <pt x="1161" y="1632" on="0"/>
      </contour>
    </TTGlyph>
    <TTGlyph name="Adieresiscyrillic" xMin="72" yMin="0" xMax="1247" yMax="1456">
      <contour>
        <pt x="917" y="1214" on="1"/>
        <pt x="587" y="621" on="1"/>
        <pt x="1002" y="621" on="1"/>
      </contour>
      <contour>
        <pt x="1010" y="485" on="1"/>
        <pt x="513" y="485" on="1"/>
        <pt x="248" y="0" on="1"/>
        <pt x="72" y="0" on="1"/>
        <pt x="905" y="1456" on="1"/>
        <pt x="1032" y="1456" on="1"/>
        <pt x="1247" y="0" on="1"/>
        <pt x="1067" y="0" on="1"/>
      </contour>
    </TTGlyph>
    <TTGlyph name="Agrave" xMin="64" yMin="0" xMax="1239" yMax="1944">
      <contour>
        <pt x="1068" y="1676" on="1"/>
        <pt x="1077" y="1666" on="0"/>
        <pt x="1077" y="1655" on="1"/>
        <pt x="1077" y="1628" on="0"/>
        <pt x="1058" y="1608" on="1"/>
        <pt x="1034" y="1582" on="0"/>
        <pt x="992" y="1582" on="0"/>
        <pt x="981" y="1591" on="1"/>
        <pt x="723" y="1810" on="1"/>
        <pt x="700" y="1834" on="0"/>
        <pt x="711" y="1895" on="0"/>
        <pt x="732" y="1916" on="1"/>
        <pt x="761" y="1944" on="0"/>
        <pt x="822" y="1944" on="0"/>
        <pt x="840" y="1926" on="1"/>
      </contour>
      <contour>
        <pt x="909" y="1214" on="1"/>
        <pt x="579" y="621" on="1"/>
        <pt x="994" y="621" on="1"/>
      </contour>
      <contour>
        <pt x="1002" y="485" on="1"/>
        <pt x="505" y="485" on="1"/>
        <pt x="240" y="0" on="1"/>
        <pt x="64" y="0" on="1"/>
        <pt x="897" y="1456" on="1"/>
        <pt x="1024" y="1456" on="1"/>
        <pt x="1239" y="0" on="1"/>
        <pt x="1059" y="0" on="1"/>
      </contour>
    </TTGlyph>
    <TTGlyph name="Aiecyrillic" xMin="83" yMin="0" xMax="1692" yMax="1456">
      <contour>
        <pt x="922" y="645" on="1"/>
        <pt x="658" y="645" on="1"/>
        <pt x="262" y="0" on="1"/>
        <pt x="83" y="0" on="1"/>
        <pt x="983" y="1456" on="1"/>
        <pt x="1692" y="1456" on="1"/>
        <pt x="1661" y="1307" on="1"/>
        <pt x="1219" y="1307" on="1"/>
        <pt x="1108" y="788" on="1"/>
        <pt x="1550" y="788" on="1"/>
        <pt x="1519" y="641" on="1"/>
        <pt x="1077" y="641" on="1"/>
        <pt x="972" y="147" on="1"/>
        <pt x="1414" y="147" on="1"/>
        <pt x="1383" y="0" on="1"/>
        <pt x="785" y="0" on="1"/>
      </contour>
      <contour>
        <pt x="952" y="788" on="1"/>
        <pt x="1062" y="1311" on="1"/>
        <pt x="748" y="788" on="1"/>
      </contour>
    </TTGlyph>
    <TTGlyph name="Alpha" xMin="72" yMin="0" xMax="1247" yMax="1456">
      <contour>
        <pt x="917" y="1214" on="1"/>
        <pt x="587" y="621" on="1"/>
        <pt x="1002" y="621" on="1"/>
      </contour>
      <contour>
        <pt x="1010" y="485" on="1"/>
        <pt x="513" y="485" on="1"/>
        <pt x="248" y="0" on="1"/>
        <pt x="72" y="0" on="1"/>
        <pt x="905" y="1456" on="1"/>
        <pt x="1032" y="1456" on="1"/>
        <pt x="1247" y="0" on="1"/>
        <pt x="1067" y="0" on="1"/>
      </contour>
    </TTGlyph>
    <TTGlyph name="Alphaacute" xMin="72" yMin="0" xMax="1247" yMax="1780">
      <contour>
        <pt x="917" y="1214" on="1"/>
        <pt x="587" y="621" on="1"/>
        <pt x="1002" y="621" on="1"/>
      </contour>
      <contour>
        <pt x="1010" y="485" on="1"/>
        <pt x="513" y="485" on="1"/>
        <pt x="248" y="0" on="1"/>
        <pt x="72" y="0" on="1"/>
        <pt x="905" y="1456" on="1"/>
        <pt x="1032" y="1456" on="1"/>
        <pt x="1247" y="0" on="1"/>
        <pt x="1067" y="0" on="1"/>
      </contour>
      <contour>
        <pt x="465" y="1427" on="1"/>
        <pt x="452" y="1418" on="0"/>
        <pt x="409" y="1418" on="0"/>
        <pt x="389" y="1454" on="0"/>
        <pt x="389" y="1489" on="0"/>
        <pt x="414" y="1512" on="1"/>
        <pt x="749" y="1762" on="1"/>
        <pt x="775" y="1780" on="0"/>
        <pt x="794" y="1780" on="1"/>
        <pt x="837" y="1780" on="0"/>
        <pt x="852" y="1750" on="1"/>
        <pt x="861" y="1736" on="0"/>
        <pt x="861" y="1725" on="1"/>
        <pt x="861" y="1678" on="0"/>
        <pt x="817" y="1646" on="1"/>
      </contour>
    </TTGlyph>
    <TTGlyph name="Alphaasper" xMin="72" yMin="0" xMax="1247" yMax="1779">
      <contour>
        <pt x="917" y="1214" on="1"/>
        <pt x="587" y="621" on="1"/>
        <pt x="1002" y="621" on="1"/>
      </contour>
      <contour>
        <pt x="1010" y="485" on="1"/>
        <pt x="513" y="485" on="1"/>
        <pt x="248" y="0" on="1"/>
        <pt x="72" y="0" on="1"/>
        <pt x="905" y="1456" on="1"/>
        <pt x="1032" y="1456" on="1"/>
        <pt x="1247" y="0" on="1"/>
        <pt x="1067" y="0" on="1"/>
      </contour>
      <contour>
        <pt x="647" y="1385" on="1"/>
        <pt x="597" y="1492" on="0"/>
        <pt x="597" y="1656" on="0"/>
        <pt x="627" y="1728" on="0"/>
        <pt x="697" y="1779" on="0"/>
        <pt x="781" y="1779" on="0"/>
        <pt x="824" y="1726" on="0"/>
        <pt x="824" y="1704" on="1"/>
        <pt x="824" y="1669" on="0"/>
        <pt x="800" y="1614" on="0"/>
        <pt x="732" y="1565" on="0"/>
        <pt x="691" y="1565" on="1"/>
        <pt x="687" y="1549" on="0"/>
        <pt x="687" y="1466" on="0"/>
        <pt x="725" y="1387" on="1"/>
        <pt x="662" y="1356" on="1"/>
      </contour>
    </TTGlyph>
    <TTGlyph name="Alphaasperacute" xMin="196" yMin="0" xMax="1371" yMax="1780">
      <contour>
        <pt x="1041" y="1214" on="1"/>
        <pt x="711" y="621" on="1"/>
        <pt x="1126" y="621" on="1"/>
      </contour>
      <contour>
        <pt x="1134" y="485" on="1"/>
        <pt x="637" y="485" on="1"/>
        <pt x="372" y="0" on="1"/>
        <pt x="196" y="0" on="1"/>
        <pt x="1029" y="1456" on="1"/>
        <pt x="1156" y="1456" on="1"/>
        <pt x="1371" y="0" on="1"/>
        <pt x="1191" y="0" on="1"/>
      </contour>
      <contour>
        <pt x="682" y="1427" on="1"/>
        <pt x="668" y="1418" on="0"/>
        <pt x="626" y="1418" on="0"/>
        <pt x="606" y="1454" on="0"/>
        <pt x="606" y="1489" on="0"/>
        <pt x="631" y="1512" on="1"/>
        <pt x="966" y="1762" on="1"/>
        <pt x="992" y="1780" on="0"/>
        <pt x="1010" y="1780" on="1"/>
        <pt x="1054" y="1780" on="0"/>
        <pt x="1069" y="1750" on="1"/>
        <pt x="1078" y="1736" on="0"/>
        <pt x="1078" y="1725" on="1"/>
        <pt x="1078" y="1678" on="0"/>
        <pt x="1034" y="1646" on="1"/>
      </contour>
    </TTGlyph>
    <TTGlyph name="Alphaaspergrave" xMin="196" yMin="0" xMax="1371" yMax="1784">
      <contour>
        <pt x="1041" y="1214" on="1"/>
        <pt x="711" y="621" on="1"/>
        <pt x="1126" y="621" on="1"/>
      </contour>
      <contour>
        <pt x="1134" y="485" on="1"/>
        <pt x="637" y="485" on="1"/>
        <pt x="372" y="0" on="1"/>
        <pt x="196" y="0" on="1"/>
        <pt x="1029" y="1456" on="1"/>
        <pt x="1156" y="1456" on="1"/>
        <pt x="1371" y="0" on="1"/>
        <pt x="1191" y="0" on="1"/>
      </contour>
      <contour>
        <pt x="998" y="1516" on="1"/>
        <pt x="1007" y="1504" on="0"/>
        <pt x="1007" y="1494" on="1"/>
        <pt x="1007" y="1468" on="0"/>
        <pt x="988" y="1448" on="1"/>
        <pt x="964" y="1422" on="0"/>
        <pt x="922" y="1422" on="0"/>
        <pt x="911" y="1431" on="1"/>
        <pt x="653" y="1650" on="1"/>
        <pt x="635" y="1669" on="0"/>
        <pt x="634" y="1691" on="1"/>
        <pt x="634" y="1700" on="1"/>
        <pt x="634" y="1729" on="0"/>
        <pt x="658" y="1752" on="1"/>
        <pt x="691" y="1784" on="0"/>
        <pt x="752" y="1784" on="0"/>
        <pt x="770" y="1766" on="1"/>
      </contour>
    </TTGlyph>
    <TTGlyph name="Alphaaspertilde" xMin="196" yMin="0" xMax="1371" yMax="1780">
      <contour>
        <pt x="1041" y="1214" on="1"/>
        <pt x="711" y="621" on="1"/>
        <pt x="1126" y="621" on="1"/>
      </contour>
      <contour>
        <pt x="1134" y="485" on="1"/>
        <pt x="637" y="485" on="1"/>
        <pt x="372" y="0" on="1"/>
        <pt x="196" y="0" on="1"/>
        <pt x="1029" y="1456" on="1"/>
        <pt x="1156" y="1456" on="1"/>
        <pt x="1371" y="0" on="1"/>
        <pt x="1191" y="0" on="1"/>
      </contour>
      <contour>
        <pt x="374" y="1671" on="1"/>
        <pt x="383" y="1714" on="0"/>
        <pt x="460" y="1779" on="0"/>
        <pt x="543" y="1779" on="0"/>
        <pt x="592" y="1730" on="0"/>
        <pt x="592" y="1656" on="0"/>
        <pt x="542" y="1538" on="0"/>
        <pt x="498" y="1474" on="0"/>
        <pt x="471" y="1438" on="1"/>
        <pt x="426" y="1385" on="1"/>
        <pt x="399" y="1356" on="1"/>
        <pt x="350" y="1387" on="1"/>
        <pt x="443" y="1489" on="0"/>
        <pt x="460" y="1565" on="1"/>
        <pt x="420" y="1565" on="0"/>
        <pt x="373" y="1612" on="0"/>
        <pt x="373" y="1649" on="1"/>
        <pt x="371" y="1660" on="0"/>
      </contour>
      <contour>
        <pt x="645" y="1684" on="1"/>
        <pt x="670" y="1701" on="0"/>
        <pt x="702" y="1724" on="1"/>
        <pt x="778" y="1780" on="0"/>
        <pt x="848" y="1780" on="1"/>
        <pt x="899" y="1780" on="0"/>
        <pt x="944" y="1726" on="1"/>
        <pt x="959" y="1706" on="0"/>
        <pt x="981" y="1682" on="1"/>
        <pt x="1030" y="1629" on="0"/>
        <pt x="1072" y="1629" on="1"/>
        <pt x="1142" y="1629" on="0"/>
        <pt x="1222" y="1682" on="1"/>
        <pt x="1254" y="1703" on="0"/>
        <pt x="1291" y="1727" on="1"/>
        <pt x="1260" y="1582" on="1"/>
        <pt x="1210" y="1550" on="0"/>
        <pt x="1159" y="1513" on="0"/>
        <pt x="1084" y="1483" on="0"/>
        <pt x="1051" y="1483" on="1"/>
        <pt x="990" y="1483" on="0"/>
        <pt x="941" y="1536" on="1"/>
        <pt x="939" y="1538" on="0"/>
        <pt x="909" y="1572" on="1"/>
        <pt x="855" y="1635" on="0"/>
        <pt x="817" y="1635" on="1"/>
        <pt x="749" y="1635" on="0"/>
        <pt x="679" y="1584" on="1"/>
        <pt x="660" y="1570" on="0"/>
        <pt x="614" y="1538" on="1"/>
      </contour>
    </TTGlyph>
    <TTGlyph name="Alphabreve" xMin="72" yMin="0" xMax="1351" yMax="1838">
      <contour>
        <pt x="917" y="1214" on="1"/>
        <pt x="587" y="621" on="1"/>
        <pt x="1002" y="621" on="1"/>
      </contour>
      <contour>
        <pt x="1010" y="485" on="1"/>
        <pt x="513" y="485" on="1"/>
        <pt x="248" y="0" on="1"/>
        <pt x="72" y="0" on="1"/>
        <pt x="905" y="1456" on="1"/>
        <pt x="1032" y="1456" on="1"/>
        <pt x="1247" y="0" on="1"/>
        <pt x="1067" y="0" on="1"/>
      </contour>
      <contour>
        <pt x="739" y="1791" on="1"/>
        <pt x="744" y="1832" on="1"/>
        <pt x="744" y="1836" on="0"/>
        <pt x="745" y="1838" on="1"/>
        <pt x="826" y="1838" on="1"/>
        <pt x="851" y="1726" on="0"/>
        <pt x="918" y="1674" on="1"/>
        <pt x="952" y="1649" on="0"/>
        <pt x="1068" y="1651" on="0"/>
        <pt x="1108" y="1674" on="1"/>
        <pt x="1177" y="1717" on="0"/>
        <pt x="1271" y="1838" on="1"/>
        <pt x="1351" y="1838" on="1"/>
        <pt x="1350" y="1836" on="0"/>
        <pt x="1350" y="1829" on="0"/>
        <pt x="1349" y="1828" on="1"/>
        <pt x="1333" y="1758" on="0"/>
        <pt x="1245" y="1649" on="1"/>
        <pt x="1198" y="1592" on="0"/>
        <pt x="1046" y="1514" on="0"/>
        <pt x="913" y="1514" on="0"/>
        <pt x="794" y="1592" on="0"/>
        <pt x="739" y="1733" on="0"/>
      </contour>
    </TTGlyph>
    <TTGlyph name="Alphagrave" xMin="72" yMin="0" xMax="1247" yMax="1778">
      <contour>
        <pt x="917" y="1214" on="1"/>
        <pt x="587" y="621" on="1"/>
        <pt x="1002" y="621" on="1"/>
      </contour>
      <contour>
        <pt x="1010" y="485" on="1"/>
        <pt x="513" y="485" on="1"/>
        <pt x="248" y="0" on="1"/>
        <pt x="72" y="0" on="1"/>
        <pt x="905" y="1456" on="1"/>
        <pt x="1032" y="1456" on="1"/>
        <pt x="1247" y="0" on="1"/>
        <pt x="1067" y="0" on="1"/>
      </contour>
      <contour>
        <pt x="784" y="1510" on="1"/>
        <pt x="793" y="1498" on="0"/>
        <pt x="793" y="1488" on="1"/>
        <pt x="793" y="1462" on="0"/>
        <pt x="775" y="1442" on="1"/>
        <pt x="750" y="1416" on="0"/>
        <pt x="708" y="1416" on="0"/>
        <pt x="697" y="1425" on="1"/>
        <pt x="438" y="1644" on="1"/>
        <pt x="422" y="1662" on="0"/>
        <pt x="420" y="1685" on="1"/>
        <pt x="420" y="1694" on="1"/>
        <pt x="420" y="1723" on="0"/>
        <pt x="444" y="1746" on="1"/>
        <pt x="477" y="1778" on="0"/>
        <pt x="538" y="1778" on="0"/>
        <pt x="556" y="1760" on="1"/>
      </contour>
    </TTGlyph>
    <TTGlyph name="Alphaiotasub" xMin="72" yMin="-396" xMax="1247" yMax="1456">
      <contour>
        <pt x="917" y="1214" on="1"/>
        <pt x="587" y="621" on="1"/>
        <pt x="1002" y="621" on="1"/>
      </contour>
      <contour>
        <pt x="1010" y="485" on="1"/>
        <pt x="513" y="485" on="1"/>
        <pt x="248" y="0" on="1"/>
        <pt x="72" y="0" on="1"/>
        <pt x="905" y="1456" on="1"/>
        <pt x="1032" y="1456" on="1"/>
        <pt x="1247" y="0" on="1"/>
        <pt x="1067" y="0" on="1"/>
      </contour>
      <contour>
        <pt x="528" y="-359" on="1"/>
        <pt x="543" y="-195" on="1"/>
        <pt x="552" y="-154" on="0"/>
        <pt x="607" y="-120" on="0"/>
        <pt x="629" y="-120" on="1"/>
        <pt x="634" y="-120" on="1"/>
        <pt x="666" y="-120" on="0"/>
        <pt x="679" y="-139" on="1"/>
        <pt x="693" y="-153" on="0"/>
        <pt x="693" y="-184" on="0"/>
        <pt x="691" y="-196" on="1"/>
        <pt x="637" y="-348" on="1"/>
        <pt x="630" y="-371" on="0"/>
        <pt x="589" y="-396" on="0"/>
        <pt x="550" y="-396" on="0"/>
        <pt x="542" y="-386" on="1"/>
        <pt x="528" y="-371" on="0"/>
      </contour>
    </TTGlyph>
    <TTGlyph name="Alphaiotasubasper" xMin="72" yMin="-396" xMax="1247" yMax="1779">
      <contour>
        <pt x="529" y="-348" on="1"/>
        <pt x="543" y="-195" on="1"/>
        <pt x="552" y="-154" on="0"/>
        <pt x="607" y="-120" on="0"/>
        <pt x="629" y="-120" on="1"/>
        <pt x="634" y="-120" on="1"/>
        <pt x="666" y="-120" on="0"/>
        <pt x="679" y="-139" on="1"/>
        <pt x="699" y="-159" on="0"/>
        <pt x="691" y="-196" on="1"/>
        <pt x="637" y="-348" on="1"/>
        <pt x="630" y="-371" on="0"/>
        <pt x="589" y="-396" on="0"/>
        <pt x="550" y="-396" on="0"/>
        <pt x="533" y="-377" on="0"/>
        <pt x="527" y="-367" on="0"/>
      </contour>
      <contour>
        <pt x="917" y="1214" on="1"/>
        <pt x="587" y="621" on="1"/>
        <pt x="1002" y="621" on="1"/>
      </contour>
      <contour>
        <pt x="1010" y="485" on="1"/>
        <pt x="513" y="485" on="1"/>
        <pt x="248" y="0" on="1"/>
        <pt x="72" y="0" on="1"/>
        <pt x="905" y="1456" on="1"/>
        <pt x="1032" y="1456" on="1"/>
        <pt x="1247" y="0" on="1"/>
        <pt x="1067" y="0" on="1"/>
      </contour>
      <contour>
        <pt x="649" y="1385" on="1"/>
        <pt x="599" y="1492" on="0"/>
        <pt x="599" y="1656" on="0"/>
        <pt x="629" y="1728" on="0"/>
        <pt x="699" y="1779" on="0"/>
        <pt x="783" y="1779" on="0"/>
        <pt x="826" y="1726" on="0"/>
        <pt x="826" y="1704" on="1"/>
        <pt x="826" y="1669" on="0"/>
        <pt x="802" y="1614" on="0"/>
        <pt x="734" y="1565" on="0"/>
        <pt x="693" y="1565" on="1"/>
        <pt x="689" y="1549" on="0"/>
        <pt x="689" y="1466" on="0"/>
        <pt x="727" y="1387" on="1"/>
        <pt x="664" y="1356" on="1"/>
      </contour>
    </TTGlyph>
    <TTGlyph name="Alphaiotasubasperacute" xMin="72" yMin="-396" xMax="1247" yMax="1780">
      <contour>
        <pt x="529" y="-348" on="1"/>
        <pt x="543" y="-195" on="1"/>
        <pt x="552" y="-154" on="0"/>
        <pt x="607" y="-120" on="0"/>
        <pt x="629" y="-120" on="1"/>
        <pt x="634" y="-120" on="1"/>
        <pt x="666" y="-120" on="0"/>
        <pt x="679" y="-139" on="1"/>
        <pt x="699" y="-159" on="0"/>
        <pt x="691" y="-196" on="1"/>
        <pt x="637" y="-348" on="1"/>
        <pt x="630" y="-371" on="0"/>
        <pt x="589" y="-396" on="0"/>
        <pt x="550" y="-396" on="0"/>
        <pt x="533" y="-377" on="0"/>
        <pt x="527" y="-367" on="0"/>
      </contour>
      <contour>
        <pt x="917" y="1214" on="1"/>
        <pt x="587" y="621" on="1"/>
        <pt x="1002" y="621" on="1"/>
      </contour>
      <contour>
        <pt x="1010" y="485" on="1"/>
        <pt x="513" y="485" on="1"/>
        <pt x="248" y="0" on="1"/>
        <pt x="72" y="0" on="1"/>
        <pt x="905" y="1456" on="1"/>
        <pt x="1032" y="1456" on="1"/>
        <pt x="1247" y="0" on="1"/>
        <pt x="1067" y="0" on="1"/>
      </contour>
      <contour>
        <pt x="428" y="1385" on="1"/>
        <pt x="378" y="1492" on="0"/>
        <pt x="378" y="1656" on="0"/>
        <pt x="408" y="1728" on="0"/>
        <pt x="478" y="1779" on="0"/>
        <pt x="562" y="1779" on="0"/>
        <pt x="605" y="1726" on="0"/>
        <pt x="605" y="1704" on="1"/>
        <pt x="605" y="1669" on="0"/>
        <pt x="581" y="1614" on="0"/>
        <pt x="513" y="1565" on="0"/>
        <pt x="472" y="1565" on="1"/>
        <pt x="468" y="1549" on="0"/>
        <pt x="468" y="1466" on="0"/>
        <pt x="506" y="1387" on="1"/>
        <pt x="443" y="1356" on="1"/>
      </contour>
      <contour>
        <pt x="664" y="1427" on="1"/>
        <pt x="650" y="1418" on="0"/>
        <pt x="608" y="1418" on="0"/>
        <pt x="588" y="1454" on="0"/>
        <pt x="588" y="1489" on="0"/>
        <pt x="613" y="1512" on="1"/>
        <pt x="948" y="1762" on="1"/>
        <pt x="974" y="1780" on="0"/>
        <pt x="992" y="1780" on="1"/>
        <pt x="1036" y="1780" on="0"/>
        <pt x="1051" y="1750" on="1"/>
        <pt x="1060" y="1736" on="0"/>
        <pt x="1060" y="1725" on="1"/>
        <pt x="1060" y="1678" on="0"/>
        <pt x="1016" y="1646" on="1"/>
      </contour>
    </TTGlyph>
    <TTGlyph name="Alphaiotasubaspergrave" xMin="248" yMin="-396" xMax="1423" yMax="1779">
      <contour>
        <pt x="999" y="1510" on="1"/>
        <pt x="1008" y="1500" on="0"/>
        <pt x="1008" y="1489" on="1"/>
        <pt x="1008" y="1462" on="0"/>
        <pt x="990" y="1442" on="1"/>
        <pt x="965" y="1416" on="0"/>
        <pt x="922" y="1416" on="0"/>
        <pt x="912" y="1425" on="1"/>
        <pt x="653" y="1644" on="1"/>
        <pt x="631" y="1669" on="0"/>
        <pt x="642" y="1729" on="0"/>
        <pt x="663" y="1750" on="1"/>
        <pt x="691" y="1778" on="0"/>
        <pt x="753" y="1778" on="0"/>
        <pt x="771" y="1760" on="1"/>
      </contour>
      <contour>
        <pt x="705" y="-348" on="1"/>
        <pt x="719" y="-195" on="1"/>
        <pt x="728" y="-154" on="0"/>
        <pt x="783" y="-120" on="0"/>
        <pt x="805" y="-120" on="1"/>
        <pt x="810" y="-120" on="1"/>
        <pt x="842" y="-120" on="0"/>
        <pt x="855" y="-139" on="1"/>
        <pt x="875" y="-159" on="0"/>
        <pt x="867" y="-196" on="1"/>
        <pt x="813" y="-348" on="1"/>
        <pt x="806" y="-371" on="0"/>
        <pt x="766" y="-396" on="0"/>
        <pt x="726" y="-396" on="0"/>
        <pt x="709" y="-377" on="0"/>
        <pt x="703" y="-367" on="0"/>
      </contour>
      <contour>
        <pt x="1093" y="1214" on="1"/>
        <pt x="763" y="621" on="1"/>
        <pt x="1178" y="621" on="1"/>
      </contour>
      <contour>
        <pt x="1186" y="485" on="1"/>
        <pt x="689" y="485" on="1"/>
        <pt x="424" y="0" on="1"/>
        <pt x="248" y="0" on="1"/>
        <pt x="1081" y="1456" on="1"/>
        <pt x="1208" y="1456" on="1"/>
        <pt x="1423" y="0" on="1"/>
        <pt x="1243" y="0" on="1"/>
      </contour>
      <contour>
        <pt x="415" y="1385" on="1"/>
        <pt x="365" y="1492" on="0"/>
        <pt x="365" y="1656" on="0"/>
        <pt x="395" y="1728" on="0"/>
        <pt x="465" y="1779" on="0"/>
        <pt x="549" y="1779" on="0"/>
        <pt x="592" y="1726" on="0"/>
        <pt x="592" y="1704" on="1"/>
        <pt x="592" y="1669" on="0"/>
        <pt x="568" y="1614" on="0"/>
        <pt x="500" y="1565" on="0"/>
        <pt x="459" y="1565" on="1"/>
        <pt x="455" y="1549" on="0"/>
        <pt x="455" y="1466" on="0"/>
        <pt x="493" y="1387" on="1"/>
        <pt x="430" y="1356" on="1"/>
      </contour>
    </TTGlyph>
    <TTGlyph name="Alphaiotasubaspertilde" xMin="72" yMin="-396" xMax="1274" yMax="1779">
      <contour>
        <pt x="529" y="-348" on="1"/>
        <pt x="543" y="-195" on="1"/>
        <pt x="552" y="-154" on="0"/>
        <pt x="607" y="-120" on="0"/>
        <pt x="629" y="-120" on="1"/>
        <pt x="634" y="-120" on="1"/>
        <pt x="666" y="-120" on="0"/>
        <pt x="679" y="-139" on="1"/>
        <pt x="699" y="-159" on="0"/>
        <pt x="691" y="-196" on="1"/>
        <pt x="637" y="-348" on="1"/>
        <pt x="630" y="-371" on="0"/>
        <pt x="589" y="-396" on="0"/>
        <pt x="550" y="-396" on="0"/>
        <pt x="533" y="-377" on="0"/>
        <pt x="527" y="-367" on="0"/>
      </contour>
      <contour>
        <pt x="917" y="1214" on="1"/>
        <pt x="587" y="621" on="1"/>
        <pt x="1002" y="621" on="1"/>
      </contour>
      <contour>
        <pt x="1010" y="485" on="1"/>
        <pt x="513" y="485" on="1"/>
        <pt x="248" y="0" on="1"/>
        <pt x="72" y="0" on="1"/>
        <pt x="905" y="1456" on="1"/>
        <pt x="1032" y="1456" on="1"/>
        <pt x="1247" y="0" on="1"/>
        <pt x="1067" y="0" on="1"/>
      </contour>
      <contour>
        <pt x="628" y="1682" on="1"/>
        <pt x="645" y="1693" on="0"/>
        <pt x="680" y="1719" on="1"/>
        <pt x="759" y="1778" on="0"/>
        <pt x="831" y="1778" on="1"/>
        <pt x="880" y="1778" on="0"/>
        <pt x="926" y="1724" on="1"/>
        <pt x="932" y="1717" on="0"/>
        <pt x="958" y="1688" on="0"/>
        <pt x="972" y="1672" on="1"/>
        <pt x="1009" y="1627" on="0"/>
        <pt x="1053" y="1627" on="1"/>
        <pt x="1126" y="1627" on="0"/>
        <pt x="1204" y="1680" on="1"/>
        <pt x="1212" y="1685" on="0"/>
        <pt x="1274" y="1725" on="1"/>
        <pt x="1243" y="1580" on="1"/>
        <pt x="1193" y="1548" on="0"/>
        <pt x="1168" y="1530" on="1"/>
        <pt x="1101" y="1481" on="0"/>
        <pt x="1051" y="1481" on="1"/>
        <pt x="973" y="1481" on="0"/>
        <pt x="924" y="1534" on="1"/>
        <pt x="922" y="1536" on="0"/>
        <pt x="892" y="1570" on="1"/>
        <pt x="838" y="1633" on="0"/>
        <pt x="800" y="1633" on="1"/>
        <pt x="729" y="1633" on="0"/>
        <pt x="661" y="1582" on="1"/>
        <pt x="642" y="1568" on="0"/>
        <pt x="596" y="1536" on="1"/>
      </contour>
      <contour>
        <pt x="424" y="1385" on="1"/>
        <pt x="374" y="1492" on="0"/>
        <pt x="374" y="1656" on="0"/>
        <pt x="404" y="1728" on="0"/>
        <pt x="474" y="1779" on="0"/>
        <pt x="558" y="1779" on="0"/>
        <pt x="601" y="1726" on="0"/>
        <pt x="601" y="1704" on="1"/>
        <pt x="601" y="1669" on="0"/>
        <pt x="577" y="1614" on="0"/>
        <pt x="509" y="1565" on="0"/>
        <pt x="468" y="1565" on="1"/>
        <pt x="464" y="1549" on="0"/>
        <pt x="464" y="1466" on="0"/>
        <pt x="502" y="1387" on="1"/>
        <pt x="439" y="1356" on="1"/>
      </contour>
    </TTGlyph>
    <TTGlyph name="Alphaiotasublenis" xMin="72" yMin="-396" xMax="1247" yMax="1779">
      <contour>
        <pt x="529" y="-348" on="1"/>
        <pt x="543" y="-195" on="1"/>
        <pt x="552" y="-154" on="0"/>
        <pt x="607" y="-120" on="0"/>
        <pt x="629" y="-120" on="1"/>
        <pt x="634" y="-120" on="1"/>
        <pt x="666" y="-120" on="0"/>
        <pt x="679" y="-139" on="1"/>
        <pt x="699" y="-159" on="0"/>
        <pt x="691" y="-196" on="1"/>
        <pt x="637" y="-348" on="1"/>
        <pt x="630" y="-371" on="0"/>
        <pt x="589" y="-396" on="0"/>
        <pt x="550" y="-396" on="0"/>
        <pt x="533" y="-377" on="0"/>
        <pt x="527" y="-367" on="0"/>
      </contour>
      <contour>
        <pt x="917" y="1214" on="1"/>
        <pt x="587" y="621" on="1"/>
        <pt x="1002" y="621" on="1"/>
      </contour>
      <contour>
        <pt x="1010" y="485" on="1"/>
        <pt x="513" y="485" on="1"/>
        <pt x="248" y="0" on="1"/>
        <pt x="72" y="0" on="1"/>
        <pt x="905" y="1456" on="1"/>
        <pt x="1032" y="1456" on="1"/>
        <pt x="1247" y="0" on="1"/>
        <pt x="1067" y="0" on="1"/>
      </contour>
      <contour>
        <pt x="605" y="1671" on="1"/>
        <pt x="614" y="1714" on="0"/>
        <pt x="691" y="1779" on="0"/>
        <pt x="774" y="1779" on="0"/>
        <pt x="823" y="1730" on="0"/>
        <pt x="823" y="1656" on="0"/>
        <pt x="773" y="1538" on="0"/>
        <pt x="729" y="1474" on="0"/>
        <pt x="702" y="1438" on="1"/>
        <pt x="657" y="1385" on="1"/>
        <pt x="630" y="1356" on="1"/>
        <pt x="581" y="1387" on="1"/>
        <pt x="674" y="1489" on="0"/>
        <pt x="691" y="1565" on="1"/>
        <pt x="651" y="1565" on="0"/>
        <pt x="604" y="1612" on="0"/>
        <pt x="604" y="1649" on="1"/>
        <pt x="602" y="1660" on="0"/>
      </contour>
    </TTGlyph>
    <TTGlyph name="Alphaiotasublenisacute" xMin="288" yMin="-396" xMax="1463" yMax="1779">
      <contour>
        <pt x="995" y="1510" on="1"/>
        <pt x="1004" y="1500" on="0"/>
        <pt x="1004" y="1489" on="1"/>
        <pt x="1004" y="1462" on="0"/>
        <pt x="986" y="1442" on="1"/>
        <pt x="961" y="1416" on="0"/>
        <pt x="918" y="1416" on="0"/>
        <pt x="908" y="1425" on="1"/>
        <pt x="649" y="1644" on="1"/>
        <pt x="627" y="1669" on="0"/>
        <pt x="638" y="1729" on="0"/>
        <pt x="659" y="1750" on="1"/>
        <pt x="687" y="1778" on="0"/>
        <pt x="749" y="1778" on="0"/>
        <pt x="767" y="1760" on="1"/>
      </contour>
      <contour>
        <pt x="745" y="-348" on="1"/>
        <pt x="759" y="-195" on="1"/>
        <pt x="768" y="-154" on="0"/>
        <pt x="823" y="-120" on="0"/>
        <pt x="845" y="-120" on="1"/>
        <pt x="850" y="-120" on="1"/>
        <pt x="882" y="-120" on="0"/>
        <pt x="895" y="-139" on="1"/>
        <pt x="915" y="-159" on="0"/>
        <pt x="907" y="-196" on="1"/>
        <pt x="853" y="-348" on="1"/>
        <pt x="846" y="-371" on="0"/>
        <pt x="806" y="-396" on="0"/>
        <pt x="766" y="-396" on="0"/>
        <pt x="749" y="-377" on="0"/>
        <pt x="743" y="-367" on="0"/>
      </contour>
      <contour>
        <pt x="1133" y="1214" on="1"/>
        <pt x="803" y="621" on="1"/>
        <pt x="1218" y="621" on="1"/>
      </contour>
      <contour>
        <pt x="1226" y="485" on="1"/>
        <pt x="729" y="485" on="1"/>
        <pt x="464" y="0" on="1"/>
        <pt x="288" y="0" on="1"/>
        <pt x="1121" y="1456" on="1"/>
        <pt x="1248" y="1456" on="1"/>
        <pt x="1463" y="0" on="1"/>
        <pt x="1283" y="0" on="1"/>
      </contour>
      <contour>
        <pt x="374" y="1671" on="1"/>
        <pt x="383" y="1714" on="0"/>
        <pt x="460" y="1779" on="0"/>
        <pt x="543" y="1779" on="0"/>
        <pt x="592" y="1730" on="0"/>
        <pt x="592" y="1656" on="0"/>
        <pt x="542" y="1538" on="0"/>
        <pt x="498" y="1474" on="0"/>
        <pt x="471" y="1438" on="1"/>
        <pt x="426" y="1385" on="1"/>
        <pt x="399" y="1356" on="1"/>
        <pt x="350" y="1387" on="1"/>
        <pt x="443" y="1489" on="0"/>
        <pt x="460" y="1565" on="1"/>
        <pt x="420" y="1565" on="0"/>
        <pt x="373" y="1612" on="0"/>
        <pt x="373" y="1649" on="1"/>
        <pt x="371" y="1660" on="0"/>
      </contour>
    </TTGlyph>
    <TTGlyph name="Alphaiotasublenisgrave" xMin="288" yMin="-396" xMax="1463" yMax="1781">
      <contour>
        <pt x="1006" y="1513" on="1"/>
        <pt x="1015" y="1503" on="0"/>
        <pt x="1015" y="1492" on="1"/>
        <pt x="1015" y="1466" on="0"/>
        <pt x="996" y="1445" on="1"/>
        <pt x="971" y="1419" on="0"/>
        <pt x="930" y="1419" on="0"/>
        <pt x="919" y="1428" on="1"/>
        <pt x="660" y="1647" on="1"/>
        <pt x="644" y="1665" on="0"/>
        <pt x="642" y="1688" on="1"/>
        <pt x="642" y="1705" on="1"/>
        <pt x="648" y="1732" on="0"/>
        <pt x="669" y="1752" on="1"/>
        <pt x="698" y="1781" on="0"/>
        <pt x="760" y="1781" on="0"/>
        <pt x="778" y="1763" on="1"/>
      </contour>
      <contour>
        <pt x="745" y="-348" on="1"/>
        <pt x="759" y="-195" on="1"/>
        <pt x="768" y="-154" on="0"/>
        <pt x="823" y="-120" on="0"/>
        <pt x="845" y="-120" on="1"/>
        <pt x="850" y="-120" on="1"/>
        <pt x="882" y="-120" on="0"/>
        <pt x="895" y="-139" on="1"/>
        <pt x="915" y="-159" on="0"/>
        <pt x="907" y="-196" on="1"/>
        <pt x="853" y="-348" on="1"/>
        <pt x="846" y="-371" on="0"/>
        <pt x="806" y="-396" on="0"/>
        <pt x="766" y="-396" on="0"/>
        <pt x="749" y="-377" on="0"/>
        <pt x="743" y="-367" on="0"/>
      </contour>
      <contour>
        <pt x="1133" y="1214" on="1"/>
        <pt x="803" y="621" on="1"/>
        <pt x="1218" y="621" on="1"/>
      </contour>
      <contour>
        <pt x="1226" y="485" on="1"/>
        <pt x="729" y="485" on="1"/>
        <pt x="464" y="0" on="1"/>
        <pt x="288" y="0" on="1"/>
        <pt x="1121" y="1456" on="1"/>
        <pt x="1248" y="1456" on="1"/>
        <pt x="1463" y="0" on="1"/>
        <pt x="1283" y="0" on="1"/>
      </contour>
      <contour>
        <pt x="374" y="1671" on="1"/>
        <pt x="383" y="1714" on="0"/>
        <pt x="460" y="1779" on="0"/>
        <pt x="543" y="1779" on="0"/>
        <pt x="592" y="1730" on="0"/>
        <pt x="592" y="1656" on="0"/>
        <pt x="542" y="1538" on="0"/>
        <pt x="498" y="1474" on="0"/>
        <pt x="471" y="1438" on="1"/>
        <pt x="426" y="1385" on="1"/>
        <pt x="399" y="1356" on="1"/>
        <pt x="350" y="1387" on="1"/>
        <pt x="443" y="1489" on="0"/>
        <pt x="460" y="1565" on="1"/>
        <pt x="420" y="1565" on="0"/>
        <pt x="373" y="1612" on="0"/>
        <pt x="373" y="1649" on="1"/>
        <pt x="371" y="1660" on="0"/>
      </contour>
    </TTGlyph>
    <TTGlyph name="Alphaiotasublenistilde" xMin="72" yMin="-396" xMax="1299" yMax="1780">
      <contour>
        <pt x="529" y="-348" on="1"/>
        <pt x="543" y="-195" on="1"/>
        <pt x="552" y="-154" on="0"/>
        <pt x="607" y="-120" on="0"/>
        <pt x="629" y="-120" on="1"/>
        <pt x="634" y="-120" on="1"/>
        <pt x="666" y="-120" on="0"/>
        <pt x="679" y="-139" on="1"/>
        <pt x="699" y="-159" on="0"/>
        <pt x="691" y="-196" on="1"/>
        <pt x="637" y="-348" on="1"/>
        <pt x="630" y="-371" on="0"/>
        <pt x="589" y="-396" on="0"/>
        <pt x="550" y="-396" on="0"/>
        <pt x="533" y="-377" on="0"/>
        <pt x="527" y="-367" on="0"/>
      </contour>
      <contour>
        <pt x="917" y="1214" on="1"/>
        <pt x="587" y="621" on="1"/>
        <pt x="1002" y="621" on="1"/>
      </contour>
      <contour>
        <pt x="1010" y="485" on="1"/>
        <pt x="513" y="485" on="1"/>
        <pt x="248" y="0" on="1"/>
        <pt x="72" y="0" on="1"/>
        <pt x="905" y="1456" on="1"/>
        <pt x="1032" y="1456" on="1"/>
        <pt x="1247" y="0" on="1"/>
        <pt x="1067" y="0" on="1"/>
      </contour>
      <contour>
        <pt x="374" y="1671" on="1"/>
        <pt x="383" y="1714" on="0"/>
        <pt x="460" y="1779" on="0"/>
        <pt x="543" y="1779" on="0"/>
        <pt x="592" y="1730" on="0"/>
        <pt x="592" y="1656" on="0"/>
        <pt x="542" y="1538" on="0"/>
        <pt x="498" y="1474" on="0"/>
        <pt x="471" y="1438" on="1"/>
        <pt x="426" y="1385" on="1"/>
        <pt x="399" y="1356" on="1"/>
        <pt x="350" y="1387" on="1"/>
        <pt x="443" y="1489" on="0"/>
        <pt x="460" y="1565" on="1"/>
        <pt x="420" y="1565" on="0"/>
        <pt x="373" y="1612" on="0"/>
        <pt x="373" y="1649" on="1"/>
        <pt x="371" y="1660" on="0"/>
      </contour>
      <contour>
        <pt x="653" y="1684" on="1"/>
        <pt x="678" y="1701" on="0"/>
        <pt x="710" y="1724" on="1"/>
        <pt x="786" y="1780" on="0"/>
        <pt x="856" y="1780" on="1"/>
        <pt x="907" y="1780" on="0"/>
        <pt x="952" y="1726" on="1"/>
        <pt x="967" y="1706" on="0"/>
        <pt x="990" y="1682" on="1"/>
        <pt x="1038" y="1629" on="0"/>
        <pt x="1080" y="1629" on="1"/>
        <pt x="1150" y="1629" on="0"/>
        <pt x="1230" y="1682" on="1"/>
        <pt x="1262" y="1703" on="0"/>
        <pt x="1299" y="1727" on="1"/>
        <pt x="1268" y="1582" on="1"/>
        <pt x="1218" y="1550" on="0"/>
        <pt x="1167" y="1513" on="0"/>
        <pt x="1092" y="1483" on="0"/>
        <pt x="1059" y="1483" on="1"/>
        <pt x="998" y="1483" on="0"/>
        <pt x="949" y="1536" on="1"/>
        <pt x="947" y="1538" on="0"/>
        <pt x="917" y="1572" on="1"/>
        <pt x="863" y="1635" on="0"/>
        <pt x="825" y="1635" on="1"/>
        <pt x="757" y="1635" on="0"/>
        <pt x="687" y="1584" on="1"/>
        <pt x="668" y="1570" on="0"/>
        <pt x="622" y="1538" on="1"/>
      </contour>
    </TTGlyph>
    <TTGlyph name="Alphalenis" xMin="72" yMin="0" xMax="1247" yMax="1779">
      <contour>
        <pt x="917" y="1214" on="1"/>
        <pt x="587" y="621" on="1"/>
        <pt x="1002" y="621" on="1"/>
      </contour>
      <contour>
        <pt x="1010" y="485" on="1"/>
        <pt x="513" y="485" on="1"/>
        <pt x="248" y="0" on="1"/>
        <pt x="72" y="0" on="1"/>
        <pt x="905" y="1456" on="1"/>
        <pt x="1032" y="1456" on="1"/>
        <pt x="1247" y="0" on="1"/>
        <pt x="1067" y="0" on="1"/>
      </contour>
      <contour>
        <pt x="617" y="1671" on="1"/>
        <pt x="626" y="1714" on="0"/>
        <pt x="703" y="1779" on="0"/>
        <pt x="786" y="1779" on="0"/>
        <pt x="835" y="1730" on="0"/>
        <pt x="835" y="1656" on="0"/>
        <pt x="785" y="1538" on="0"/>
        <pt x="741" y="1474" on="0"/>
        <pt x="714" y="1438" on="1"/>
        <pt x="669" y="1385" on="1"/>
        <pt x="642" y="1356" on="1"/>
        <pt x="593" y="1387" on="1"/>
        <pt x="686" y="1489" on="0"/>
        <pt x="703" y="1565" on="1"/>
        <pt x="663" y="1565" on="0"/>
        <pt x="616" y="1612" on="0"/>
        <pt x="616" y="1649" on="1"/>
        <pt x="614" y="1660" on="0"/>
      </contour>
    </TTGlyph>
    <TTGlyph name="Alphalenisacute" xMin="196" yMin="0" xMax="1371" yMax="1780">
      <contour>
        <pt x="1041" y="1214" on="1"/>
        <pt x="711" y="621" on="1"/>
        <pt x="1126" y="621" on="1"/>
      </contour>
      <contour>
        <pt x="1134" y="485" on="1"/>
        <pt x="637" y="485" on="1"/>
        <pt x="372" y="0" on="1"/>
        <pt x="196" y="0" on="1"/>
        <pt x="1029" y="1456" on="1"/>
        <pt x="1156" y="1456" on="1"/>
        <pt x="1371" y="0" on="1"/>
        <pt x="1191" y="0" on="1"/>
      </contour>
      <contour>
        <pt x="647" y="1512" on="1"/>
        <pt x="982" y="1762" on="1"/>
        <pt x="1008" y="1780" on="0"/>
        <pt x="1026" y="1780" on="1"/>
        <pt x="1070" y="1780" on="0"/>
        <pt x="1085" y="1750" on="1"/>
        <pt x="1094" y="1736" on="0"/>
        <pt x="1094" y="1725" on="1"/>
        <pt x="1094" y="1678" on="0"/>
        <pt x="1050" y="1646" on="1"/>
        <pt x="698" y="1427" on="1"/>
        <pt x="684" y="1418" on="0"/>
        <pt x="676" y="1418" on="1"/>
        <pt x="642" y="1418" on="0"/>
        <pt x="631" y="1438" on="1"/>
        <pt x="609" y="1477" on="0"/>
      </contour>
      <contour>
        <pt x="374" y="1671" on="1"/>
        <pt x="383" y="1714" on="0"/>
        <pt x="460" y="1779" on="0"/>
        <pt x="543" y="1779" on="0"/>
        <pt x="592" y="1730" on="0"/>
        <pt x="592" y="1656" on="0"/>
        <pt x="542" y="1538" on="0"/>
        <pt x="498" y="1474" on="0"/>
        <pt x="471" y="1438" on="1"/>
        <pt x="426" y="1385" on="1"/>
        <pt x="399" y="1356" on="1"/>
        <pt x="350" y="1387" on="1"/>
        <pt x="443" y="1489" on="0"/>
        <pt x="460" y="1565" on="1"/>
        <pt x="420" y="1565" on="0"/>
        <pt x="373" y="1612" on="0"/>
        <pt x="373" y="1649" on="1"/>
        <pt x="371" y="1660" on="0"/>
      </contour>
    </TTGlyph>
    <TTGlyph name="Alphalenisgrave" xMin="196" yMin="0" xMax="1371" yMax="1780">
      <contour>
        <pt x="1041" y="1214" on="1"/>
        <pt x="711" y="621" on="1"/>
        <pt x="1126" y="621" on="1"/>
      </contour>
      <contour>
        <pt x="1134" y="485" on="1"/>
        <pt x="637" y="485" on="1"/>
        <pt x="372" y="0" on="1"/>
        <pt x="196" y="0" on="1"/>
        <pt x="1029" y="1456" on="1"/>
        <pt x="1156" y="1456" on="1"/>
        <pt x="1371" y="0" on="1"/>
        <pt x="1191" y="0" on="1"/>
      </contour>
      <contour>
        <pt x="644" y="1646" on="1"/>
        <pt x="626" y="1666" on="0"/>
        <pt x="626" y="1704" on="1"/>
        <pt x="632" y="1731" on="0"/>
        <pt x="653" y="1752" on="1"/>
        <pt x="682" y="1780" on="0"/>
        <pt x="744" y="1780" on="0"/>
        <pt x="762" y="1762" on="1"/>
        <pt x="989" y="1512" on="1"/>
        <pt x="999" y="1499" on="0"/>
        <pt x="999" y="1489" on="1"/>
        <pt x="999" y="1465" on="0"/>
        <pt x="980" y="1444" on="1"/>
        <pt x="955" y="1418" on="0"/>
        <pt x="912" y="1418" on="0"/>
        <pt x="902" y="1427" on="1"/>
      </contour>
      <contour>
        <pt x="375" y="1671" on="1"/>
        <pt x="384" y="1714" on="0"/>
        <pt x="461" y="1779" on="0"/>
        <pt x="544" y="1779" on="0"/>
        <pt x="593" y="1730" on="0"/>
        <pt x="593" y="1656" on="0"/>
        <pt x="543" y="1538" on="0"/>
        <pt x="499" y="1474" on="0"/>
        <pt x="472" y="1438" on="1"/>
        <pt x="427" y="1385" on="1"/>
        <pt x="400" y="1356" on="1"/>
        <pt x="351" y="1387" on="1"/>
        <pt x="444" y="1489" on="0"/>
        <pt x="461" y="1565" on="1"/>
        <pt x="421" y="1565" on="0"/>
        <pt x="374" y="1612" on="0"/>
        <pt x="374" y="1649" on="1"/>
        <pt x="372" y="1660" on="0"/>
      </contour>
    </TTGlyph>
    <TTGlyph name="Alphalenistilde" xMin="196" yMin="0" xMax="1371" yMax="1780">
      <contour>
        <pt x="1041" y="1214" on="1"/>
        <pt x="711" y="621" on="1"/>
        <pt x="1126" y="621" on="1"/>
      </contour>
      <contour>
        <pt x="1134" y="485" on="1"/>
        <pt x="637" y="485" on="1"/>
        <pt x="372" y="0" on="1"/>
        <pt x="196" y="0" on="1"/>
        <pt x="1029" y="1456" on="1"/>
        <pt x="1156" y="1456" on="1"/>
        <pt x="1371" y="0" on="1"/>
        <pt x="1191" y="0" on="1"/>
      </contour>
      <contour>
        <pt x="374" y="1671" on="1"/>
        <pt x="383" y="1714" on="0"/>
        <pt x="460" y="1779" on="0"/>
        <pt x="543" y="1779" on="0"/>
        <pt x="592" y="1730" on="0"/>
        <pt x="592" y="1656" on="0"/>
        <pt x="542" y="1538" on="0"/>
        <pt x="498" y="1474" on="0"/>
        <pt x="471" y="1438" on="1"/>
        <pt x="426" y="1385" on="1"/>
        <pt x="399" y="1356" on="1"/>
        <pt x="350" y="1387" on="1"/>
        <pt x="443" y="1489" on="0"/>
        <pt x="460" y="1565" on="1"/>
        <pt x="420" y="1565" on="0"/>
        <pt x="373" y="1612" on="0"/>
        <pt x="373" y="1649" on="1"/>
        <pt x="371" y="1660" on="0"/>
      </contour>
      <contour>
        <pt x="637" y="1684" on="1"/>
        <pt x="662" y="1701" on="0"/>
        <pt x="694" y="1724" on="1"/>
        <pt x="770" y="1780" on="0"/>
        <pt x="840" y="1780" on="1"/>
        <pt x="891" y="1780" on="0"/>
        <pt x="936" y="1726" on="1"/>
        <pt x="943" y="1718" on="0"/>
        <pt x="969" y="1689" on="0"/>
        <pt x="982" y="1673" on="1"/>
        <pt x="1020" y="1629" on="0"/>
        <pt x="1063" y="1629" on="1"/>
        <pt x="1134" y="1629" on="0"/>
        <pt x="1214" y="1682" on="1"/>
        <pt x="1246" y="1703" on="0"/>
        <pt x="1283" y="1727" on="1"/>
        <pt x="1252" y="1582" on="1"/>
        <pt x="1202" y="1550" on="0"/>
        <pt x="1176" y="1532" on="1"/>
        <pt x="1110" y="1483" on="0"/>
        <pt x="1060" y="1483" on="1"/>
        <pt x="982" y="1483" on="0"/>
        <pt x="933" y="1536" on="1"/>
        <pt x="931" y="1538" on="0"/>
        <pt x="901" y="1572" on="1"/>
        <pt x="847" y="1635" on="0"/>
        <pt x="809" y="1635" on="1"/>
        <pt x="741" y="1635" on="0"/>
        <pt x="671" y="1584" on="1"/>
        <pt x="652" y="1570" on="0"/>
        <pt x="606" y="1538" on="1"/>
      </contour>
    </TTGlyph>
    <TTGlyph name="Alphamacron" xMin="72" yMin="0" xMax="1359" yMax="1702">
      <contour>
        <pt x="917" y="1214" on="1"/>
        <pt x="587" y="621" on="1"/>
        <pt x="1002" y="621" on="1"/>
      </contour>
      <contour>
        <pt x="1010" y="485" on="1"/>
        <pt x="513" y="485" on="1"/>
        <pt x="248" y="0" on="1"/>
        <pt x="72" y="0" on="1"/>
        <pt x="905" y="1456" on="1"/>
        <pt x="1032" y="1456" on="1"/>
        <pt x="1247" y="0" on="1"/>
        <pt x="1067" y="0" on="1"/>
      </contour>
      <contour>
        <pt x="682" y="1702" on="1"/>
        <pt x="1359" y="1702" on="1"/>
        <pt x="1336" y="1596" on="1"/>
        <pt x="659" y="1596" on="1"/>
      </contour>
    </TTGlyph>
    <TTGlyph name="Alphatonos" xMin="72" yMin="0" xMax="1247" yMax="1776">
      <contour>
        <pt x="671" y="1399" on="1"/>
        <pt x="625" y="1406" on="0"/>
        <pt x="635" y="1452" on="1"/>
        <pt x="697" y="1708" on="1"/>
        <pt x="711" y="1749" on="0"/>
        <pt x="764" y="1776" on="0"/>
        <pt x="790" y="1776" on="0"/>
        <pt x="808" y="1774" on="1"/>
        <pt x="827" y="1772" on="0"/>
        <pt x="849" y="1721" on="0"/>
        <pt x="844" y="1700" on="0"/>
        <pt x="842" y="1694" on="0"/>
        <pt x="842" y="1692" on="1"/>
        <pt x="740" y="1441" on="1"/>
        <pt x="722" y="1399" on="0"/>
        <pt x="677" y="1399" on="1"/>
      </contour>
      <contour>
        <pt x="917" y="1214" on="1"/>
        <pt x="587" y="621" on="1"/>
        <pt x="1002" y="621" on="1"/>
      </contour>
      <contour>
        <pt x="1010" y="485" on="1"/>
        <pt x="513" y="485" on="1"/>
        <pt x="248" y="0" on="1"/>
        <pt x="72" y="0" on="1"/>
        <pt x="905" y="1456" on="1"/>
        <pt x="1032" y="1456" on="1"/>
        <pt x="1247" y="0" on="1"/>
        <pt x="1067" y="0" on="1"/>
      </contour>
    </TTGlyph>
    <TTGlyph name="Amacron" xMin="64" yMin="0" xMax="1353" yMax="1739">
      <contour>
        <pt x="676" y="1739" on="1"/>
        <pt x="1353" y="1739" on="1"/>
        <pt x="1330" y="1633" on="1"/>
        <pt x="653" y="1633" on="1"/>
      </contour>
      <contour>
        <pt x="909" y="1214" on="1"/>
        <pt x="579" y="621" on="1"/>
        <pt x="994" y="621" on="1"/>
      </contour>
      <contour>
        <pt x="1002" y="485" on="1"/>
        <pt x="505" y="485" on="1"/>
        <pt x="240" y="0" on="1"/>
        <pt x="64" y="0" on="1"/>
        <pt x="897" y="1456" on="1"/>
        <pt x="897" y="1456" on="0"/>
        <pt x="1024" y="1456" on="1"/>
        <pt x="1239" y="0" on="1"/>
        <pt x="1059" y="0" on="1"/>
      </contour>
    </TTGlyph>
    <TTGlyph name="Aogonek" xMin="64" yMin="-315" xMax="1239" yMax="1456">
      <contour>
        <pt x="909" y="1214" on="1"/>
        <pt x="579" y="621" on="1"/>
        <pt x="994" y="621" on="1"/>
      </contour>
      <contour>
        <pt x="1002" y="485" on="1"/>
        <pt x="505" y="485" on="1"/>
        <pt x="240" y="0" on="1"/>
        <pt x="64" y="0" on="1"/>
        <pt x="897" y="1456" on="1"/>
        <pt x="897" y="1456" on="0"/>
        <pt x="1024" y="1456" on="1"/>
        <pt x="1239" y="0" on="1"/>
        <pt x="1059" y="0" on="1"/>
      </contour>
      <contour>
        <pt x="1223" y="-190" on="1"/>
        <pt x="1153" y="-315" on="1"/>
        <pt x="1150" y="-313" on="0"/>
        <pt x="1145" y="-310" on="1"/>
        <pt x="1130" y="-299" on="0"/>
        <pt x="1106" y="-283" on="1"/>
        <pt x="1069" y="-258" on="0"/>
        <pt x="998" y="-186" on="0"/>
        <pt x="987" y="-144" on="0"/>
        <pt x="987" y="-130" on="1"/>
        <pt x="987" y="-98" on="0"/>
        <pt x="1034" y="13" on="0"/>
        <pt x="1111" y="74" on="1"/>
        <pt x="1228" y="18" on="1"/>
        <pt x="1165" y="-45" on="0"/>
        <pt x="1156" y="-71" on="1"/>
        <pt x="1142" y="-112" on="0"/>
        <pt x="1175" y="-145" on="1"/>
        <pt x="1198" y="-168" on="1"/>
        <pt x="1205" y="-173" on="0"/>
      </contour>
    </TTGlyph>
    <TTGlyph name="Aring" xMin="82" yMin="0" xMax="1306" yMax="1993">
      <contour>
        <pt x="927" y="1214" on="1"/>
        <pt x="597" y="621" on="1"/>
        <pt x="1012" y="621" on="1"/>
      </contour>
      <contour>
        <pt x="1020" y="485" on="1"/>
        <pt x="523" y="485" on="1"/>
        <pt x="258" y="0" on="1"/>
        <pt x="82" y="0" on="1"/>
        <pt x="915" y="1456" on="1"/>
        <pt x="915" y="1456" on="0"/>
        <pt x="1042" y="1456" on="1"/>
        <pt x="1257" y="0" on="1"/>
        <pt x="1077" y="0" on="1"/>
      </contour>
      <contour>
        <pt x="1187" y="1824" on="0"/>
        <pt x="1123" y="1889" on="0"/>
        <pt x="1011" y="1889" on="0"/>
        <pt x="890" y="1786" on="0"/>
        <pt x="890" y="1704" on="1"/>
        <pt x="890" y="1653" on="0"/>
        <pt x="955" y="1589" on="0"/>
        <pt x="1068" y="1589" on="0"/>
        <pt x="1118" y="1632" on="1"/>
        <pt x="1187" y="1692" on="0"/>
        <pt x="1187" y="1773" on="1"/>
      </contour>
      <contour>
        <pt x="776" y="1735" on="1"/>
        <pt x="798" y="1842" on="0"/>
        <pt x="984" y="1993" on="0"/>
        <pt x="1188" y="1993" on="0"/>
        <pt x="1306" y="1876" on="0"/>
        <pt x="1306" y="1785" on="1"/>
        <pt x="1306" y="1760" on="0"/>
        <pt x="1300" y="1735" on="1"/>
        <pt x="1277" y="1627" on="0"/>
        <pt x="1092" y="1476" on="0"/>
        <pt x="887" y="1476" on="0"/>
        <pt x="770" y="1594" on="0"/>
        <pt x="770" y="1685" on="1"/>
        <pt x="770" y="1710" on="0"/>
      </contour>
    </TTGlyph>
    <TTGlyph name="Atilde" xMin="82" yMin="0" xMax="1368" yMax="1866">
      <contour>
        <pt x="927" y="1214" on="1"/>
        <pt x="597" y="621" on="1"/>
        <pt x="1012" y="621" on="1"/>
      </contour>
      <contour>
        <pt x="1020" y="485" on="1"/>
        <pt x="523" y="485" on="1"/>
        <pt x="258" y="0" on="1"/>
        <pt x="82" y="0" on="1"/>
        <pt x="915" y="1456" on="1"/>
        <pt x="915" y="1456" on="0"/>
        <pt x="1042" y="1456" on="1"/>
        <pt x="1257" y="0" on="1"/>
        <pt x="1077" y="0" on="1"/>
      </contour>
      <contour>
        <pt x="722" y="1770" on="1"/>
        <pt x="727" y="1774" on="0"/>
        <pt x="772" y="1805" on="0"/>
        <pt x="792" y="1819" on="0"/>
        <pt x="836" y="1844" on="0"/>
        <pt x="851" y="1850" on="1"/>
        <pt x="891" y="1866" on="0"/>
        <pt x="953" y="1866" on="0"/>
        <pt x="1002" y="1835" on="0"/>
        <pt x="1041" y="1790" on="0"/>
        <pt x="1060" y="1768" on="1"/>
        <pt x="1107" y="1715" on="0"/>
        <pt x="1160" y="1715" on="1"/>
        <pt x="1221" y="1715" on="0"/>
        <pt x="1328" y="1786" on="1"/>
        <pt x="1358" y="1807" on="0"/>
        <pt x="1368" y="1813" on="1"/>
        <pt x="1338" y="1668" on="1"/>
        <pt x="1303" y="1642" on="0"/>
        <pt x="1260" y="1616" on="0"/>
        <pt x="1212" y="1587" on="0"/>
        <pt x="1199" y="1583" on="1"/>
        <pt x="1153" y="1569" on="0"/>
        <pt x="1097" y="1569" on="0"/>
        <pt x="1040" y="1600" on="0"/>
        <pt x="998" y="1645" on="0"/>
        <pt x="978" y="1668" on="1"/>
        <pt x="932" y="1721" on="0"/>
        <pt x="893" y="1721" on="1"/>
        <pt x="829" y="1721" on="0"/>
        <pt x="756" y="1670" on="1"/>
        <pt x="746" y="1663" on="0"/>
        <pt x="700" y="1630" on="0"/>
        <pt x="691" y="1624" on="1"/>
      </contour>
    </TTGlyph>
    <TTGlyph name="B" xMin="121" yMin="0" xMax="1248" yMax="1456">
      <contour>
        <pt x="429" y="705" on="1"/>
        <pt x="309" y="141" on="1"/>
        <pt x="628" y="141" on="1"/>
        <pt x="795" y="141" on="0"/>
        <pt x="996" y="310" on="0"/>
        <pt x="1021" y="430" on="1"/>
        <pt x="1028" y="465" on="0"/>
        <pt x="1028" y="488" on="1"/>
        <pt x="1028" y="494" on="1"/>
        <pt x="1029" y="588" on="0"/>
        <pt x="892" y="705" on="0"/>
        <pt x="748" y="705" on="1"/>
      </contour>
      <contour>
        <pt x="796" y="1315" on="1"/>
        <pt x="559" y="1317" on="1"/>
        <pt x="458" y="844" on="1"/>
        <pt x="695" y="844" on="1"/>
        <pt x="921" y="844" on="0"/>
        <pt x="1018" y="958" on="1"/>
        <pt x="1063" y="1011" on="0"/>
        <pt x="1085" y="1111" on="0"/>
        <pt x="1085" y="1165" on="0"/>
        <pt x="1060" y="1225" on="0"/>
        <pt x="1030" y="1254" on="1"/>
        <pt x="967" y="1315" on="0"/>
      </contour>
      <contour>
        <pt x="430" y="1456" on="1"/>
        <pt x="825" y="1456" on="1"/>
        <pt x="1093" y="1456" on="0"/>
        <pt x="1194" y="1324" on="1"/>
        <pt x="1248" y="1253" on="0"/>
        <pt x="1248" y="1156" on="1"/>
        <pt x="1239" y="984" on="0"/>
        <pt x="1112" y="872" on="1"/>
        <pt x="1009" y="782" on="0"/>
        <pt x="922" y="782" on="1"/>
        <pt x="1117" y="782" on="0"/>
        <pt x="1169" y="594" on="1"/>
        <pt x="1182" y="547" on="0"/>
        <pt x="1182" y="461" on="0"/>
        <pt x="1164" y="374" on="0"/>
        <pt x="1128" y="279" on="0"/>
        <pt x="1041" y="154" on="0"/>
        <pt x="922" y="64" on="0"/>
        <pt x="722" y="0" on="0"/>
        <pt x="598" y="0" on="1"/>
        <pt x="121" y="0" on="1"/>
      </contour>
    </TTGlyph>
    <TTGlyph name="Bdotaccent" xMin="121" yMin="0" xMax="1248" yMax="1777">
      <contour>
        <pt x="429" y="705" on="1"/>
        <pt x="309" y="141" on="1"/>
        <pt x="628" y="141" on="1"/>
        <pt x="795" y="141" on="0"/>
        <pt x="996" y="310" on="0"/>
        <pt x="1021" y="430" on="1"/>
        <pt x="1028" y="465" on="0"/>
        <pt x="1028" y="488" on="1"/>
        <pt x="1028" y="494" on="1"/>
        <pt x="1029" y="588" on="0"/>
        <pt x="892" y="705" on="0"/>
        <pt x="748" y="705" on="1"/>
      </contour>
      <contour>
        <pt x="796" y="1315" on="1"/>
        <pt x="559" y="1317" on="1"/>
        <pt x="458" y="844" on="1"/>
        <pt x="695" y="844" on="1"/>
        <pt x="921" y="844" on="0"/>
        <pt x="1018" y="958" on="1"/>
        <pt x="1063" y="1011" on="0"/>
        <pt x="1085" y="1111" on="0"/>
        <pt x="1085" y="1165" on="0"/>
        <pt x="1060" y="1225" on="0"/>
        <pt x="1030" y="1254" on="1"/>
        <pt x="967" y="1315" on="0"/>
      </contour>
      <contour>
        <pt x="430" y="1456" on="1"/>
        <pt x="825" y="1456" on="1"/>
        <pt x="1093" y="1456" on="0"/>
        <pt x="1194" y="1324" on="1"/>
        <pt x="1248" y="1253" on="0"/>
        <pt x="1248" y="1156" on="1"/>
        <pt x="1239" y="984" on="0"/>
        <pt x="1112" y="872" on="1"/>
        <pt x="1009" y="782" on="0"/>
        <pt x="922" y="782" on="1"/>
        <pt x="1117" y="782" on="0"/>
        <pt x="1169" y="594" on="1"/>
        <pt x="1182" y="547" on="0"/>
        <pt x="1182" y="461" on="0"/>
        <pt x="1164" y="374" on="0"/>
        <pt x="1128" y="279" on="0"/>
        <pt x="1041" y="154" on="0"/>
        <pt x="922" y="64" on="0"/>
        <pt x="722" y="0" on="0"/>
        <pt x="598" y="0" on="1"/>
        <pt x="121" y="0" on="1"/>
      </contour>
      <contour>
        <pt x="970" y="1644" on="0"/>
        <pt x="902" y="1588" on="0"/>
        <pt x="832" y="1588" on="0"/>
        <pt x="789" y="1631" on="0"/>
        <pt x="789" y="1713" on="0"/>
        <pt x="867" y="1777" on="0"/>
        <pt x="938" y="1777" on="0"/>
        <pt x="958" y="1756" on="1"/>
        <pt x="990" y="1725" on="0"/>
      </contour>
    </TTGlyph>
    <TTGlyph name="Beta" xMin="121" yMin="0" xMax="1248" yMax="1456">
      <contour>
        <pt x="429" y="705" on="1"/>
        <pt x="309" y="141" on="1"/>
        <pt x="628" y="141" on="1"/>
        <pt x="763" y="141" on="0"/>
        <pt x="861" y="202" on="1"/>
        <pt x="990" y="283" on="0"/>
        <pt x="1021" y="430" on="1"/>
        <pt x="1028" y="465" on="0"/>
        <pt x="1028" y="486" on="1"/>
        <pt x="1028" y="494" on="1"/>
        <pt x="1028" y="588" on="0"/>
        <pt x="890" y="705" on="0"/>
        <pt x="748" y="705" on="1"/>
      </contour>
      <contour>
        <pt x="796" y="1315" on="1"/>
        <pt x="559" y="1317" on="1"/>
        <pt x="458" y="844" on="1"/>
        <pt x="695" y="844" on="1"/>
        <pt x="921" y="844" on="0"/>
        <pt x="1020" y="958" on="1"/>
        <pt x="1085" y="1034" on="0"/>
        <pt x="1085" y="1130" on="1"/>
        <pt x="1085" y="1315" on="0"/>
      </contour>
      <contour>
        <pt x="430" y="1456" on="1"/>
        <pt x="825" y="1456" on="1"/>
        <pt x="1147" y="1456" on="0"/>
        <pt x="1227" y="1264" on="1"/>
        <pt x="1248" y="1214" on="0"/>
        <pt x="1248" y="1167" on="1"/>
        <pt x="1248" y="992" on="0"/>
        <pt x="1111" y="872" on="1"/>
        <pt x="1008" y="782" on="0"/>
        <pt x="922" y="782" on="1"/>
        <pt x="1120" y="782" on="0"/>
        <pt x="1170" y="594" on="1"/>
        <pt x="1182" y="549" on="0"/>
        <pt x="1182" y="504" on="1"/>
        <pt x="1182" y="421" on="0"/>
        <pt x="1163" y="371" on="1"/>
        <pt x="1121" y="262" on="0"/>
        <pt x="1085" y="214" on="1"/>
        <pt x="924" y="0" on="0"/>
        <pt x="598" y="0" on="1"/>
        <pt x="121" y="0" on="1"/>
      </contour>
    </TTGlyph>
    <TTGlyph name="C" xMin="229" yMin="-29" xMax="1407" yMax="1495">
      <contour>
        <pt x="1229" y="293" on="1"/>
        <pt x="1152" y="164" on="0"/>
        <pt x="1026" y="72" on="1"/>
        <pt x="887" y="-29" on="0"/>
        <pt x="694" y="-29" on="1"/>
        <pt x="454" y="-29" on="0"/>
        <pt x="338" y="125" on="1"/>
        <pt x="229" y="270" on="0"/>
        <pt x="229" y="497" on="1"/>
        <pt x="229" y="725" on="0"/>
        <pt x="326" y="954" on="1"/>
        <pt x="423" y="1187" on="0"/>
        <pt x="597" y="1336" on="1"/>
        <pt x="782" y="1495" on="0"/>
        <pt x="1020" y="1495" on="1"/>
        <pt x="1235" y="1495" on="0"/>
        <pt x="1338" y="1358" on="1"/>
        <pt x="1394" y="1284" on="0"/>
        <pt x="1407" y="1194" on="1"/>
        <pt x="1249" y="1153" on="1"/>
        <pt x="1239" y="1244" on="0"/>
        <pt x="1094" y="1354" on="0"/>
        <pt x="990" y="1354" on="1"/>
        <pt x="988" y="1354" on="1"/>
        <pt x="884" y="1354" on="0"/>
        <pt x="692" y="1246" on="0"/>
        <pt x="620" y="1156" on="1"/>
        <pt x="472" y="970" on="0"/>
        <pt x="420" y="725" on="1"/>
        <pt x="399" y="628" on="0"/>
        <pt x="399" y="414" on="0"/>
        <pt x="469" y="226" on="0"/>
        <pt x="619" y="111" on="0"/>
        <pt x="830" y="111" on="0"/>
        <pt x="1040" y="242" on="0"/>
        <pt x="1091" y="334" on="1"/>
      </contour>
    </TTGlyph>
    <TTGlyph name="Cacute" xMin="229" yMin="-29" xMax="1407" yMax="1944">
      <contour>
        <pt x="1229" y="293" on="1"/>
        <pt x="1152" y="164" on="0"/>
        <pt x="1026" y="72" on="1"/>
        <pt x="887" y="-29" on="0"/>
        <pt x="694" y="-29" on="1"/>
        <pt x="454" y="-29" on="0"/>
        <pt x="338" y="125" on="1"/>
        <pt x="229" y="270" on="0"/>
        <pt x="229" y="497" on="1"/>
        <pt x="229" y="725" on="0"/>
        <pt x="326" y="954" on="1"/>
        <pt x="423" y="1187" on="0"/>
        <pt x="597" y="1336" on="1"/>
        <pt x="782" y="1495" on="0"/>
        <pt x="1020" y="1495" on="1"/>
        <pt x="1235" y="1495" on="0"/>
        <pt x="1338" y="1358" on="1"/>
        <pt x="1394" y="1284" on="0"/>
        <pt x="1407" y="1194" on="1"/>
        <pt x="1249" y="1153" on="1"/>
        <pt x="1239" y="1244" on="0"/>
        <pt x="1094" y="1354" on="0"/>
        <pt x="990" y="1354" on="1"/>
        <pt x="988" y="1354" on="1"/>
        <pt x="884" y="1354" on="0"/>
        <pt x="692" y="1246" on="0"/>
        <pt x="620" y="1156" on="1"/>
        <pt x="472" y="970" on="0"/>
        <pt x="420" y="725" on="1"/>
        <pt x="399" y="628" on="0"/>
        <pt x="399" y="414" on="0"/>
        <pt x="469" y="226" on="0"/>
        <pt x="619" y="111" on="0"/>
        <pt x="830" y="111" on="0"/>
        <pt x="1040" y="242" on="0"/>
        <pt x="1091" y="334" on="1"/>
      </contour>
      <contour>
        <pt x="983" y="1591" on="1"/>
        <pt x="969" y="1582" on="0"/>
        <pt x="927" y="1582" on="0"/>
        <pt x="907" y="1618" on="0"/>
        <pt x="907" y="1653" on="0"/>
        <pt x="932" y="1676" on="1"/>
        <pt x="1266" y="1926" on="1"/>
        <pt x="1292" y="1944" on="0"/>
        <pt x="1311" y="1944" on="1"/>
        <pt x="1355" y="1944" on="0"/>
        <pt x="1370" y="1914" on="1"/>
        <pt x="1379" y="1900" on="0"/>
        <pt x="1379" y="1878" on="0"/>
        <pt x="1377" y="1865" on="0"/>
        <pt x="1376" y="1862" on="1"/>
        <pt x="1373" y="1856" on="0"/>
        <pt x="1359" y="1827" on="0"/>
        <pt x="1335" y="1810" on="1"/>
      </contour>
    </TTGlyph>
    <TTGlyph name="Ccaron" xMin="229" yMin="-29" xMax="1443" yMax="1858">
      <contour>
        <pt x="1229" y="293" on="1"/>
        <pt x="1152" y="164" on="0"/>
        <pt x="1026" y="72" on="1"/>
        <pt x="887" y="-29" on="0"/>
        <pt x="694" y="-29" on="1"/>
        <pt x="454" y="-29" on="0"/>
        <pt x="338" y="125" on="1"/>
        <pt x="229" y="270" on="0"/>
        <pt x="229" y="497" on="1"/>
        <pt x="229" y="725" on="0"/>
        <pt x="326" y="954" on="1"/>
        <pt x="423" y="1187" on="0"/>
        <pt x="597" y="1336" on="1"/>
        <pt x="782" y="1495" on="0"/>
        <pt x="1020" y="1495" on="1"/>
        <pt x="1235" y="1495" on="0"/>
        <pt x="1338" y="1358" on="1"/>
        <pt x="1394" y="1284" on="0"/>
        <pt x="1407" y="1194" on="1"/>
        <pt x="1249" y="1153" on="1"/>
        <pt x="1239" y="1244" on="0"/>
        <pt x="1094" y="1354" on="0"/>
        <pt x="990" y="1354" on="1"/>
        <pt x="988" y="1354" on="1"/>
        <pt x="884" y="1354" on="0"/>
        <pt x="692" y="1246" on="0"/>
        <pt x="620" y="1156" on="1"/>
        <pt x="472" y="970" on="0"/>
        <pt x="420" y="725" on="1"/>
        <pt x="399" y="628" on="0"/>
        <pt x="399" y="414" on="0"/>
        <pt x="469" y="226" on="0"/>
        <pt x="619" y="111" on="0"/>
        <pt x="830" y="111" on="0"/>
        <pt x="1040" y="242" on="0"/>
        <pt x="1091" y="334" on="1"/>
      </contour>
      <contour>
        <pt x="1443" y="1858" on="1"/>
        <pt x="1090" y="1514" on="1"/>
        <pt x="959" y="1514" on="1"/>
        <pt x="755" y="1856" on="1"/>
        <pt x="941" y="1856" on="1"/>
        <pt x="1054" y="1645" on="1"/>
        <pt x="1255" y="1858" on="1"/>
      </contour>
    </TTGlyph>
    <TTGlyph name="Ccedilla" xMin="249" yMin="-424" xMax="1427" yMax="1495">
      <contour>
        <pt x="1249" y="293" on="1"/>
        <pt x="1172" y="164" on="0"/>
        <pt x="1046" y="72" on="1"/>
        <pt x="907" y="-29" on="0"/>
        <pt x="714" y="-29" on="1"/>
        <pt x="474" y="-29" on="0"/>
        <pt x="358" y="125" on="1"/>
        <pt x="249" y="270" on="0"/>
        <pt x="249" y="497" on="1"/>
        <pt x="249" y="725" on="0"/>
        <pt x="346" y="954" on="1"/>
        <pt x="443" y="1187" on="0"/>
        <pt x="617" y="1336" on="1"/>
        <pt x="802" y="1495" on="0"/>
        <pt x="1040" y="1495" on="1"/>
        <pt x="1255" y="1495" on="0"/>
        <pt x="1358" y="1358" on="1"/>
        <pt x="1414" y="1284" on="0"/>
        <pt x="1427" y="1194" on="1"/>
        <pt x="1269" y="1153" on="1"/>
        <pt x="1259" y="1244" on="0"/>
        <pt x="1114" y="1354" on="0"/>
        <pt x="1010" y="1354" on="1"/>
        <pt x="1008" y="1354" on="1"/>
        <pt x="904" y="1354" on="0"/>
        <pt x="712" y="1246" on="0"/>
        <pt x="640" y="1156" on="1"/>
        <pt x="492" y="970" on="0"/>
        <pt x="440" y="725" on="1"/>
        <pt x="419" y="628" on="0"/>
        <pt x="419" y="414" on="0"/>
        <pt x="489" y="226" on="0"/>
        <pt x="639" y="111" on="0"/>
        <pt x="850" y="111" on="0"/>
        <pt x="1060" y="242" on="0"/>
        <pt x="1111" y="334" on="1"/>
      </contour>
      <contour>
        <pt x="510" y="-299" on="1"/>
        <pt x="618" y="-233" on="0"/>
        <pt x="627" y="-195" on="1"/>
        <pt x="628" y="-190" on="0"/>
        <pt x="628" y="-170" on="0"/>
        <pt x="622" y="-148" on="0"/>
        <pt x="615" y="-133" on="0"/>
        <pt x="598" y="-100" on="0"/>
        <pt x="594" y="-91" on="1"/>
        <pt x="735" y="-35" on="1"/>
        <pt x="785" y="-95" on="0"/>
        <pt x="786" y="-169" on="1"/>
        <pt x="783" y="-201" on="0"/>
        <pt x="775" y="-239" on="0"/>
        <pt x="736" y="-295" on="0"/>
        <pt x="670" y="-344" on="0"/>
        <pt x="622" y="-374" on="0"/>
        <pt x="538" y="-418" on="0"/>
        <pt x="527" y="-424" on="1"/>
      </contour>
    </TTGlyph>
    <TTGlyph name="Ccircumflex" xMin="229" yMin="-29" xMax="1407" yMax="1858">
      <contour>
        <pt x="1229" y="293" on="1"/>
        <pt x="1152" y="164" on="0"/>
        <pt x="1026" y="72" on="1"/>
        <pt x="887" y="-29" on="0"/>
        <pt x="694" y="-29" on="1"/>
        <pt x="454" y="-29" on="0"/>
        <pt x="338" y="125" on="1"/>
        <pt x="229" y="270" on="0"/>
        <pt x="229" y="497" on="1"/>
        <pt x="229" y="725" on="0"/>
        <pt x="326" y="954" on="1"/>
        <pt x="423" y="1187" on="0"/>
        <pt x="597" y="1336" on="1"/>
        <pt x="782" y="1495" on="0"/>
        <pt x="1020" y="1495" on="1"/>
        <pt x="1235" y="1495" on="0"/>
        <pt x="1338" y="1358" on="1"/>
        <pt x="1394" y="1284" on="0"/>
        <pt x="1407" y="1194" on="1"/>
        <pt x="1249" y="1153" on="1"/>
        <pt x="1239" y="1244" on="0"/>
        <pt x="1094" y="1354" on="0"/>
        <pt x="990" y="1354" on="1"/>
        <pt x="988" y="1354" on="1"/>
        <pt x="884" y="1354" on="0"/>
        <pt x="692" y="1246" on="0"/>
        <pt x="620" y="1156" on="1"/>
        <pt x="472" y="970" on="0"/>
        <pt x="420" y="725" on="1"/>
        <pt x="399" y="628" on="0"/>
        <pt x="399" y="414" on="0"/>
        <pt x="469" y="226" on="0"/>
        <pt x="619" y="111" on="0"/>
        <pt x="830" y="111" on="0"/>
        <pt x="1040" y="242" on="0"/>
        <pt x="1091" y="334" on="1"/>
      </contour>
      <contour>
        <pt x="1368" y="1514" on="1"/>
        <pt x="1180" y="1514" on="1"/>
        <pt x="1069" y="1727" on="1"/>
        <pt x="866" y="1516" on="1"/>
        <pt x="680" y="1516" on="1"/>
        <pt x="1030" y="1858" on="1"/>
        <pt x="1161" y="1858" on="1"/>
      </contour>
    </TTGlyph>
    <TTGlyph name="Cdotaccent" xMin="229" yMin="-29" xMax="1407" yMax="1777">
      <contour>
        <pt x="1229" y="293" on="1"/>
        <pt x="1152" y="164" on="0"/>
        <pt x="1026" y="72" on="1"/>
        <pt x="887" y="-29" on="0"/>
        <pt x="694" y="-29" on="1"/>
        <pt x="454" y="-29" on="0"/>
        <pt x="338" y="125" on="1"/>
        <pt x="229" y="270" on="0"/>
        <pt x="229" y="497" on="1"/>
        <pt x="229" y="725" on="0"/>
        <pt x="326" y="954" on="1"/>
        <pt x="423" y="1187" on="0"/>
        <pt x="597" y="1336" on="1"/>
        <pt x="782" y="1495" on="0"/>
        <pt x="1020" y="1495" on="1"/>
        <pt x="1235" y="1495" on="0"/>
        <pt x="1338" y="1358" on="1"/>
        <pt x="1394" y="1284" on="0"/>
        <pt x="1407" y="1194" on="1"/>
        <pt x="1249" y="1153" on="1"/>
        <pt x="1239" y="1244" on="0"/>
        <pt x="1094" y="1354" on="0"/>
        <pt x="990" y="1354" on="1"/>
        <pt x="988" y="1354" on="1"/>
        <pt x="884" y="1354" on="0"/>
        <pt x="692" y="1246" on="0"/>
        <pt x="620" y="1156" on="1"/>
        <pt x="472" y="970" on="0"/>
        <pt x="420" y="725" on="1"/>
        <pt x="399" y="628" on="0"/>
        <pt x="399" y="414" on="0"/>
        <pt x="469" y="226" on="0"/>
        <pt x="619" y="111" on="0"/>
        <pt x="830" y="111" on="0"/>
        <pt x="1040" y="242" on="0"/>
        <pt x="1091" y="334" on="1"/>
      </contour>
      <contour>
        <pt x="1081" y="1644" on="0"/>
        <pt x="1013" y="1588" on="0"/>
        <pt x="943" y="1588" on="0"/>
        <pt x="900" y="1631" on="0"/>
        <pt x="900" y="1713" on="0"/>
        <pt x="978" y="1777" on="0"/>
        <pt x="1049" y="1777" on="0"/>
        <pt x="1070" y="1756" on="1"/>
        <pt x="1101" y="1725" on="0"/>
      </contour>
    </TTGlyph>
    <TTGlyph name="Cheabkhasiancyrillic" xMin="228" yMin="-29" xMax="1407" yMax="1495">
      <contour>
        <pt x="1229" y="293" on="1"/>
        <pt x="1155" y="165" on="0"/>
        <pt x="1026" y="72" on="1"/>
        <pt x="888" y="-29" on="0"/>
        <pt x="694" y="-29" on="1"/>
        <pt x="577" y="-29" on="0"/>
        <pt x="484" y="12" on="1"/>
        <pt x="313" y="88" on="0"/>
        <pt x="256" y="292" on="1"/>
        <pt x="228" y="388" on="0"/>
        <pt x="228" y="493" on="1"/>
        <pt x="228" y="498" on="1"/>
        <pt x="232" y="730" on="0"/>
        <pt x="326" y="954" on="1"/>
        <pt x="423" y="1187" on="0"/>
        <pt x="597" y="1336" on="1"/>
        <pt x="680" y="1408" on="0"/>
        <pt x="900" y="1495" on="0"/>
        <pt x="997" y="1495" on="1"/>
        <pt x="1236" y="1495" on="0"/>
        <pt x="1339" y="1358" on="1"/>
        <pt x="1395" y="1282" on="0"/>
        <pt x="1407" y="1194" on="1"/>
        <pt x="1249" y="1153" on="1"/>
        <pt x="1240" y="1242" on="0"/>
        <pt x="1095" y="1354" on="0"/>
        <pt x="990" y="1354" on="1"/>
        <pt x="988" y="1354" on="1"/>
        <pt x="884" y="1354" on="0"/>
        <pt x="788" y="1300" on="1"/>
        <pt x="614" y="1202" on="0"/>
        <pt x="497" y="955" on="1"/>
        <pt x="400" y="747" on="0"/>
        <pt x="400" y="539" on="1"/>
        <pt x="400" y="269" on="0"/>
        <pt x="552" y="162" on="1"/>
        <pt x="624" y="111" on="0"/>
        <pt x="831" y="111" on="0"/>
        <pt x="1040" y="243" on="0"/>
        <pt x="1091" y="334" on="1"/>
      </contour>
    </TTGlyph>
    <TTGlyph name="Chedescenderabkhasiancyrillic" xMin="228" yMin="-29" xMax="1407" yMax="1495">
      <contour>
        <pt x="1229" y="293" on="1"/>
        <pt x="1155" y="165" on="0"/>
        <pt x="1026" y="72" on="1"/>
        <pt x="888" y="-29" on="0"/>
        <pt x="694" y="-29" on="1"/>
        <pt x="577" y="-29" on="0"/>
        <pt x="484" y="12" on="1"/>
        <pt x="313" y="88" on="0"/>
        <pt x="256" y="292" on="1"/>
        <pt x="228" y="388" on="0"/>
        <pt x="228" y="493" on="1"/>
        <pt x="228" y="498" on="1"/>
        <pt x="232" y="730" on="0"/>
        <pt x="326" y="954" on="1"/>
        <pt x="423" y="1187" on="0"/>
        <pt x="597" y="1336" on="1"/>
        <pt x="680" y="1408" on="0"/>
        <pt x="900" y="1495" on="0"/>
        <pt x="997" y="1495" on="1"/>
        <pt x="1236" y="1495" on="0"/>
        <pt x="1339" y="1358" on="1"/>
        <pt x="1395" y="1282" on="0"/>
        <pt x="1407" y="1194" on="1"/>
        <pt x="1249" y="1153" on="1"/>
        <pt x="1240" y="1242" on="0"/>
        <pt x="1095" y="1354" on="0"/>
        <pt x="990" y="1354" on="1"/>
        <pt x="988" y="1354" on="1"/>
        <pt x="884" y="1354" on="0"/>
        <pt x="788" y="1300" on="1"/>
        <pt x="614" y="1202" on="0"/>
        <pt x="497" y="955" on="1"/>
        <pt x="400" y="747" on="0"/>
        <pt x="400" y="539" on="1"/>
        <pt x="400" y="269" on="0"/>
        <pt x="552" y="162" on="1"/>
        <pt x="624" y="111" on="0"/>
        <pt x="831" y="111" on="0"/>
        <pt x="1040" y="243" on="0"/>
        <pt x="1091" y="334" on="1"/>
      </contour>
    </TTGlyph>
    <TTGlyph name="Chedescendercyrillic" xMin="312" yMin="0" xMax="1235" yMax="1456">
      <contour>
        <pt x="469" y="957" on="1"/>
        <pt x="469" y="707" on="0"/>
        <pt x="658" y="707" on="1"/>
        <pt x="793" y="707" on="0"/>
        <pt x="888" y="834" on="1"/>
        <pt x="975" y="949" on="0"/>
        <pt x="1015" y="1132" on="1"/>
        <pt x="1083" y="1456" on="1"/>
        <pt x="1235" y="1456" on="1"/>
        <pt x="926" y="0" on="1"/>
        <pt x="774" y="0" on="1"/>
        <pt x="940" y="780" on="1"/>
        <pt x="890" y="689" on="0"/>
        <pt x="704" y="570" on="0"/>
        <pt x="605" y="570" on="1"/>
        <pt x="325" y="570" on="0"/>
        <pt x="313" y="878" on="1"/>
        <pt x="312" y="905" on="1"/>
        <pt x="312" y="1010" on="0"/>
        <pt x="338" y="1131" on="1"/>
        <pt x="407" y="1456" on="1"/>
        <pt x="558" y="1456" on="1"/>
        <pt x="489" y="1131" on="1"/>
        <pt x="471" y="1046" on="0"/>
        <pt x="469" y="966" on="1"/>
      </contour>
    </TTGlyph>
    <TTGlyph name="Chedieresiscyrillic" xMin="312" yMin="0" xMax="1235" yMax="1779">
      <contour>
        <pt x="469" y="957" on="1"/>
        <pt x="469" y="707" on="0"/>
        <pt x="658" y="707" on="1"/>
        <pt x="793" y="707" on="0"/>
        <pt x="888" y="834" on="1"/>
        <pt x="975" y="949" on="0"/>
        <pt x="1015" y="1132" on="1"/>
        <pt x="1083" y="1456" on="1"/>
        <pt x="1235" y="1456" on="1"/>
        <pt x="926" y="0" on="1"/>
        <pt x="774" y="0" on="1"/>
        <pt x="940" y="780" on="1"/>
        <pt x="890" y="689" on="0"/>
        <pt x="704" y="570" on="0"/>
        <pt x="605" y="570" on="1"/>
        <pt x="325" y="570" on="0"/>
        <pt x="313" y="878" on="1"/>
        <pt x="312" y="905" on="1"/>
        <pt x="312" y="1010" on="0"/>
        <pt x="338" y="1131" on="1"/>
        <pt x="407" y="1456" on="1"/>
        <pt x="558" y="1456" on="1"/>
        <pt x="489" y="1131" on="1"/>
        <pt x="471" y="1046" on="0"/>
        <pt x="469" y="966" on="1"/>
      </contour>
      <contour>
        <pt x="717" y="1644" on="0"/>
        <pt x="649" y="1588" on="0"/>
        <pt x="579" y="1588" on="0"/>
        <pt x="536" y="1631" on="0"/>
        <pt x="536" y="1713" on="0"/>
        <pt x="614" y="1777" on="0"/>
        <pt x="685" y="1777" on="0"/>
        <pt x="706" y="1756" on="1"/>
        <pt x="737" y="1725" on="0"/>
      </contour>
      <contour>
        <pt x="1051" y="1590" on="0"/>
        <pt x="1007" y="1634" on="0"/>
        <pt x="1007" y="1656" on="1"/>
        <pt x="1007" y="1715" on="0"/>
        <pt x="1085" y="1779" on="0"/>
        <pt x="1121" y="1779" on="1"/>
        <pt x="1195" y="1779" on="0"/>
        <pt x="1199" y="1704" on="1"/>
        <pt x="1199" y="1654" on="0"/>
        <pt x="1121" y="1590" on="0"/>
      </contour>
    </TTGlyph>
    <TTGlyph name="Chekhakassiancyrillic" xMin="312" yMin="0" xMax="1235" yMax="1456">
      <contour>
        <pt x="469" y="957" on="1"/>
        <pt x="469" y="707" on="0"/>
        <pt x="658" y="707" on="1"/>
        <pt x="793" y="707" on="0"/>
        <pt x="888" y="834" on="1"/>
        <pt x="975" y="949" on="0"/>
        <pt x="1015" y="1132" on="1"/>
        <pt x="1083" y="1456" on="1"/>
        <pt x="1235" y="1456" on="1"/>
        <pt x="926" y="0" on="1"/>
        <pt x="774" y="0" on="1"/>
        <pt x="940" y="780" on="1"/>
        <pt x="890" y="689" on="0"/>
        <pt x="704" y="570" on="0"/>
        <pt x="605" y="570" on="1"/>
        <pt x="325" y="570" on="0"/>
        <pt x="313" y="878" on="1"/>
        <pt x="312" y="905" on="1"/>
        <pt x="312" y="1010" on="0"/>
        <pt x="338" y="1131" on="1"/>
        <pt x="407" y="1456" on="1"/>
        <pt x="558" y="1456" on="1"/>
        <pt x="489" y="1131" on="1"/>
        <pt x="471" y="1046" on="0"/>
        <pt x="469" y="966" on="1"/>
      </contour>
    </TTGlyph>
    <TTGlyph name="Cheverticalstrokecyrillic" xMin="312" yMin="0" xMax="1235" yMax="1456">
      <contour>
        <pt x="469" y="957" on="1"/>
        <pt x="469" y="707" on="0"/>
        <pt x="658" y="707" on="1"/>
        <pt x="793" y="707" on="0"/>
        <pt x="888" y="834" on="1"/>
        <pt x="975" y="949" on="0"/>
        <pt x="1015" y="1132" on="1"/>
        <pt x="1083" y="1456" on="1"/>
        <pt x="1235" y="1456" on="1"/>
        <pt x="926" y="0" on="1"/>
        <pt x="774" y="0" on="1"/>
        <pt x="940" y="780" on="1"/>
        <pt x="890" y="689" on="0"/>
        <pt x="704" y="570" on="0"/>
        <pt x="605" y="570" on="1"/>
        <pt x="325" y="570" on="0"/>
        <pt x="313" y="878" on="1"/>
        <pt x="312" y="905" on="1"/>
        <pt x="312" y="1010" on="0"/>
        <pt x="338" y="1131" on="1"/>
        <pt x="407" y="1456" on="1"/>
        <pt x="558" y="1456" on="1"/>
        <pt x="489" y="1131" on="1"/>
        <pt x="471" y="1046" on="0"/>
        <pt x="469" y="966" on="1"/>
      </contour>
    </TTGlyph>
    <TTGlyph name="Chi" xMin="80" yMin="0" xMax="1464" yMax="1456">
      <contour>
        <pt x="383" y="1456" on="1"/>
        <pt x="565" y="1456" on="1"/>
        <pt x="799" y="850" on="1"/>
        <pt x="1282" y="1456" on="1"/>
        <pt x="1464" y="1456" on="1"/>
        <pt x="857" y="729" on="1"/>
        <pt x="1161" y="0" on="1"/>
        <pt x="971" y="0" on="1"/>
        <pt x="743" y="586" on="1"/>
        <pt x="258" y="0" on="1"/>
        <pt x="80" y="0" on="1"/>
        <pt x="690" y="729" on="1"/>
      </contour>
    </TTGlyph>
    <TTGlyph name="D" xMin="121" yMin="0" xMax="1330" yMax="1456">
      <contour>
        <pt x="1067" y="488" on="1"/>
        <pt x="1161" y="700" on="0"/>
        <pt x="1161" y="905" on="1"/>
        <pt x="1161" y="1213" on="0"/>
        <pt x="946" y="1292" on="1"/>
        <pt x="883" y="1315" on="0"/>
        <pt x="804" y="1315" on="1"/>
        <pt x="559" y="1315" on="1"/>
        <pt x="309" y="141" on="1"/>
        <pt x="554" y="141" on="1"/>
        <pt x="809" y="141" on="0"/>
        <pt x="952" y="305" on="1"/>
        <pt x="1021" y="385" on="0"/>
      </contour>
      <contour>
        <pt x="1308" y="727" on="1"/>
        <pt x="1264" y="521" on="0"/>
        <pt x="1060" y="195" on="0"/>
        <pt x="748" y="0" on="0"/>
        <pt x="565" y="0" on="1"/>
        <pt x="121" y="0" on="1"/>
        <pt x="430" y="1456" on="1"/>
        <pt x="874" y="1456" on="1"/>
        <pt x="1101" y="1456" on="0"/>
        <pt x="1218" y="1302" on="1"/>
        <pt x="1330" y="1154" on="0"/>
        <pt x="1330" y="929" on="1"/>
        <pt x="1330" y="828" on="0"/>
      </contour>
    </TTGlyph>
    <TTGlyph name="Dcaron" xMin="121" yMin="0" xMax="1330" yMax="1858">
      <contour>
        <pt x="1067" y="488" on="1"/>
        <pt x="1161" y="700" on="0"/>
        <pt x="1161" y="905" on="1"/>
        <pt x="1161" y="1213" on="0"/>
        <pt x="946" y="1292" on="1"/>
        <pt x="883" y="1315" on="0"/>
        <pt x="804" y="1315" on="1"/>
        <pt x="559" y="1315" on="1"/>
        <pt x="309" y="141" on="1"/>
        <pt x="554" y="141" on="1"/>
        <pt x="809" y="141" on="0"/>
        <pt x="952" y="305" on="1"/>
        <pt x="1021" y="385" on="0"/>
      </contour>
      <contour>
        <pt x="1308" y="727" on="1"/>
        <pt x="1264" y="521" on="0"/>
        <pt x="1060" y="195" on="0"/>
        <pt x="748" y="0" on="0"/>
        <pt x="565" y="0" on="1"/>
        <pt x="121" y="0" on="1"/>
        <pt x="430" y="1456" on="1"/>
        <pt x="874" y="1456" on="1"/>
        <pt x="1101" y="1456" on="0"/>
        <pt x="1218" y="1302" on="1"/>
        <pt x="1330" y="1154" on="0"/>
        <pt x="1330" y="929" on="1"/>
        <pt x="1330" y="828" on="0"/>
      </contour>
      <contour>
        <pt x="1267" y="1858" on="1"/>
        <pt x="914" y="1514" on="1"/>
        <pt x="783" y="1514" on="1"/>
        <pt x="579" y="1856" on="1"/>
        <pt x="765" y="1856" on="1"/>
        <pt x="878" y="1645" on="1"/>
        <pt x="1079" y="1858" on="1"/>
      </contour>
    </TTGlyph>
    <TTGlyph name="Dcroat" xMin="247" yMin="0" xMax="1449" yMax="1456">
      <contour>
        <pt x="429" y="662" on="1"/>
        <pt x="247" y="662" on="1"/>
        <pt x="277" y="803" on="1"/>
        <pt x="459" y="803" on="1"/>
        <pt x="597" y="1456" on="1"/>
        <pt x="977" y="1456" on="1"/>
        <pt x="1199" y="1456" on="0"/>
        <pt x="1449" y="1164" on="0"/>
        <pt x="1449" y="930" on="1"/>
        <pt x="1449" y="829" on="0"/>
        <pt x="1427" y="726" on="1"/>
        <pt x="1383" y="523" on="0"/>
        <pt x="1163" y="191" on="0"/>
        <pt x="844" y="0" on="0"/>
        <pt x="668" y="0" on="1"/>
        <pt x="288" y="0" on="1"/>
      </contour>
      <contour>
        <pt x="586" y="662" on="1"/>
        <pt x="475" y="143" on="1"/>
        <pt x="698" y="143" on="1"/>
        <pt x="893" y="143" on="0"/>
        <pt x="1214" y="468" on="0"/>
        <pt x="1270" y="726" on="1"/>
        <pt x="1290" y="821" on="0"/>
        <pt x="1290" y="899" on="1"/>
        <pt x="1290" y="1088" on="0"/>
        <pt x="1105" y="1312" on="0"/>
        <pt x="947" y="1312" on="1"/>
        <pt x="724" y="1312" on="1"/>
        <pt x="616" y="803" on="1"/>
        <pt x="915" y="803" on="1"/>
        <pt x="885" y="662" on="1"/>
      </contour>
    </TTGlyph>
    <TTGlyph name="Ddotaccent" xMin="121" yMin="0" xMax="1330" yMax="1777">
      <contour>
        <pt x="1067" y="488" on="1"/>
        <pt x="1161" y="700" on="0"/>
        <pt x="1161" y="905" on="1"/>
        <pt x="1161" y="1213" on="0"/>
        <pt x="946" y="1292" on="1"/>
        <pt x="883" y="1315" on="0"/>
        <pt x="804" y="1315" on="1"/>
        <pt x="559" y="1315" on="1"/>
        <pt x="309" y="141" on="1"/>
        <pt x="554" y="141" on="1"/>
        <pt x="809" y="141" on="0"/>
        <pt x="952" y="305" on="1"/>
        <pt x="1021" y="385" on="0"/>
      </contour>
      <contour>
        <pt x="1308" y="727" on="1"/>
        <pt x="1264" y="521" on="0"/>
        <pt x="1060" y="195" on="0"/>
        <pt x="748" y="0" on="0"/>
        <pt x="565" y="0" on="1"/>
        <pt x="121" y="0" on="1"/>
        <pt x="430" y="1456" on="1"/>
        <pt x="874" y="1456" on="1"/>
        <pt x="1101" y="1456" on="0"/>
        <pt x="1218" y="1302" on="1"/>
        <pt x="1330" y="1154" on="0"/>
        <pt x="1330" y="929" on="1"/>
        <pt x="1330" y="828" on="0"/>
      </contour>
      <contour>
        <pt x="988" y="1644" on="0"/>
        <pt x="920" y="1588" on="0"/>
        <pt x="850" y="1588" on="0"/>
        <pt x="807" y="1631" on="0"/>
        <pt x="807" y="1713" on="0"/>
        <pt x="885" y="1777" on="0"/>
        <pt x="956" y="1777" on="0"/>
        <pt x="976" y="1756" on="1"/>
        <pt x="1008" y="1725" on="0"/>
      </contour>
    </TTGlyph>
    <TTGlyph name="Delta" xMin="120" yMin="0" xMax="1462" yMax="1440">
      <contour>
        <pt x="120" y="0" on="1"/>
        <pt x="1008" y="1440" on="1"/>
        <pt x="1187" y="1440" on="1"/>
        <pt x="1462" y="0" on="1"/>
      </contour>
      <contour>
        <pt x="427" y="157" on="1"/>
        <pt x="1230" y="157" on="1"/>
        <pt x="1060" y="1247" on="1"/>
      </contour>
    </TTGlyph>
    <TTGlyph name="Dzeabkhasiancyrillic" xMin="167" yMin="-29" xMax="1215" yMax="1497">
      <contour>
        <pt x="167" y="252" on="1"/>
        <pt x="332" y="299" on="1"/>
        <pt x="351" y="217" on="0"/>
        <pt x="488" y="113" on="0"/>
        <pt x="571" y="113" on="1"/>
        <pt x="711" y="113" on="0"/>
        <pt x="939" y="284" on="0"/>
        <pt x="969" y="424" on="1"/>
        <pt x="977" y="461" on="0"/>
        <pt x="977" y="490" on="1"/>
        <pt x="977" y="595" on="0"/>
        <pt x="913" y="654" on="1"/>
        <pt x="830" y="731" on="0"/>
        <pt x="706" y="731" on="1"/>
        <pt x="628" y="731" on="1"/>
        <pt x="655" y="856" on="1"/>
        <pt x="753" y="856" on="1"/>
        <pt x="850" y="856" on="0"/>
        <pt x="1024" y="1002" on="0"/>
        <pt x="1048" y="1116" on="1"/>
        <pt x="1054" y="1143" on="0"/>
        <pt x="1054" y="1168" on="1"/>
        <pt x="1054" y="1236" on="0"/>
        <pt x="953" y="1358" on="0"/>
        <pt x="858" y="1358" on="1"/>
        <pt x="852" y="1358" on="1"/>
        <pt x="771" y="1358" on="0"/>
        <pt x="631" y="1273" on="0"/>
        <pt x="585" y="1200" on="1"/>
        <pt x="462" y="1264" on="1"/>
        <pt x="536" y="1368" on="0"/>
        <pt x="764" y="1497" on="0"/>
        <pt x="876" y="1497" on="1"/>
        <pt x="1108" y="1497" on="0"/>
        <pt x="1189" y="1314" on="1"/>
        <pt x="1215" y="1256" on="0"/>
        <pt x="1215" y="1206" on="1"/>
        <pt x="1215" y="1070" on="0"/>
        <pt x="1141" y="963" on="1"/>
        <pt x="1058" y="840" on="0"/>
        <pt x="955" y="795" on="1"/>
        <pt x="1029" y="773" on="0"/>
        <pt x="1089" y="674" on="1"/>
        <pt x="1134" y="602" on="0"/>
        <pt x="1134" y="501" on="1"/>
        <pt x="1134" y="459" on="0"/>
        <pt x="1126" y="424" on="1"/>
        <pt x="1084" y="229" on="0"/>
        <pt x="748" y="-29" on="0"/>
        <pt x="541" y="-29" on="1"/>
        <pt x="417" y="-29" on="0"/>
        <pt x="196" y="123" on="0"/>
      </contour>
    </TTGlyph>
    <TTGlyph name="E" xMin="121" yMin="0" xMax="1351" yMax="1456">
      <contour>
        <pt x="430" y="1456" on="1"/>
        <pt x="1351" y="1456" on="1"/>
        <pt x="1322" y="1315" on="1"/>
        <pt x="559" y="1315" on="1"/>
        <pt x="453" y="817" on="1"/>
        <pt x="1173" y="817" on="1"/>
        <pt x="1143" y="676" on="1"/>
        <pt x="423" y="676" on="1"/>
        <pt x="309" y="141" on="1"/>
        <pt x="1072" y="141" on="1"/>
        <pt x="1042" y="0" on="1"/>
        <pt x="121" y="0" on="1"/>
      </contour>
    </TTGlyph>
    <TTGlyph name="Eacute" xMin="121" yMin="0" xMax="1351" yMax="1944">
      <contour>
        <pt x="816" y="1676" on="1"/>
        <pt x="1150" y="1926" on="1"/>
        <pt x="1176" y="1944" on="0"/>
        <pt x="1195" y="1944" on="1"/>
        <pt x="1239" y="1944" on="0"/>
        <pt x="1254" y="1914" on="1"/>
        <pt x="1271" y="1886" on="0"/>
        <pt x="1243" y="1827" on="0"/>
        <pt x="1219" y="1810" on="1"/>
        <pt x="867" y="1591" on="1"/>
        <pt x="854" y="1582" on="0"/>
        <pt x="845" y="1582" on="1"/>
        <pt x="811" y="1582" on="0"/>
        <pt x="800" y="1602" on="1"/>
        <pt x="784" y="1630" on="0"/>
        <pt x="803" y="1664" on="0"/>
      </contour>
      <contour>
        <pt x="430" y="1456" on="1"/>
        <pt x="1351" y="1456" on="1"/>
        <pt x="1322" y="1315" on="1"/>
        <pt x="559" y="1315" on="1"/>
        <pt x="453" y="817" on="1"/>
        <pt x="1173" y="817" on="1"/>
        <pt x="1143" y="676" on="1"/>
        <pt x="423" y="676" on="1"/>
        <pt x="309" y="141" on="1"/>
        <pt x="1072" y="141" on="1"/>
        <pt x="1042" y="0" on="1"/>
        <pt x="121" y="0" on="1"/>
      </contour>
    </TTGlyph>
    <TTGlyph name="Ebreve" xMin="121" yMin="0" xMax="1351" yMax="1838">
      <contour>
        <pt x="430" y="1456" on="1"/>
        <pt x="1351" y="1456" on="1"/>
        <pt x="1322" y="1315" on="1"/>
        <pt x="559" y="1315" on="1"/>
        <pt x="453" y="817" on="1"/>
        <pt x="1173" y="817" on="1"/>
        <pt x="1143" y="676" on="1"/>
        <pt x="423" y="676" on="1"/>
        <pt x="309" y="141" on="1"/>
        <pt x="1072" y="141" on="1"/>
        <pt x="1042" y="0" on="1"/>
        <pt x="121" y="0" on="1"/>
      </contour>
      <contour>
        <pt x="699" y="1791" on="1"/>
        <pt x="704" y="1832" on="1"/>
        <pt x="704" y="1836" on="0"/>
        <pt x="705" y="1838" on="1"/>
        <pt x="786" y="1838" on="1"/>
        <pt x="811" y="1726" on="0"/>
        <pt x="878" y="1674" on="1"/>
        <pt x="912" y="1649" on="0"/>
        <pt x="1028" y="1651" on="0"/>
        <pt x="1068" y="1674" on="1"/>
        <pt x="1137" y="1717" on="0"/>
        <pt x="1231" y="1838" on="1"/>
        <pt x="1311" y="1838" on="1"/>
        <pt x="1310" y="1836" on="0"/>
        <pt x="1310" y="1829" on="0"/>
        <pt x="1309" y="1828" on="1"/>
        <pt x="1293" y="1758" on="0"/>
        <pt x="1205" y="1649" on="1"/>
        <pt x="1158" y="1592" on="0"/>
        <pt x="1006" y="1514" on="0"/>
        <pt x="873" y="1514" on="0"/>
        <pt x="754" y="1592" on="0"/>
        <pt x="699" y="1733" on="0"/>
      </contour>
    </TTGlyph>
    <TTGlyph name="Ecaron" xMin="121" yMin="0" xMax="1365" yMax="1858">
      <contour>
        <pt x="430" y="1456" on="1"/>
        <pt x="1351" y="1456" on="1"/>
        <pt x="1322" y="1315" on="1"/>
        <pt x="559" y="1315" on="1"/>
        <pt x="453" y="817" on="1"/>
        <pt x="1173" y="817" on="1"/>
        <pt x="1143" y="676" on="1"/>
        <pt x="423" y="676" on="1"/>
        <pt x="309" y="141" on="1"/>
        <pt x="1072" y="141" on="1"/>
        <pt x="1042" y="0" on="1"/>
        <pt x="121" y="0" on="1"/>
      </contour>
      <contour>
        <pt x="1365" y="1858" on="1"/>
        <pt x="1012" y="1514" on="1"/>
        <pt x="881" y="1514" on="1"/>
        <pt x="677" y="1856" on="1"/>
        <pt x="863" y="1856" on="1"/>
        <pt x="976" y="1645" on="1"/>
        <pt x="1177" y="1858" on="1"/>
      </contour>
    </TTGlyph>
    <TTGlyph name="Ecircumflex" xMin="131" yMin="0" xMax="1361" yMax="1882">
      <contour>
        <pt x="440" y="1456" on="1"/>
        <pt x="1361" y="1456" on="1"/>
        <pt x="1332" y="1315" on="1"/>
        <pt x="569" y="1315" on="1"/>
        <pt x="463" y="817" on="1"/>
        <pt x="1183" y="817" on="1"/>
        <pt x="1153" y="676" on="1"/>
        <pt x="433" y="676" on="1"/>
        <pt x="319" y="141" on="1"/>
        <pt x="1082" y="141" on="1"/>
        <pt x="1052" y="0" on="1"/>
        <pt x="131" y="0" on="1"/>
      </contour>
      <contour>
        <pt x="1277" y="1538" on="1"/>
        <pt x="1089" y="1538" on="1"/>
        <pt x="978" y="1751" on="1"/>
        <pt x="775" y="1540" on="1"/>
        <pt x="589" y="1540" on="1"/>
        <pt x="939" y="1882" on="1"/>
        <pt x="1070" y="1882" on="1"/>
      </contour>
    </TTGlyph>
    <TTGlyph name="Edieresis" xMin="131" yMin="0" xMax="1361" yMax="1796">
      <contour>
        <pt x="440" y="1456" on="1"/>
        <pt x="1361" y="1456" on="1"/>
        <pt x="1332" y="1315" on="1"/>
        <pt x="569" y="1315" on="1"/>
        <pt x="463" y="817" on="1"/>
        <pt x="1183" y="817" on="1"/>
        <pt x="1153" y="676" on="1"/>
        <pt x="433" y="676" on="1"/>
        <pt x="319" y="141" on="1"/>
        <pt x="1082" y="141" on="1"/>
        <pt x="1052" y="0" on="1"/>
        <pt x="131" y="0" on="1"/>
      </contour>
      <contour>
        <pt x="669" y="1605" on="0"/>
        <pt x="625" y="1649" on="0"/>
        <pt x="625" y="1730" on="0"/>
        <pt x="703" y="1794" on="0"/>
        <pt x="739" y="1794" on="1"/>
        <pt x="813" y="1794" on="0"/>
        <pt x="817" y="1719" on="1"/>
        <pt x="817" y="1669" on="0"/>
        <pt x="739" y="1605" on="0"/>
      </contour>
      <contour>
        <pt x="1097" y="1673" on="1"/>
        <pt x="1097" y="1732" on="0"/>
        <pt x="1175" y="1796" on="0"/>
        <pt x="1246" y="1796" on="0"/>
        <pt x="1287" y="1755" on="0"/>
        <pt x="1289" y="1671" on="0"/>
        <pt x="1211" y="1607" on="0"/>
        <pt x="1140" y="1607" on="0"/>
        <pt x="1097" y="1650" on="0"/>
      </contour>
    </TTGlyph>
    <TTGlyph name="Edotaccent" xMin="121" yMin="0" xMax="1351" yMax="1777">
      <contour>
        <pt x="430" y="1456" on="1"/>
        <pt x="1351" y="1456" on="1"/>
        <pt x="1322" y="1315" on="1"/>
        <pt x="559" y="1315" on="1"/>
        <pt x="453" y="817" on="1"/>
        <pt x="1173" y="817" on="1"/>
        <pt x="1143" y="676" on="1"/>
        <pt x="423" y="676" on="1"/>
        <pt x="309" y="141" on="1"/>
        <pt x="1072" y="141" on="1"/>
        <pt x="1042" y="0" on="1"/>
        <pt x="121" y="0" on="1"/>
      </contour>
      <contour>
        <pt x="1041" y="1644" on="0"/>
        <pt x="973" y="1588" on="0"/>
        <pt x="903" y="1588" on="0"/>
        <pt x="860" y="1631" on="0"/>
        <pt x="860" y="1713" on="0"/>
        <pt x="938" y="1777" on="0"/>
        <pt x="1009" y="1777" on="0"/>
        <pt x="1030" y="1756" on="1"/>
        <pt x="1061" y="1725" on="0"/>
      </contour>
    </TTGlyph>
    <TTGlyph name="Egrave" xMin="121" yMin="0" xMax="1351" yMax="1944">
      <contour>
        <pt x="1100" y="1676" on="1"/>
        <pt x="1109" y="1666" on="0"/>
        <pt x="1109" y="1655" on="1"/>
        <pt x="1109" y="1628" on="0"/>
        <pt x="1090" y="1608" on="1"/>
        <pt x="1066" y="1582" on="0"/>
        <pt x="1024" y="1582" on="0"/>
        <pt x="1013" y="1591" on="1"/>
        <pt x="755" y="1810" on="1"/>
        <pt x="732" y="1834" on="0"/>
        <pt x="743" y="1895" on="0"/>
        <pt x="764" y="1916" on="1"/>
        <pt x="793" y="1944" on="0"/>
        <pt x="854" y="1944" on="0"/>
        <pt x="872" y="1926" on="1"/>
      </contour>
      <contour>
        <pt x="430" y="1456" on="1"/>
        <pt x="1351" y="1456" on="1"/>
        <pt x="1322" y="1315" on="1"/>
        <pt x="559" y="1315" on="1"/>
        <pt x="453" y="817" on="1"/>
        <pt x="1173" y="817" on="1"/>
        <pt x="1143" y="676" on="1"/>
        <pt x="423" y="676" on="1"/>
        <pt x="309" y="141" on="1"/>
        <pt x="1072" y="141" on="1"/>
        <pt x="1042" y="0" on="1"/>
        <pt x="121" y="0" on="1"/>
      </contour>
    </TTGlyph>
    <TTGlyph name="Emacron" xMin="121" yMin="0" xMax="1351" yMax="1771">
      <contour>
        <pt x="430" y="1456" on="1"/>
        <pt x="1351" y="1456" on="1"/>
        <pt x="1322" y="1315" on="1"/>
        <pt x="559" y="1315" on="1"/>
        <pt x="453" y="817" on="1"/>
        <pt x="1173" y="817" on="1"/>
        <pt x="1143" y="676" on="1"/>
        <pt x="423" y="676" on="1"/>
        <pt x="309" y="141" on="1"/>
        <pt x="1072" y="141" on="1"/>
        <pt x="1042" y="0" on="1"/>
        <pt x="121" y="0" on="1"/>
      </contour>
      <contour>
        <pt x="655" y="1771" on="1"/>
        <pt x="1332" y="1771" on="1"/>
        <pt x="1310" y="1665" on="1"/>
        <pt x="633" y="1665" on="1"/>
      </contour>
    </TTGlyph>
    <TTGlyph name="Endescendercyrillic" xMin="121" yMin="0" xMax="1407" yMax="1456">
      <contour>
        <pt x="430" y="1456" on="1"/>
        <pt x="588" y="1456" on="1"/>
        <pt x="452" y="815" on="1"/>
        <pt x="1113" y="815" on="1"/>
        <pt x="1249" y="1456" on="1"/>
        <pt x="1407" y="1456" on="1"/>
        <pt x="1098" y="0" on="1"/>
        <pt x="940" y="0" on="1"/>
        <pt x="1083" y="674" on="1"/>
        <pt x="422" y="674" on="1"/>
        <pt x="279" y="0" on="1"/>
        <pt x="121" y="0" on="1"/>
      </contour>
    </TTGlyph>
    <TTGlyph name="Eng" xMin="117" yMin="-87" xMax="1378" yMax="1464">
      <contour>
        <pt x="736" y="-87" on="1"/>
        <pt x="768" y="47" on="1"/>
        <pt x="872" y="47" on="0"/>
        <pt x="1049" y="194" on="0"/>
        <pt x="1078" y="329" on="1"/>
        <pt x="1200" y="903" on="1"/>
        <pt x="1220" y="993" on="0"/>
        <pt x="1221" y="1068" on="1"/>
        <pt x="1221" y="1076" on="1"/>
        <pt x="1221" y="1327" on="0"/>
        <pt x="1031" y="1327" on="1"/>
        <pt x="989" y="1327" on="0"/>
        <pt x="884" y="1293" on="1"/>
        <pt x="818" y="1268" on="0"/>
        <pt x="577" y="1139" on="0"/>
        <pt x="511" y="1065" on="1"/>
        <pt x="491" y="1040" on="0"/>
        <pt x="461" y="902" on="1"/>
        <pt x="269" y="0" on="1"/>
        <pt x="117" y="0" on="1"/>
        <pt x="419" y="1456" on="1"/>
        <pt x="571" y="1456" on="1"/>
        <pt x="536" y="1254" on="1"/>
        <pt x="677" y="1346" on="0"/>
        <pt x="979" y="1464" on="0"/>
        <pt x="1082" y="1464" on="1"/>
        <pt x="1366" y="1464" on="0"/>
        <pt x="1378" y="1156" on="1"/>
        <pt x="1378" y="1131" on="1"/>
        <pt x="1378" y="1030" on="0"/>
        <pt x="1351" y="903" on="1"/>
        <pt x="1236" y="363" on="1"/>
        <pt x="1237" y="362" on="1"/>
        <pt x="1236" y="361" on="0"/>
        <pt x="1236" y="358" on="1"/>
        <pt x="1236" y="353" on="1"/>
        <pt x="1224" y="297" on="0"/>
        <pt x="1159" y="162" on="1"/>
        <pt x="1123" y="91" on="0"/>
        <pt x="1042" y="28" on="1"/>
        <pt x="892" y="-87" on="0"/>
        <pt x="740" y="-87" on="1"/>
      </contour>
    </TTGlyph>
    <TTGlyph name="Enghecyrillic" xMin="121" yMin="0" xMax="1738" yMax="1456">
      <contour>
        <pt x="430" y="1456" on="1"/>
        <pt x="588" y="1456" on="1"/>
        <pt x="452" y="815" on="1"/>
        <pt x="945" y="815" on="1"/>
        <pt x="1081" y="1456" on="1"/>
        <pt x="1738" y="1456" on="1"/>
        <pt x="1709" y="1315" on="1"/>
        <pt x="1210" y="1315" on="1"/>
        <pt x="930" y="0" on="1"/>
        <pt x="772" y="0" on="1"/>
        <pt x="915" y="674" on="1"/>
        <pt x="422" y="674" on="1"/>
        <pt x="279" y="0" on="1"/>
        <pt x="121" y="0" on="1"/>
      </contour>
    </TTGlyph>
    <TTGlyph name="Enhookcyrillic" xMin="121" yMin="0" xMax="1407" yMax="1456">
      <contour>
        <pt x="430" y="1456" on="1"/>
        <pt x="588" y="1456" on="1"/>
        <pt x="452" y="815" on="1"/>
        <pt x="1113" y="815" on="1"/>
        <pt x="1249" y="1456" on="1"/>
        <pt x="1407" y="1456" on="1"/>
        <pt x="1098" y="0" on="1"/>
        <pt x="940" y="0" on="1"/>
        <pt x="1083" y="674" on="1"/>
        <pt x="422" y="674" on="1"/>
        <pt x="279" y="0" on="1"/>
        <pt x="121" y="0" on="1"/>
      </contour>
    </TTGlyph>
    <TTGlyph name="Eogonek" xMin="121" yMin="-315" xMax="1351" yMax="1456">
      <contour>
        <pt x="430" y="1456" on="1"/>
        <pt x="1351" y="1456" on="1"/>
        <pt x="1322" y="1315" on="1"/>
        <pt x="559" y="1315" on="1"/>
        <pt x="453" y="817" on="1"/>
        <pt x="1173" y="817" on="1"/>
        <pt x="1143" y="676" on="1"/>
        <pt x="423" y="676" on="1"/>
        <pt x="309" y="141" on="1"/>
        <pt x="1072" y="141" on="1"/>
        <pt x="1042" y="0" on="1"/>
        <pt x="121" y="0" on="1"/>
      </contour>
      <contour>
        <pt x="988" y="18" on="1"/>
        <pt x="911" y="-59" on="0"/>
        <pt x="911" y="-86" on="1"/>
        <pt x="904" y="-114" on="0"/>
        <pt x="935" y="-145" on="1"/>
        <pt x="958" y="-168" on="1"/>
        <pt x="965" y="-173" on="0"/>
        <pt x="983" y="-190" on="1"/>
        <pt x="913" y="-315" on="1"/>
        <pt x="910" y="-313" on="0"/>
        <pt x="905" y="-310" on="1"/>
        <pt x="890" y="-299" on="0"/>
        <pt x="866" y="-283" on="1"/>
        <pt x="829" y="-258" on="0"/>
        <pt x="758" y="-186" on="0"/>
        <pt x="747" y="-144" on="0"/>
        <pt x="747" y="-130" on="1"/>
        <pt x="747" y="-98" on="0"/>
        <pt x="794" y="13" on="0"/>
        <pt x="871" y="74" on="1"/>
      </contour>
    </TTGlyph>
    <TTGlyph name="Epsilon" xMin="121" yMin="0" xMax="1351" yMax="1456">
      <contour>
        <pt x="430" y="1456" on="1"/>
        <pt x="1351" y="1456" on="1"/>
        <pt x="1322" y="1315" on="1"/>
        <pt x="559" y="1315" on="1"/>
        <pt x="453" y="817" on="1"/>
        <pt x="1173" y="817" on="1"/>
        <pt x="1143" y="676" on="1"/>
        <pt x="423" y="676" on="1"/>
        <pt x="309" y="141" on="1"/>
        <pt x="1072" y="141" on="1"/>
        <pt x="1042" y="0" on="1"/>
        <pt x="121" y="0" on="1"/>
      </contour>
    </TTGlyph>
    <TTGlyph name="Epsilonacute" xMin="121" yMin="0" xMax="1351" yMax="1456">
      <contour>
        <pt x="430" y="1456" on="1"/>
        <pt x="1351" y="1456" on="1"/>
        <pt x="1322" y="1315" on="1"/>
        <pt x="559" y="1315" on="1"/>
        <pt x="453" y="817" on="1"/>
        <pt x="1173" y="817" on="1"/>
        <pt x="1143" y="676" on="1"/>
        <pt x="423" y="676" on="1"/>
        <pt x="309" y="141" on="1"/>
        <pt x="1072" y="141" on="1"/>
        <pt x="1042" y="0" on="1"/>
        <pt x="121" y="0" on="1"/>
      </contour>
    </TTGlyph>
    <TTGlyph name="Epsilonasper" xMin="250" yMin="0" xMax="1480" yMax="1779">
      <contour>
        <pt x="559" y="1456" on="1"/>
        <pt x="1480" y="1456" on="1"/>
        <pt x="1451" y="1315" on="1"/>
        <pt x="688" y="1315" on="1"/>
        <pt x="582" y="817" on="1"/>
        <pt x="1302" y="817" on="1"/>
        <pt x="1272" y="676" on="1"/>
        <pt x="552" y="676" on="1"/>
        <pt x="438" y="141" on="1"/>
        <pt x="1201" y="141" on="1"/>
        <pt x="1171" y="0" on="1"/>
        <pt x="250" y="0" on="1"/>
      </contour>
      <contour>
        <pt x="415" y="1385" on="1"/>
        <pt x="365" y="1492" on="0"/>
        <pt x="365" y="1656" on="0"/>
        <pt x="395" y="1728" on="0"/>
        <pt x="465" y="1779" on="0"/>
        <pt x="549" y="1779" on="0"/>
        <pt x="592" y="1726" on="0"/>
        <pt x="592" y="1704" on="1"/>
        <pt x="592" y="1669" on="0"/>
        <pt x="568" y="1614" on="0"/>
        <pt x="500" y="1565" on="0"/>
        <pt x="459" y="1565" on="1"/>
        <pt x="455" y="1549" on="0"/>
        <pt x="455" y="1466" on="0"/>
        <pt x="493" y="1387" on="1"/>
        <pt x="430" y="1356" on="1"/>
      </contour>
    </TTGlyph>
    <TTGlyph name="Epsilonasperacute" xMin="365" yMin="0" xMax="1795" yMax="1780">
      <contour>
        <pt x="874" y="1456" on="1"/>
        <pt x="1795" y="1456" on="1"/>
        <pt x="1766" y="1315" on="1"/>
        <pt x="1003" y="1315" on="1"/>
        <pt x="897" y="817" on="1"/>
        <pt x="1617" y="817" on="1"/>
        <pt x="1587" y="676" on="1"/>
        <pt x="867" y="676" on="1"/>
        <pt x="753" y="141" on="1"/>
        <pt x="1516" y="141" on="1"/>
        <pt x="1486" y="0" on="1"/>
        <pt x="565" y="0" on="1"/>
      </contour>
      <contour>
        <pt x="615" y="1512" on="1"/>
        <pt x="950" y="1762" on="1"/>
        <pt x="976" y="1780" on="0"/>
        <pt x="994" y="1780" on="1"/>
        <pt x="1038" y="1780" on="0"/>
        <pt x="1053" y="1750" on="1"/>
        <pt x="1062" y="1736" on="0"/>
        <pt x="1062" y="1725" on="1"/>
        <pt x="1062" y="1678" on="0"/>
        <pt x="1018" y="1646" on="1"/>
        <pt x="666" y="1427" on="1"/>
        <pt x="652" y="1418" on="0"/>
        <pt x="644" y="1418" on="1"/>
        <pt x="610" y="1418" on="0"/>
        <pt x="599" y="1438" on="1"/>
        <pt x="577" y="1477" on="0"/>
      </contour>
      <contour>
        <pt x="415" y="1385" on="1"/>
        <pt x="365" y="1492" on="0"/>
        <pt x="365" y="1656" on="0"/>
        <pt x="395" y="1728" on="0"/>
        <pt x="465" y="1779" on="0"/>
        <pt x="549" y="1779" on="0"/>
        <pt x="592" y="1726" on="0"/>
        <pt x="592" y="1704" on="1"/>
        <pt x="592" y="1669" on="0"/>
        <pt x="568" y="1614" on="0"/>
        <pt x="500" y="1565" on="0"/>
        <pt x="459" y="1565" on="1"/>
        <pt x="455" y="1549" on="0"/>
        <pt x="455" y="1466" on="0"/>
        <pt x="493" y="1387" on="1"/>
        <pt x="430" y="1356" on="1"/>
      </contour>
    </TTGlyph>
    <TTGlyph name="Epsilonaspergrave" xMin="365" yMin="0" xMax="1959" yMax="1780">
      <contour>
        <pt x="1038" y="1456" on="1"/>
        <pt x="1959" y="1456" on="1"/>
        <pt x="1930" y="1315" on="1"/>
        <pt x="1167" y="1315" on="1"/>
        <pt x="1061" y="817" on="1"/>
        <pt x="1781" y="817" on="1"/>
        <pt x="1751" y="676" on="1"/>
        <pt x="1031" y="676" on="1"/>
        <pt x="917" y="141" on="1"/>
        <pt x="1680" y="141" on="1"/>
        <pt x="1650" y="0" on="1"/>
        <pt x="729" y="0" on="1"/>
      </contour>
      <contour>
        <pt x="644" y="1646" on="1"/>
        <pt x="626" y="1666" on="0"/>
        <pt x="626" y="1704" on="1"/>
        <pt x="632" y="1731" on="0"/>
        <pt x="653" y="1752" on="1"/>
        <pt x="682" y="1780" on="0"/>
        <pt x="744" y="1780" on="0"/>
        <pt x="762" y="1762" on="1"/>
        <pt x="989" y="1512" on="1"/>
        <pt x="999" y="1499" on="0"/>
        <pt x="999" y="1489" on="1"/>
        <pt x="999" y="1465" on="0"/>
        <pt x="980" y="1444" on="1"/>
        <pt x="955" y="1418" on="0"/>
        <pt x="912" y="1418" on="0"/>
        <pt x="902" y="1427" on="1"/>
      </contour>
      <contour>
        <pt x="415" y="1385" on="1"/>
        <pt x="365" y="1492" on="0"/>
        <pt x="365" y="1656" on="0"/>
        <pt x="395" y="1728" on="0"/>
        <pt x="465" y="1779" on="0"/>
        <pt x="549" y="1779" on="0"/>
        <pt x="592" y="1726" on="0"/>
        <pt x="592" y="1704" on="1"/>
        <pt x="592" y="1669" on="0"/>
        <pt x="568" y="1614" on="0"/>
        <pt x="500" y="1565" on="0"/>
        <pt x="459" y="1565" on="1"/>
        <pt x="455" y="1549" on="0"/>
        <pt x="455" y="1466" on="0"/>
        <pt x="493" y="1387" on="1"/>
        <pt x="430" y="1356" on="1"/>
      </contour>
    </TTGlyph>
    <TTGlyph name="Epsilongrave" xMin="381" yMin="0" xMax="1711" yMax="1780">
      <contour>
        <pt x="790" y="1456" on="1"/>
        <pt x="1711" y="1456" on="1"/>
        <pt x="1682" y="1315" on="1"/>
        <pt x="919" y="1315" on="1"/>
        <pt x="813" y="817" on="1"/>
        <pt x="1533" y="817" on="1"/>
        <pt x="1503" y="676" on="1"/>
        <pt x="783" y="676" on="1"/>
        <pt x="669" y="141" on="1"/>
        <pt x="1432" y="141" on="1"/>
        <pt x="1402" y="0" on="1"/>
        <pt x="481" y="0" on="1"/>
      </contour>
      <contour>
        <pt x="399" y="1646" on="1"/>
        <pt x="384" y="1663" on="0"/>
        <pt x="382" y="1682" on="1"/>
        <pt x="378" y="1723" on="0"/>
        <pt x="403" y="1747" on="1"/>
        <pt x="437" y="1780" on="0"/>
        <pt x="499" y="1780" on="0"/>
        <pt x="517" y="1762" on="1"/>
        <pt x="744" y="1512" on="1"/>
        <pt x="754" y="1499" on="0"/>
        <pt x="754" y="1489" on="1"/>
        <pt x="754" y="1465" on="0"/>
        <pt x="735" y="1444" on="1"/>
        <pt x="710" y="1418" on="0"/>
        <pt x="668" y="1418" on="0"/>
        <pt x="657" y="1427" on="1"/>
      </contour>
    </TTGlyph>
    <TTGlyph name="Epsilonlenis" xMin="253" yMin="0" xMax="1483" yMax="1779">
      <contour>
        <pt x="562" y="1456" on="1"/>
        <pt x="1483" y="1456" on="1"/>
        <pt x="1454" y="1315" on="1"/>
        <pt x="691" y="1315" on="1"/>
        <pt x="585" y="817" on="1"/>
        <pt x="1305" y="817" on="1"/>
        <pt x="1275" y="676" on="1"/>
        <pt x="555" y="676" on="1"/>
        <pt x="441" y="141" on="1"/>
        <pt x="1204" y="141" on="1"/>
        <pt x="1174" y="0" on="1"/>
        <pt x="253" y="0" on="1"/>
      </contour>
      <contour>
        <pt x="374" y="1671" on="1"/>
        <pt x="383" y="1714" on="0"/>
        <pt x="460" y="1779" on="0"/>
        <pt x="543" y="1779" on="0"/>
        <pt x="592" y="1730" on="0"/>
        <pt x="592" y="1656" on="0"/>
        <pt x="542" y="1538" on="0"/>
        <pt x="498" y="1474" on="0"/>
        <pt x="471" y="1438" on="1"/>
        <pt x="426" y="1385" on="1"/>
        <pt x="399" y="1356" on="1"/>
        <pt x="350" y="1387" on="1"/>
        <pt x="443" y="1489" on="0"/>
        <pt x="460" y="1565" on="1"/>
        <pt x="420" y="1565" on="0"/>
        <pt x="373" y="1612" on="0"/>
        <pt x="373" y="1649" on="1"/>
        <pt x="371" y="1660" on="0"/>
      </contour>
    </TTGlyph>
    <TTGlyph name="Epsilonlenisacute" xMin="350" yMin="0" xMax="1727" yMax="1780">
      <contour>
        <pt x="806" y="1456" on="1"/>
        <pt x="1727" y="1456" on="1"/>
        <pt x="1698" y="1315" on="1"/>
        <pt x="935" y="1315" on="1"/>
        <pt x="829" y="817" on="1"/>
        <pt x="1549" y="817" on="1"/>
        <pt x="1519" y="676" on="1"/>
        <pt x="799" y="676" on="1"/>
        <pt x="685" y="141" on="1"/>
        <pt x="1448" y="141" on="1"/>
        <pt x="1418" y="0" on="1"/>
        <pt x="497" y="0" on="1"/>
      </contour>
      <contour>
        <pt x="619" y="1512" on="1"/>
        <pt x="954" y="1762" on="1"/>
        <pt x="980" y="1780" on="0"/>
        <pt x="998" y="1780" on="1"/>
        <pt x="1042" y="1780" on="0"/>
        <pt x="1057" y="1750" on="1"/>
        <pt x="1066" y="1736" on="0"/>
        <pt x="1066" y="1725" on="1"/>
        <pt x="1066" y="1678" on="0"/>
        <pt x="1022" y="1646" on="1"/>
        <pt x="670" y="1427" on="1"/>
        <pt x="656" y="1418" on="0"/>
        <pt x="648" y="1418" on="1"/>
        <pt x="614" y="1418" on="0"/>
        <pt x="603" y="1438" on="1"/>
        <pt x="581" y="1477" on="0"/>
      </contour>
      <contour>
        <pt x="374" y="1671" on="1"/>
        <pt x="383" y="1714" on="0"/>
        <pt x="460" y="1779" on="0"/>
        <pt x="543" y="1779" on="0"/>
        <pt x="592" y="1730" on="0"/>
        <pt x="592" y="1656" on="0"/>
        <pt x="542" y="1538" on="0"/>
        <pt x="498" y="1474" on="0"/>
        <pt x="471" y="1438" on="1"/>
        <pt x="426" y="1385" on="1"/>
        <pt x="399" y="1356" on="1"/>
        <pt x="350" y="1387" on="1"/>
        <pt x="443" y="1489" on="0"/>
        <pt x="460" y="1565" on="1"/>
        <pt x="420" y="1565" on="0"/>
        <pt x="373" y="1612" on="0"/>
        <pt x="373" y="1649" on="1"/>
        <pt x="371" y="1660" on="0"/>
      </contour>
    </TTGlyph>
    <TTGlyph name="Epsilonlenisgrave" xMin="350" yMin="0" xMax="1971" yMax="1780">
      <contour>
        <pt x="1050" y="1456" on="1"/>
        <pt x="1971" y="1456" on="1"/>
        <pt x="1942" y="1315" on="1"/>
        <pt x="1179" y="1315" on="1"/>
        <pt x="1073" y="817" on="1"/>
        <pt x="1793" y="817" on="1"/>
        <pt x="1763" y="676" on="1"/>
        <pt x="1043" y="676" on="1"/>
        <pt x="929" y="141" on="1"/>
        <pt x="1692" y="141" on="1"/>
        <pt x="1662" y="0" on="1"/>
        <pt x="741" y="0" on="1"/>
      </contour>
      <contour>
        <pt x="664" y="1646" on="1"/>
        <pt x="646" y="1666" on="0"/>
        <pt x="646" y="1704" on="1"/>
        <pt x="652" y="1731" on="0"/>
        <pt x="673" y="1752" on="1"/>
        <pt x="702" y="1780" on="0"/>
        <pt x="764" y="1780" on="0"/>
        <pt x="782" y="1762" on="1"/>
        <pt x="1009" y="1512" on="1"/>
        <pt x="1019" y="1499" on="0"/>
        <pt x="1019" y="1489" on="1"/>
        <pt x="1019" y="1465" on="0"/>
        <pt x="1000" y="1444" on="1"/>
        <pt x="975" y="1418" on="0"/>
        <pt x="932" y="1418" on="0"/>
        <pt x="922" y="1427" on="1"/>
      </contour>
      <contour>
        <pt x="374" y="1671" on="1"/>
        <pt x="383" y="1714" on="0"/>
        <pt x="460" y="1779" on="0"/>
        <pt x="543" y="1779" on="0"/>
        <pt x="592" y="1730" on="0"/>
        <pt x="592" y="1656" on="0"/>
        <pt x="542" y="1538" on="0"/>
        <pt x="498" y="1474" on="0"/>
        <pt x="471" y="1438" on="1"/>
        <pt x="426" y="1385" on="1"/>
        <pt x="399" y="1356" on="1"/>
        <pt x="350" y="1387" on="1"/>
        <pt x="443" y="1489" on="0"/>
        <pt x="460" y="1565" on="1"/>
        <pt x="420" y="1565" on="0"/>
        <pt x="373" y="1612" on="0"/>
        <pt x="373" y="1649" on="1"/>
        <pt x="371" y="1660" on="0"/>
      </contour>
    </TTGlyph>
    <TTGlyph name="Epsilontonos" xMin="221" yMin="0" xMax="1451" yMax="1776">
      <contour>
        <pt x="373" y="1399" on="1"/>
        <pt x="327" y="1406" on="0"/>
        <pt x="337" y="1452" on="1"/>
        <pt x="399" y="1708" on="1"/>
        <pt x="413" y="1749" on="0"/>
        <pt x="466" y="1776" on="0"/>
        <pt x="492" y="1776" on="0"/>
        <pt x="510" y="1774" on="1"/>
        <pt x="529" y="1772" on="0"/>
        <pt x="551" y="1721" on="0"/>
        <pt x="546" y="1700" on="0"/>
        <pt x="544" y="1694" on="0"/>
        <pt x="544" y="1692" on="1"/>
        <pt x="442" y="1441" on="1"/>
        <pt x="424" y="1399" on="0"/>
        <pt x="379" y="1399" on="1"/>
      </contour>
      <contour>
        <pt x="530" y="1456" on="1"/>
        <pt x="1451" y="1456" on="1"/>
        <pt x="1422" y="1315" on="1"/>
        <pt x="659" y="1315" on="1"/>
        <pt x="553" y="817" on="1"/>
        <pt x="1273" y="817" on="1"/>
        <pt x="1243" y="676" on="1"/>
        <pt x="523" y="676" on="1"/>
        <pt x="409" y="141" on="1"/>
        <pt x="1172" y="141" on="1"/>
        <pt x="1142" y="0" on="1"/>
        <pt x="221" y="0" on="1"/>
      </contour>
    </TTGlyph>
    <TTGlyph name="Esdescendercyrillic" xMin="228" yMin="-29" xMax="1407" yMax="1495">
      <contour>
        <pt x="1229" y="293" on="1"/>
        <pt x="1155" y="165" on="0"/>
        <pt x="1026" y="72" on="1"/>
        <pt x="888" y="-29" on="0"/>
        <pt x="694" y="-29" on="1"/>
        <pt x="577" y="-29" on="0"/>
        <pt x="484" y="12" on="1"/>
        <pt x="313" y="88" on="0"/>
        <pt x="256" y="292" on="1"/>
        <pt x="228" y="388" on="0"/>
        <pt x="228" y="493" on="1"/>
        <pt x="228" y="498" on="1"/>
        <pt x="232" y="730" on="0"/>
        <pt x="326" y="954" on="1"/>
        <pt x="423" y="1187" on="0"/>
        <pt x="597" y="1336" on="1"/>
        <pt x="680" y="1408" on="0"/>
        <pt x="900" y="1495" on="0"/>
        <pt x="997" y="1495" on="1"/>
        <pt x="1236" y="1495" on="0"/>
        <pt x="1339" y="1358" on="1"/>
        <pt x="1395" y="1282" on="0"/>
        <pt x="1407" y="1194" on="1"/>
        <pt x="1249" y="1153" on="1"/>
        <pt x="1240" y="1242" on="0"/>
        <pt x="1095" y="1354" on="0"/>
        <pt x="990" y="1354" on="1"/>
        <pt x="988" y="1354" on="1"/>
        <pt x="884" y="1354" on="0"/>
        <pt x="788" y="1300" on="1"/>
        <pt x="614" y="1202" on="0"/>
        <pt x="497" y="955" on="1"/>
        <pt x="400" y="747" on="0"/>
        <pt x="400" y="539" on="1"/>
        <pt x="400" y="269" on="0"/>
        <pt x="552" y="162" on="1"/>
        <pt x="624" y="111" on="0"/>
        <pt x="831" y="111" on="0"/>
        <pt x="1040" y="243" on="0"/>
        <pt x="1091" y="334" on="1"/>
      </contour>
    </TTGlyph>
    <TTGlyph name="Eta" xMin="121" yMin="0" xMax="1407" yMax="1456">
      <contour>
        <pt x="430" y="1456" on="1"/>
        <pt x="588" y="1456" on="1"/>
        <pt x="452" y="815" on="1"/>
        <pt x="1113" y="815" on="1"/>
        <pt x="1249" y="1456" on="1"/>
        <pt x="1407" y="1456" on="1"/>
        <pt x="1098" y="0" on="1"/>
        <pt x="940" y="0" on="1"/>
        <pt x="1083" y="674" on="1"/>
        <pt x="422" y="674" on="1"/>
        <pt x="279" y="0" on="1"/>
        <pt x="121" y="0" on="1"/>
      </contour>
    </TTGlyph>
    <TTGlyph name="Etaacute" xMin="334" yMin="-4" xMax="1771" yMax="1780">
      <contour>
        <pt x="794" y="1452" on="1"/>
        <pt x="952" y="1452" on="1"/>
        <pt x="815" y="811" on="1"/>
        <pt x="1476" y="811" on="1"/>
        <pt x="1613" y="1452" on="1"/>
        <pt x="1771" y="1452" on="1"/>
        <pt x="1461" y="-4" on="1"/>
        <pt x="1303" y="-4" on="1"/>
        <pt x="1446" y="670" on="1"/>
        <pt x="785" y="670" on="1"/>
        <pt x="642" y="-4" on="1"/>
        <pt x="484" y="-4" on="1"/>
      </contour>
      <contour>
        <pt x="410" y="1427" on="1"/>
        <pt x="396" y="1418" on="0"/>
        <pt x="354" y="1418" on="0"/>
        <pt x="334" y="1454" on="0"/>
        <pt x="334" y="1489" on="0"/>
        <pt x="359" y="1512" on="1"/>
        <pt x="694" y="1762" on="1"/>
        <pt x="720" y="1780" on="0"/>
        <pt x="738" y="1780" on="1"/>
        <pt x="782" y="1780" on="0"/>
        <pt x="797" y="1750" on="1"/>
        <pt x="806" y="1736" on="0"/>
        <pt x="806" y="1725" on="1"/>
        <pt x="806" y="1678" on="0"/>
        <pt x="762" y="1646" on="1"/>
      </contour>
    </TTGlyph>
    <TTGlyph name="Etaasper" xMin="253" yMin="0" xMax="1539" yMax="1779">
      <contour>
        <pt x="562" y="1456" on="1"/>
        <pt x="720" y="1456" on="1"/>
        <pt x="584" y="815" on="1"/>
        <pt x="1245" y="815" on="1"/>
        <pt x="1381" y="1456" on="1"/>
        <pt x="1539" y="1456" on="1"/>
        <pt x="1230" y="0" on="1"/>
        <pt x="1072" y="0" on="1"/>
        <pt x="1215" y="674" on="1"/>
        <pt x="554" y="674" on="1"/>
        <pt x="411" y="0" on="1"/>
        <pt x="253" y="0" on="1"/>
      </contour>
      <contour>
        <pt x="415" y="1385" on="1"/>
        <pt x="365" y="1492" on="0"/>
        <pt x="365" y="1656" on="0"/>
        <pt x="395" y="1728" on="0"/>
        <pt x="465" y="1779" on="0"/>
        <pt x="549" y="1779" on="0"/>
        <pt x="592" y="1726" on="0"/>
        <pt x="592" y="1704" on="1"/>
        <pt x="592" y="1669" on="0"/>
        <pt x="568" y="1614" on="0"/>
        <pt x="500" y="1565" on="0"/>
        <pt x="459" y="1565" on="1"/>
        <pt x="455" y="1549" on="0"/>
        <pt x="455" y="1466" on="0"/>
        <pt x="493" y="1387" on="1"/>
        <pt x="430" y="1356" on="1"/>
      </contour>
    </TTGlyph>
    <TTGlyph name="Etaasperacute" xMin="365" yMin="0" xMax="1871" yMax="1780">
      <contour>
        <pt x="894" y="1456" on="1"/>
        <pt x="1052" y="1456" on="1"/>
        <pt x="916" y="815" on="1"/>
        <pt x="1577" y="815" on="1"/>
        <pt x="1713" y="1456" on="1"/>
        <pt x="1871" y="1456" on="1"/>
        <pt x="1562" y="0" on="1"/>
        <pt x="1404" y="0" on="1"/>
        <pt x="1547" y="674" on="1"/>
        <pt x="886" y="674" on="1"/>
        <pt x="743" y="0" on="1"/>
        <pt x="585" y="0" on="1"/>
      </contour>
      <contour>
        <pt x="611" y="1512" on="1"/>
        <pt x="946" y="1762" on="1"/>
        <pt x="972" y="1780" on="0"/>
        <pt x="990" y="1780" on="1"/>
        <pt x="1034" y="1780" on="0"/>
        <pt x="1049" y="1750" on="1"/>
        <pt x="1058" y="1736" on="0"/>
        <pt x="1058" y="1725" on="1"/>
        <pt x="1058" y="1678" on="0"/>
        <pt x="1014" y="1646" on="1"/>
        <pt x="662" y="1427" on="1"/>
        <pt x="648" y="1418" on="0"/>
        <pt x="640" y="1418" on="1"/>
        <pt x="606" y="1418" on="0"/>
        <pt x="595" y="1438" on="1"/>
        <pt x="573" y="1477" on="0"/>
      </contour>
      <contour>
        <pt x="415" y="1385" on="1"/>
        <pt x="365" y="1492" on="0"/>
        <pt x="365" y="1656" on="0"/>
        <pt x="395" y="1728" on="0"/>
        <pt x="465" y="1779" on="0"/>
        <pt x="549" y="1779" on="0"/>
        <pt x="592" y="1726" on="0"/>
        <pt x="592" y="1704" on="1"/>
        <pt x="592" y="1669" on="0"/>
        <pt x="568" y="1614" on="0"/>
        <pt x="500" y="1565" on="0"/>
        <pt x="459" y="1565" on="1"/>
        <pt x="455" y="1549" on="0"/>
        <pt x="455" y="1466" on="0"/>
        <pt x="493" y="1387" on="1"/>
        <pt x="430" y="1356" on="1"/>
      </contour>
    </TTGlyph>
    <TTGlyph name="Etaaspergrave" xMin="365" yMin="4" xMax="2008" yMax="1780">
      <contour>
        <pt x="1031" y="1460" on="1"/>
        <pt x="1189" y="1460" on="1"/>
        <pt x="1053" y="819" on="1"/>
        <pt x="1714" y="819" on="1"/>
        <pt x="1850" y="1460" on="1"/>
        <pt x="2008" y="1460" on="1"/>
        <pt x="1699" y="4" on="1"/>
        <pt x="1541" y="4" on="1"/>
        <pt x="1684" y="678" on="1"/>
        <pt x="1023" y="678" on="1"/>
        <pt x="880" y="4" on="1"/>
        <pt x="722" y="4" on="1"/>
      </contour>
      <contour>
        <pt x="647" y="1646" on="1"/>
        <pt x="629" y="1666" on="0"/>
        <pt x="629" y="1704" on="1"/>
        <pt x="635" y="1731" on="0"/>
        <pt x="656" y="1752" on="1"/>
        <pt x="685" y="1780" on="0"/>
        <pt x="747" y="1780" on="0"/>
        <pt x="765" y="1762" on="1"/>
        <pt x="992" y="1512" on="1"/>
        <pt x="1002" y="1499" on="0"/>
        <pt x="1002" y="1489" on="1"/>
        <pt x="1002" y="1465" on="0"/>
        <pt x="983" y="1444" on="1"/>
        <pt x="958" y="1418" on="0"/>
        <pt x="916" y="1418" on="0"/>
        <pt x="905" y="1427" on="1"/>
      </contour>
      <contour>
        <pt x="415" y="1385" on="1"/>
        <pt x="365" y="1492" on="0"/>
        <pt x="365" y="1656" on="0"/>
        <pt x="395" y="1728" on="0"/>
        <pt x="465" y="1779" on="0"/>
        <pt x="549" y="1779" on="0"/>
        <pt x="592" y="1726" on="0"/>
        <pt x="592" y="1704" on="1"/>
        <pt x="592" y="1669" on="0"/>
        <pt x="568" y="1614" on="0"/>
        <pt x="500" y="1565" on="0"/>
        <pt x="459" y="1565" on="1"/>
        <pt x="455" y="1549" on="0"/>
        <pt x="455" y="1466" on="0"/>
        <pt x="493" y="1387" on="1"/>
        <pt x="430" y="1356" on="1"/>
      </contour>
    </TTGlyph>
    <TTGlyph name="Etaaspertilde" xMin="365" yMin="0" xMax="1803" yMax="1780">
      <contour>
        <pt x="826" y="1456" on="1"/>
        <pt x="984" y="1456" on="1"/>
        <pt x="848" y="815" on="1"/>
        <pt x="1509" y="815" on="1"/>
        <pt x="1645" y="1456" on="1"/>
        <pt x="1803" y="1456" on="1"/>
        <pt x="1494" y="0" on="1"/>
        <pt x="1336" y="0" on="1"/>
        <pt x="1479" y="674" on="1"/>
        <pt x="818" y="674" on="1"/>
        <pt x="675" y="0" on="1"/>
        <pt x="517" y="0" on="1"/>
      </contour>
      <contour>
        <pt x="415" y="1385" on="1"/>
        <pt x="365" y="1492" on="0"/>
        <pt x="365" y="1656" on="0"/>
        <pt x="395" y="1728" on="0"/>
        <pt x="465" y="1779" on="0"/>
        <pt x="549" y="1779" on="0"/>
        <pt x="592" y="1726" on="0"/>
        <pt x="592" y="1704" on="1"/>
        <pt x="592" y="1669" on="0"/>
        <pt x="568" y="1614" on="0"/>
        <pt x="500" y="1565" on="0"/>
        <pt x="459" y="1565" on="1"/>
        <pt x="455" y="1549" on="0"/>
        <pt x="455" y="1466" on="0"/>
        <pt x="493" y="1387" on="1"/>
        <pt x="430" y="1356" on="1"/>
      </contour>
      <contour>
        <pt x="625" y="1684" on="1"/>
        <pt x="650" y="1701" on="0"/>
        <pt x="682" y="1724" on="1"/>
        <pt x="758" y="1780" on="0"/>
        <pt x="828" y="1780" on="1"/>
        <pt x="879" y="1780" on="0"/>
        <pt x="924" y="1726" on="1"/>
        <pt x="939" y="1706" on="0"/>
        <pt x="962" y="1682" on="1"/>
        <pt x="1010" y="1629" on="0"/>
        <pt x="1052" y="1629" on="1"/>
        <pt x="1122" y="1629" on="0"/>
        <pt x="1202" y="1682" on="1"/>
        <pt x="1234" y="1703" on="0"/>
        <pt x="1271" y="1727" on="1"/>
        <pt x="1240" y="1582" on="1"/>
        <pt x="1190" y="1550" on="0"/>
        <pt x="1139" y="1513" on="0"/>
        <pt x="1064" y="1483" on="0"/>
        <pt x="1031" y="1483" on="1"/>
        <pt x="970" y="1483" on="0"/>
        <pt x="921" y="1536" on="1"/>
        <pt x="919" y="1538" on="0"/>
        <pt x="889" y="1572" on="1"/>
        <pt x="835" y="1635" on="0"/>
        <pt x="797" y="1635" on="1"/>
        <pt x="729" y="1635" on="0"/>
        <pt x="659" y="1584" on="1"/>
        <pt x="640" y="1570" on="0"/>
        <pt x="594" y="1538" on="1"/>
      </contour>
    </TTGlyph>
    <TTGlyph name="Etagrave" xMin="381" yMin="0" xMax="1771" yMax="1780">
      <contour>
        <pt x="794" y="1456" on="1"/>
        <pt x="952" y="1456" on="1"/>
        <pt x="816" y="815" on="1"/>
        <pt x="1477" y="815" on="1"/>
        <pt x="1613" y="1456" on="1"/>
        <pt x="1771" y="1456" on="1"/>
        <pt x="1462" y="0" on="1"/>
        <pt x="1304" y="0" on="1"/>
        <pt x="1447" y="674" on="1"/>
        <pt x="786" y="674" on="1"/>
        <pt x="643" y="0" on="1"/>
        <pt x="485" y="0" on="1"/>
      </contour>
      <contour>
        <pt x="399" y="1646" on="1"/>
        <pt x="384" y="1663" on="0"/>
        <pt x="382" y="1682" on="1"/>
        <pt x="378" y="1723" on="0"/>
        <pt x="403" y="1747" on="1"/>
        <pt x="437" y="1780" on="0"/>
        <pt x="499" y="1780" on="0"/>
        <pt x="517" y="1762" on="1"/>
        <pt x="744" y="1512" on="1"/>
        <pt x="754" y="1499" on="0"/>
        <pt x="754" y="1489" on="1"/>
        <pt x="754" y="1465" on="0"/>
        <pt x="735" y="1444" on="1"/>
        <pt x="710" y="1418" on="0"/>
        <pt x="668" y="1418" on="0"/>
        <pt x="657" y="1427" on="1"/>
      </contour>
    </TTGlyph>
    <TTGlyph name="Etaiotasub" xMin="121" yMin="-396" xMax="1407" yMax="1456">
      <contour>
        <pt x="430" y="1456" on="1"/>
        <pt x="588" y="1456" on="1"/>
        <pt x="452" y="815" on="1"/>
        <pt x="1113" y="815" on="1"/>
        <pt x="1249" y="1456" on="1"/>
        <pt x="1407" y="1456" on="1"/>
        <pt x="1098" y="0" on="1"/>
        <pt x="940" y="0" on="1"/>
        <pt x="1083" y="674" on="1"/>
        <pt x="422" y="674" on="1"/>
        <pt x="279" y="0" on="1"/>
        <pt x="121" y="0" on="1"/>
      </contour>
      <contour>
        <pt x="474" y="-359" on="1"/>
        <pt x="489" y="-195" on="1"/>
        <pt x="498" y="-154" on="0"/>
        <pt x="553" y="-120" on="0"/>
        <pt x="575" y="-120" on="1"/>
        <pt x="580" y="-120" on="1"/>
        <pt x="612" y="-120" on="0"/>
        <pt x="625" y="-139" on="1"/>
        <pt x="639" y="-153" on="0"/>
        <pt x="639" y="-184" on="0"/>
        <pt x="637" y="-196" on="1"/>
        <pt x="583" y="-348" on="1"/>
        <pt x="576" y="-371" on="0"/>
        <pt x="536" y="-396" on="0"/>
        <pt x="496" y="-396" on="0"/>
        <pt x="488" y="-386" on="1"/>
        <pt x="474" y="-371" on="0"/>
      </contour>
    </TTGlyph>
    <TTGlyph name="Etaiotasubasper" xMin="244" yMin="-396" xMax="1530" yMax="1779">
      <contour>
        <pt x="598" y="-348" on="1"/>
        <pt x="612" y="-195" on="1"/>
        <pt x="621" y="-154" on="0"/>
        <pt x="676" y="-120" on="0"/>
        <pt x="698" y="-120" on="1"/>
        <pt x="703" y="-120" on="1"/>
        <pt x="735" y="-120" on="0"/>
        <pt x="748" y="-139" on="1"/>
        <pt x="768" y="-159" on="0"/>
        <pt x="760" y="-196" on="1"/>
        <pt x="706" y="-348" on="1"/>
        <pt x="699" y="-371" on="0"/>
        <pt x="658" y="-396" on="0"/>
        <pt x="619" y="-396" on="0"/>
        <pt x="602" y="-377" on="0"/>
        <pt x="596" y="-367" on="0"/>
      </contour>
      <contour>
        <pt x="553" y="1456" on="1"/>
        <pt x="711" y="1456" on="1"/>
        <pt x="575" y="815" on="1"/>
        <pt x="1236" y="815" on="1"/>
        <pt x="1372" y="1456" on="1"/>
        <pt x="1530" y="1456" on="1"/>
        <pt x="1221" y="0" on="1"/>
        <pt x="1063" y="0" on="1"/>
        <pt x="1206" y="674" on="1"/>
        <pt x="545" y="674" on="1"/>
        <pt x="402" y="0" on="1"/>
        <pt x="244" y="0" on="1"/>
      </contour>
      <contour>
        <pt x="415" y="1385" on="1"/>
        <pt x="365" y="1492" on="0"/>
        <pt x="365" y="1656" on="0"/>
        <pt x="395" y="1728" on="0"/>
        <pt x="465" y="1779" on="0"/>
        <pt x="549" y="1779" on="0"/>
        <pt x="592" y="1726" on="0"/>
        <pt x="592" y="1704" on="1"/>
        <pt x="592" y="1669" on="0"/>
        <pt x="568" y="1614" on="0"/>
        <pt x="500" y="1565" on="0"/>
        <pt x="459" y="1565" on="1"/>
        <pt x="455" y="1549" on="0"/>
        <pt x="455" y="1466" on="0"/>
        <pt x="493" y="1387" on="1"/>
        <pt x="430" y="1356" on="1"/>
      </contour>
    </TTGlyph>
    <TTGlyph name="Etaiotasubasperacute" xMin="366" yMin="-396" xMax="1802" yMax="1780">
      <contour>
        <pt x="870" y="-348" on="1"/>
        <pt x="884" y="-195" on="1"/>
        <pt x="893" y="-154" on="0"/>
        <pt x="948" y="-120" on="0"/>
        <pt x="970" y="-120" on="1"/>
        <pt x="975" y="-120" on="1"/>
        <pt x="1007" y="-120" on="0"/>
        <pt x="1020" y="-139" on="1"/>
        <pt x="1040" y="-159" on="0"/>
        <pt x="1032" y="-196" on="1"/>
        <pt x="978" y="-348" on="1"/>
        <pt x="971" y="-371" on="0"/>
        <pt x="930" y="-396" on="0"/>
        <pt x="891" y="-396" on="0"/>
        <pt x="874" y="-377" on="0"/>
        <pt x="868" y="-367" on="0"/>
      </contour>
      <contour>
        <pt x="825" y="1456" on="1"/>
        <pt x="983" y="1456" on="1"/>
        <pt x="847" y="815" on="1"/>
        <pt x="1508" y="815" on="1"/>
        <pt x="1644" y="1456" on="1"/>
        <pt x="1802" y="1456" on="1"/>
        <pt x="1493" y="0" on="1"/>
        <pt x="1335" y="0" on="1"/>
        <pt x="1478" y="674" on="1"/>
        <pt x="817" y="674" on="1"/>
        <pt x="674" y="0" on="1"/>
        <pt x="516" y="0" on="1"/>
      </contour>
      <contour>
        <pt x="416" y="1385" on="1"/>
        <pt x="366" y="1492" on="0"/>
        <pt x="366" y="1656" on="0"/>
        <pt x="396" y="1728" on="0"/>
        <pt x="466" y="1779" on="0"/>
        <pt x="550" y="1779" on="0"/>
        <pt x="593" y="1726" on="0"/>
        <pt x="593" y="1704" on="1"/>
        <pt x="593" y="1669" on="0"/>
        <pt x="569" y="1614" on="0"/>
        <pt x="501" y="1565" on="0"/>
        <pt x="460" y="1565" on="1"/>
        <pt x="456" y="1549" on="0"/>
        <pt x="456" y="1466" on="0"/>
        <pt x="494" y="1387" on="1"/>
        <pt x="431" y="1356" on="1"/>
      </contour>
      <contour>
        <pt x="644" y="1427" on="1"/>
        <pt x="630" y="1418" on="0"/>
        <pt x="588" y="1418" on="0"/>
        <pt x="568" y="1454" on="0"/>
        <pt x="568" y="1489" on="0"/>
        <pt x="593" y="1512" on="1"/>
        <pt x="928" y="1762" on="1"/>
        <pt x="954" y="1780" on="0"/>
        <pt x="972" y="1780" on="1"/>
        <pt x="1016" y="1780" on="0"/>
        <pt x="1031" y="1750" on="1"/>
        <pt x="1040" y="1736" on="0"/>
        <pt x="1040" y="1725" on="1"/>
        <pt x="1040" y="1678" on="0"/>
        <pt x="996" y="1646" on="1"/>
      </contour>
    </TTGlyph>
    <TTGlyph name="Etaiotasubaspergrave" xMin="365" yMin="-396" xMax="2011" yMax="1780">
      <contour>
        <pt x="651" y="1646" on="1"/>
        <pt x="633" y="1666" on="0"/>
        <pt x="633" y="1704" on="1"/>
        <pt x="639" y="1731" on="0"/>
        <pt x="660" y="1752" on="1"/>
        <pt x="689" y="1780" on="0"/>
        <pt x="751" y="1780" on="0"/>
        <pt x="769" y="1762" on="1"/>
        <pt x="996" y="1512" on="1"/>
        <pt x="1005" y="1502" on="0"/>
        <pt x="1005" y="1489" on="1"/>
        <pt x="1005" y="1475" on="1"/>
        <pt x="1001" y="1459" on="0"/>
        <pt x="984" y="1442" on="1"/>
        <pt x="962" y="1418" on="0"/>
        <pt x="920" y="1418" on="0"/>
        <pt x="909" y="1427" on="1"/>
      </contour>
      <contour>
        <pt x="1079" y="-348" on="1"/>
        <pt x="1093" y="-195" on="1"/>
        <pt x="1102" y="-154" on="0"/>
        <pt x="1157" y="-120" on="0"/>
        <pt x="1179" y="-120" on="1"/>
        <pt x="1184" y="-120" on="1"/>
        <pt x="1216" y="-120" on="0"/>
        <pt x="1229" y="-139" on="1"/>
        <pt x="1249" y="-159" on="0"/>
        <pt x="1241" y="-196" on="1"/>
        <pt x="1187" y="-348" on="1"/>
        <pt x="1180" y="-371" on="0"/>
        <pt x="1140" y="-396" on="0"/>
        <pt x="1100" y="-396" on="0"/>
        <pt x="1083" y="-377" on="0"/>
        <pt x="1077" y="-367" on="0"/>
      </contour>
      <contour>
        <pt x="1034" y="1456" on="1"/>
        <pt x="1192" y="1456" on="1"/>
        <pt x="1056" y="815" on="1"/>
        <pt x="1717" y="815" on="1"/>
        <pt x="1853" y="1456" on="1"/>
        <pt x="2011" y="1456" on="1"/>
        <pt x="1702" y="0" on="1"/>
        <pt x="1544" y="0" on="1"/>
        <pt x="1687" y="674" on="1"/>
        <pt x="1026" y="674" on="1"/>
        <pt x="883" y="0" on="1"/>
        <pt x="725" y="0" on="1"/>
      </contour>
      <contour>
        <pt x="415" y="1385" on="1"/>
        <pt x="365" y="1492" on="0"/>
        <pt x="365" y="1656" on="0"/>
        <pt x="395" y="1728" on="0"/>
        <pt x="465" y="1779" on="0"/>
        <pt x="549" y="1779" on="0"/>
        <pt x="592" y="1726" on="0"/>
        <pt x="592" y="1704" on="1"/>
        <pt x="592" y="1669" on="0"/>
        <pt x="568" y="1614" on="0"/>
        <pt x="500" y="1565" on="0"/>
        <pt x="459" y="1565" on="1"/>
        <pt x="455" y="1549" on="0"/>
        <pt x="455" y="1466" on="0"/>
        <pt x="493" y="1387" on="1"/>
        <pt x="430" y="1356" on="1"/>
      </contour>
    </TTGlyph>
    <TTGlyph name="Etaiotasubaspertilde" xMin="365" yMin="-396" xMax="1659" yMax="1779">
      <contour>
        <pt x="727" y="-348" on="1"/>
        <pt x="741" y="-195" on="1"/>
        <pt x="750" y="-154" on="0"/>
        <pt x="805" y="-120" on="0"/>
        <pt x="827" y="-120" on="1"/>
        <pt x="832" y="-120" on="1"/>
        <pt x="864" y="-120" on="0"/>
        <pt x="877" y="-139" on="1"/>
        <pt x="897" y="-159" on="0"/>
        <pt x="889" y="-196" on="1"/>
        <pt x="835" y="-348" on="1"/>
        <pt x="828" y="-371" on="0"/>
        <pt x="788" y="-396" on="0"/>
        <pt x="748" y="-396" on="0"/>
        <pt x="731" y="-377" on="0"/>
        <pt x="725" y="-367" on="0"/>
      </contour>
      <contour>
        <pt x="682" y="1456" on="1"/>
        <pt x="840" y="1456" on="1"/>
        <pt x="704" y="815" on="1"/>
        <pt x="1365" y="815" on="1"/>
        <pt x="1501" y="1456" on="1"/>
        <pt x="1659" y="1456" on="1"/>
        <pt x="1350" y="0" on="1"/>
        <pt x="1192" y="0" on="1"/>
        <pt x="1335" y="674" on="1"/>
        <pt x="674" y="674" on="1"/>
        <pt x="531" y="0" on="1"/>
        <pt x="373" y="0" on="1"/>
      </contour>
      <contour>
        <pt x="613" y="1682" on="1"/>
        <pt x="630" y="1693" on="0"/>
        <pt x="665" y="1719" on="1"/>
        <pt x="744" y="1778" on="0"/>
        <pt x="816" y="1778" on="1"/>
        <pt x="865" y="1778" on="0"/>
        <pt x="911" y="1724" on="1"/>
        <pt x="917" y="1717" on="0"/>
        <pt x="943" y="1688" on="0"/>
        <pt x="956" y="1672" on="1"/>
        <pt x="994" y="1627" on="0"/>
        <pt x="1038" y="1627" on="1"/>
        <pt x="1111" y="1627" on="0"/>
        <pt x="1189" y="1680" on="1"/>
        <pt x="1197" y="1685" on="0"/>
        <pt x="1259" y="1725" on="1"/>
        <pt x="1228" y="1580" on="1"/>
        <pt x="1178" y="1548" on="0"/>
        <pt x="1127" y="1511" on="0"/>
        <pt x="1052" y="1481" on="0"/>
        <pt x="1019" y="1481" on="1"/>
        <pt x="958" y="1481" on="0"/>
        <pt x="909" y="1534" on="1"/>
        <pt x="907" y="1536" on="0"/>
        <pt x="877" y="1570" on="1"/>
        <pt x="823" y="1633" on="0"/>
        <pt x="785" y="1633" on="1"/>
        <pt x="714" y="1633" on="0"/>
        <pt x="646" y="1582" on="1"/>
        <pt x="627" y="1568" on="0"/>
        <pt x="581" y="1536" on="1"/>
      </contour>
      <contour>
        <pt x="415" y="1385" on="1"/>
        <pt x="365" y="1492" on="0"/>
        <pt x="365" y="1656" on="0"/>
        <pt x="395" y="1728" on="0"/>
        <pt x="465" y="1779" on="0"/>
        <pt x="549" y="1779" on="0"/>
        <pt x="592" y="1726" on="0"/>
        <pt x="592" y="1704" on="1"/>
        <pt x="592" y="1669" on="0"/>
        <pt x="568" y="1614" on="0"/>
        <pt x="500" y="1565" on="0"/>
        <pt x="459" y="1565" on="1"/>
        <pt x="455" y="1549" on="0"/>
        <pt x="455" y="1466" on="0"/>
        <pt x="493" y="1387" on="1"/>
        <pt x="430" y="1356" on="1"/>
      </contour>
    </TTGlyph>
    <TTGlyph name="Etaiotasublenis" xMin="253" yMin="-396" xMax="1539" yMax="1779">
      <contour>
        <pt x="607" y="-348" on="1"/>
        <pt x="621" y="-195" on="1"/>
        <pt x="630" y="-154" on="0"/>
        <pt x="685" y="-120" on="0"/>
        <pt x="707" y="-120" on="1"/>
        <pt x="712" y="-120" on="1"/>
        <pt x="744" y="-120" on="0"/>
        <pt x="757" y="-139" on="1"/>
        <pt x="777" y="-159" on="0"/>
        <pt x="769" y="-196" on="1"/>
        <pt x="715" y="-348" on="1"/>
        <pt x="708" y="-371" on="0"/>
        <pt x="667" y="-396" on="0"/>
        <pt x="628" y="-396" on="0"/>
        <pt x="611" y="-377" on="0"/>
        <pt x="605" y="-367" on="0"/>
      </contour>
      <contour>
        <pt x="562" y="1456" on="1"/>
        <pt x="720" y="1456" on="1"/>
        <pt x="584" y="815" on="1"/>
        <pt x="1245" y="815" on="1"/>
        <pt x="1381" y="1456" on="1"/>
        <pt x="1539" y="1456" on="1"/>
        <pt x="1230" y="0" on="1"/>
        <pt x="1072" y="0" on="1"/>
        <pt x="1215" y="674" on="1"/>
        <pt x="554" y="674" on="1"/>
        <pt x="411" y="0" on="1"/>
        <pt x="253" y="0" on="1"/>
      </contour>
      <contour>
        <pt x="374" y="1671" on="1"/>
        <pt x="383" y="1714" on="0"/>
        <pt x="460" y="1779" on="0"/>
        <pt x="543" y="1779" on="0"/>
        <pt x="592" y="1730" on="0"/>
        <pt x="592" y="1656" on="0"/>
        <pt x="542" y="1538" on="0"/>
        <pt x="498" y="1474" on="0"/>
        <pt x="471" y="1438" on="1"/>
        <pt x="426" y="1385" on="1"/>
        <pt x="399" y="1356" on="1"/>
        <pt x="350" y="1387" on="1"/>
        <pt x="443" y="1489" on="0"/>
        <pt x="460" y="1565" on="1"/>
        <pt x="420" y="1565" on="0"/>
        <pt x="373" y="1612" on="0"/>
        <pt x="373" y="1649" on="1"/>
        <pt x="371" y="1660" on="0"/>
      </contour>
    </TTGlyph>
    <TTGlyph name="Etaiotasublenisacute" xMin="350" yMin="-396" xMax="2023" yMax="1780">
      <contour>
        <pt x="656" y="1646" on="1"/>
        <pt x="638" y="1666" on="0"/>
        <pt x="638" y="1704" on="1"/>
        <pt x="644" y="1731" on="0"/>
        <pt x="665" y="1752" on="1"/>
        <pt x="694" y="1780" on="0"/>
        <pt x="756" y="1780" on="0"/>
        <pt x="774" y="1762" on="1"/>
        <pt x="1001" y="1512" on="1"/>
        <pt x="1010" y="1502" on="0"/>
        <pt x="1010" y="1489" on="1"/>
        <pt x="1010" y="1475" on="1"/>
        <pt x="1006" y="1459" on="0"/>
        <pt x="990" y="1442" on="1"/>
        <pt x="967" y="1418" on="0"/>
        <pt x="924" y="1418" on="0"/>
        <pt x="914" y="1427" on="1"/>
      </contour>
      <contour>
        <pt x="1091" y="-348" on="1"/>
        <pt x="1105" y="-195" on="1"/>
        <pt x="1114" y="-154" on="0"/>
        <pt x="1169" y="-120" on="0"/>
        <pt x="1191" y="-120" on="1"/>
        <pt x="1196" y="-120" on="1"/>
        <pt x="1228" y="-120" on="0"/>
        <pt x="1241" y="-139" on="1"/>
        <pt x="1261" y="-159" on="0"/>
        <pt x="1253" y="-196" on="1"/>
        <pt x="1199" y="-348" on="1"/>
        <pt x="1192" y="-371" on="0"/>
        <pt x="1152" y="-396" on="0"/>
        <pt x="1112" y="-396" on="0"/>
        <pt x="1095" y="-377" on="0"/>
        <pt x="1089" y="-367" on="0"/>
      </contour>
      <contour>
        <pt x="1046" y="1456" on="1"/>
        <pt x="1204" y="1456" on="1"/>
        <pt x="1068" y="815" on="1"/>
        <pt x="1729" y="815" on="1"/>
        <pt x="1865" y="1456" on="1"/>
        <pt x="2023" y="1456" on="1"/>
        <pt x="1714" y="0" on="1"/>
        <pt x="1556" y="0" on="1"/>
        <pt x="1699" y="674" on="1"/>
        <pt x="1038" y="674" on="1"/>
        <pt x="895" y="0" on="1"/>
        <pt x="737" y="0" on="1"/>
      </contour>
      <contour>
        <pt x="374" y="1671" on="1"/>
        <pt x="383" y="1714" on="0"/>
        <pt x="460" y="1779" on="0"/>
        <pt x="543" y="1779" on="0"/>
        <pt x="592" y="1730" on="0"/>
        <pt x="592" y="1656" on="0"/>
        <pt x="542" y="1538" on="0"/>
        <pt x="498" y="1474" on="0"/>
        <pt x="471" y="1438" on="1"/>
        <pt x="426" y="1385" on="1"/>
        <pt x="399" y="1356" on="1"/>
        <pt x="350" y="1387" on="1"/>
        <pt x="443" y="1489" on="0"/>
        <pt x="460" y="1565" on="1"/>
        <pt x="420" y="1565" on="0"/>
        <pt x="373" y="1612" on="0"/>
        <pt x="373" y="1649" on="1"/>
        <pt x="371" y="1660" on="0"/>
      </contour>
    </TTGlyph>
    <TTGlyph name="Etaiotasublenisgrave" xMin="350" yMin="-396" xMax="2027" yMax="1779">
      <contour>
        <pt x="374" y="1671" on="1"/>
        <pt x="383" y="1714" on="0"/>
        <pt x="460" y="1779" on="0"/>
        <pt x="543" y="1779" on="0"/>
        <pt x="592" y="1730" on="0"/>
        <pt x="592" y="1656" on="0"/>
        <pt x="542" y="1538" on="0"/>
        <pt x="498" y="1474" on="0"/>
        <pt x="471" y="1438" on="1"/>
        <pt x="426" y="1385" on="1"/>
        <pt x="399" y="1356" on="1"/>
        <pt x="350" y="1387" on="1"/>
        <pt x="443" y="1489" on="0"/>
        <pt x="460" y="1565" on="1"/>
        <pt x="420" y="1565" on="0"/>
        <pt x="373" y="1612" on="0"/>
        <pt x="373" y="1649" on="1"/>
        <pt x="371" y="1660" on="0"/>
      </contour>
      <contour>
        <pt x="1095" y="-348" on="1"/>
        <pt x="1109" y="-195" on="1"/>
        <pt x="1118" y="-154" on="0"/>
        <pt x="1173" y="-120" on="0"/>
        <pt x="1195" y="-120" on="1"/>
        <pt x="1200" y="-120" on="1"/>
        <pt x="1232" y="-120" on="0"/>
        <pt x="1245" y="-139" on="1"/>
        <pt x="1265" y="-159" on="0"/>
        <pt x="1257" y="-196" on="1"/>
        <pt x="1203" y="-348" on="1"/>
        <pt x="1196" y="-371" on="0"/>
        <pt x="1156" y="-396" on="0"/>
        <pt x="1116" y="-396" on="0"/>
        <pt x="1099" y="-377" on="0"/>
        <pt x="1093" y="-367" on="0"/>
      </contour>
      <contour>
        <pt x="1050" y="1456" on="1"/>
        <pt x="1208" y="1456" on="1"/>
        <pt x="1072" y="815" on="1"/>
        <pt x="1733" y="815" on="1"/>
        <pt x="1869" y="1456" on="1"/>
        <pt x="2027" y="1456" on="1"/>
        <pt x="1718" y="0" on="1"/>
        <pt x="1560" y="0" on="1"/>
        <pt x="1703" y="674" on="1"/>
        <pt x="1042" y="674" on="1"/>
        <pt x="899" y="0" on="1"/>
        <pt x="741" y="0" on="1"/>
      </contour>
      <contour>
        <pt x="1001" y="1510" on="1"/>
        <pt x="1010" y="1498" on="0"/>
        <pt x="1010" y="1488" on="1"/>
        <pt x="1010" y="1462" on="0"/>
        <pt x="992" y="1442" on="1"/>
        <pt x="967" y="1416" on="0"/>
        <pt x="924" y="1416" on="0"/>
        <pt x="914" y="1425" on="1"/>
        <pt x="655" y="1644" on="1"/>
        <pt x="639" y="1662" on="0"/>
        <pt x="637" y="1685" on="1"/>
        <pt x="637" y="1694" on="1"/>
        <pt x="637" y="1723" on="0"/>
        <pt x="665" y="1748" on="1"/>
        <pt x="692" y="1778" on="0"/>
        <pt x="755" y="1778" on="0"/>
        <pt x="773" y="1760" on="1"/>
      </contour>
    </TTGlyph>
    <TTGlyph name="Etaiotasublenistilde" xMin="350" yMin="-396" xMax="1659" yMax="1780">
      <contour>
        <pt x="727" y="-348" on="1"/>
        <pt x="741" y="-195" on="1"/>
        <pt x="750" y="-154" on="0"/>
        <pt x="805" y="-120" on="0"/>
        <pt x="827" y="-120" on="1"/>
        <pt x="832" y="-120" on="1"/>
        <pt x="864" y="-120" on="0"/>
        <pt x="877" y="-139" on="1"/>
        <pt x="897" y="-159" on="0"/>
        <pt x="889" y="-196" on="1"/>
        <pt x="835" y="-348" on="1"/>
        <pt x="828" y="-371" on="0"/>
        <pt x="788" y="-396" on="0"/>
        <pt x="748" y="-396" on="0"/>
        <pt x="731" y="-377" on="0"/>
        <pt x="725" y="-367" on="0"/>
      </contour>
      <contour>
        <pt x="682" y="1456" on="1"/>
        <pt x="840" y="1456" on="1"/>
        <pt x="704" y="815" on="1"/>
        <pt x="1365" y="815" on="1"/>
        <pt x="1501" y="1456" on="1"/>
        <pt x="1659" y="1456" on="1"/>
        <pt x="1350" y="0" on="1"/>
        <pt x="1192" y="0" on="1"/>
        <pt x="1335" y="674" on="1"/>
        <pt x="674" y="674" on="1"/>
        <pt x="531" y="0" on="1"/>
        <pt x="373" y="0" on="1"/>
      </contour>
      <contour>
        <pt x="374" y="1671" on="1"/>
        <pt x="383" y="1714" on="0"/>
        <pt x="460" y="1779" on="0"/>
        <pt x="543" y="1779" on="0"/>
        <pt x="592" y="1730" on="0"/>
        <pt x="592" y="1656" on="0"/>
        <pt x="542" y="1538" on="0"/>
        <pt x="498" y="1474" on="0"/>
        <pt x="471" y="1438" on="1"/>
        <pt x="426" y="1385" on="1"/>
        <pt x="399" y="1356" on="1"/>
        <pt x="350" y="1387" on="1"/>
        <pt x="443" y="1489" on="0"/>
        <pt x="460" y="1565" on="1"/>
        <pt x="420" y="1565" on="0"/>
        <pt x="373" y="1612" on="0"/>
        <pt x="373" y="1649" on="1"/>
        <pt x="371" y="1660" on="0"/>
      </contour>
      <contour>
        <pt x="649" y="1684" on="1"/>
        <pt x="674" y="1701" on="0"/>
        <pt x="706" y="1724" on="1"/>
        <pt x="782" y="1780" on="0"/>
        <pt x="852" y="1780" on="1"/>
        <pt x="903" y="1780" on="0"/>
        <pt x="948" y="1726" on="1"/>
        <pt x="955" y="1718" on="0"/>
        <pt x="981" y="1689" on="0"/>
        <pt x="994" y="1673" on="1"/>
        <pt x="1032" y="1629" on="0"/>
        <pt x="1075" y="1629" on="1"/>
        <pt x="1146" y="1629" on="0"/>
        <pt x="1226" y="1682" on="1"/>
        <pt x="1258" y="1703" on="0"/>
        <pt x="1295" y="1727" on="1"/>
        <pt x="1264" y="1582" on="1"/>
        <pt x="1214" y="1550" on="0"/>
        <pt x="1188" y="1532" on="1"/>
        <pt x="1122" y="1483" on="0"/>
        <pt x="1072" y="1483" on="1"/>
        <pt x="994" y="1483" on="0"/>
        <pt x="945" y="1536" on="1"/>
        <pt x="943" y="1538" on="0"/>
        <pt x="913" y="1572" on="1"/>
        <pt x="859" y="1635" on="0"/>
        <pt x="821" y="1635" on="1"/>
        <pt x="753" y="1635" on="0"/>
        <pt x="683" y="1584" on="1"/>
        <pt x="664" y="1570" on="0"/>
        <pt x="618" y="1538" on="1"/>
      </contour>
    </TTGlyph>
    <TTGlyph name="Etalenis" xMin="253" yMin="0" xMax="1539" yMax="1779">
      <contour>
        <pt x="562" y="1456" on="1"/>
        <pt x="720" y="1456" on="1"/>
        <pt x="584" y="815" on="1"/>
        <pt x="1245" y="815" on="1"/>
        <pt x="1381" y="1456" on="1"/>
        <pt x="1539" y="1456" on="1"/>
        <pt x="1230" y="0" on="1"/>
        <pt x="1072" y="0" on="1"/>
        <pt x="1215" y="674" on="1"/>
        <pt x="554" y="674" on="1"/>
        <pt x="411" y="0" on="1"/>
        <pt x="253" y="0" on="1"/>
      </contour>
      <contour>
        <pt x="374" y="1671" on="1"/>
        <pt x="383" y="1714" on="0"/>
        <pt x="460" y="1779" on="0"/>
        <pt x="543" y="1779" on="0"/>
        <pt x="592" y="1730" on="0"/>
        <pt x="592" y="1656" on="0"/>
        <pt x="542" y="1538" on="0"/>
        <pt x="498" y="1474" on="0"/>
        <pt x="471" y="1438" on="1"/>
        <pt x="426" y="1385" on="1"/>
        <pt x="399" y="1356" on="1"/>
        <pt x="350" y="1387" on="1"/>
        <pt x="443" y="1489" on="0"/>
        <pt x="460" y="1565" on="1"/>
        <pt x="420" y="1565" on="0"/>
        <pt x="373" y="1612" on="0"/>
        <pt x="373" y="1649" on="1"/>
        <pt x="371" y="1660" on="0"/>
      </contour>
    </TTGlyph>
    <TTGlyph name="Etalenisacute" xMin="350" yMin="0" xMax="1812" yMax="1779">
      <contour>
        <pt x="835" y="1456" on="1"/>
        <pt x="993" y="1456" on="1"/>
        <pt x="857" y="815" on="1"/>
        <pt x="1518" y="815" on="1"/>
        <pt x="1654" y="1456" on="1"/>
        <pt x="1812" y="1456" on="1"/>
        <pt x="1503" y="0" on="1"/>
        <pt x="1345" y="0" on="1"/>
        <pt x="1488" y="674" on="1"/>
        <pt x="827" y="674" on="1"/>
        <pt x="684" y="0" on="1"/>
        <pt x="526" y="0" on="1"/>
      </contour>
      <contour>
        <pt x="606" y="1511" on="1"/>
        <pt x="940" y="1761" on="1"/>
        <pt x="966" y="1779" on="0"/>
        <pt x="985" y="1779" on="1"/>
        <pt x="1029" y="1779" on="0"/>
        <pt x="1044" y="1749" on="1"/>
        <pt x="1053" y="1736" on="0"/>
        <pt x="1053" y="1713" on="0"/>
        <pt x="1051" y="1700" on="0"/>
        <pt x="1050" y="1697" on="1"/>
        <pt x="1047" y="1692" on="0"/>
        <pt x="1033" y="1662" on="0"/>
        <pt x="1009" y="1645" on="1"/>
        <pt x="657" y="1426" on="1"/>
        <pt x="644" y="1417" on="0"/>
        <pt x="635" y="1417" on="1"/>
        <pt x="601" y="1417" on="0"/>
        <pt x="590" y="1437" on="1"/>
        <pt x="574" y="1465" on="0"/>
        <pt x="593" y="1499" on="0"/>
      </contour>
      <contour>
        <pt x="374" y="1671" on="1"/>
        <pt x="383" y="1714" on="0"/>
        <pt x="460" y="1779" on="0"/>
        <pt x="543" y="1779" on="0"/>
        <pt x="592" y="1730" on="0"/>
        <pt x="592" y="1656" on="0"/>
        <pt x="542" y="1538" on="0"/>
        <pt x="498" y="1474" on="0"/>
        <pt x="471" y="1438" on="1"/>
        <pt x="426" y="1385" on="1"/>
        <pt x="399" y="1356" on="1"/>
        <pt x="350" y="1387" on="1"/>
        <pt x="443" y="1489" on="0"/>
        <pt x="460" y="1565" on="1"/>
        <pt x="420" y="1565" on="0"/>
        <pt x="373" y="1612" on="0"/>
        <pt x="373" y="1649" on="1"/>
        <pt x="371" y="1660" on="0"/>
      </contour>
    </TTGlyph>
    <TTGlyph name="Etalenisgrave" xMin="350" yMin="0" xMax="2027" yMax="1780">
      <contour>
        <pt x="1050" y="1456" on="1"/>
        <pt x="1208" y="1456" on="1"/>
        <pt x="1072" y="815" on="1"/>
        <pt x="1733" y="815" on="1"/>
        <pt x="1869" y="1456" on="1"/>
        <pt x="2027" y="1456" on="1"/>
        <pt x="1718" y="0" on="1"/>
        <pt x="1560" y="0" on="1"/>
        <pt x="1703" y="674" on="1"/>
        <pt x="1042" y="674" on="1"/>
        <pt x="899" y="0" on="1"/>
        <pt x="741" y="0" on="1"/>
      </contour>
      <contour>
        <pt x="653" y="1646" on="1"/>
        <pt x="635" y="1666" on="0"/>
        <pt x="635" y="1704" on="1"/>
        <pt x="641" y="1731" on="0"/>
        <pt x="662" y="1752" on="1"/>
        <pt x="691" y="1780" on="0"/>
        <pt x="753" y="1780" on="0"/>
        <pt x="771" y="1762" on="1"/>
        <pt x="998" y="1512" on="1"/>
        <pt x="1008" y="1499" on="0"/>
        <pt x="1008" y="1489" on="1"/>
        <pt x="1008" y="1465" on="0"/>
        <pt x="989" y="1444" on="1"/>
        <pt x="964" y="1418" on="0"/>
        <pt x="922" y="1418" on="0"/>
        <pt x="911" y="1427" on="1"/>
      </contour>
      <contour>
        <pt x="374" y="1671" on="1"/>
        <pt x="383" y="1714" on="0"/>
        <pt x="460" y="1779" on="0"/>
        <pt x="543" y="1779" on="0"/>
        <pt x="592" y="1730" on="0"/>
        <pt x="592" y="1656" on="0"/>
        <pt x="542" y="1538" on="0"/>
        <pt x="498" y="1474" on="0"/>
        <pt x="471" y="1438" on="1"/>
        <pt x="426" y="1385" on="1"/>
        <pt x="399" y="1356" on="1"/>
        <pt x="350" y="1387" on="1"/>
        <pt x="443" y="1489" on="0"/>
        <pt x="460" y="1565" on="1"/>
        <pt x="420" y="1565" on="0"/>
        <pt x="373" y="1612" on="0"/>
        <pt x="373" y="1649" on="1"/>
        <pt x="371" y="1660" on="0"/>
      </contour>
    </TTGlyph>
    <TTGlyph name="Etalenistilde" xMin="350" yMin="0" xMax="1812" yMax="1780">
      <contour>
        <pt x="835" y="1456" on="1"/>
        <pt x="993" y="1456" on="1"/>
        <pt x="857" y="815" on="1"/>
        <pt x="1518" y="815" on="1"/>
        <pt x="1654" y="1456" on="1"/>
        <pt x="1812" y="1456" on="1"/>
        <pt x="1503" y="0" on="1"/>
        <pt x="1345" y="0" on="1"/>
        <pt x="1488" y="674" on="1"/>
        <pt x="827" y="674" on="1"/>
        <pt x="684" y="0" on="1"/>
        <pt x="526" y="0" on="1"/>
      </contour>
      <contour>
        <pt x="374" y="1671" on="1"/>
        <pt x="383" y="1714" on="0"/>
        <pt x="460" y="1779" on="0"/>
        <pt x="543" y="1779" on="0"/>
        <pt x="592" y="1730" on="0"/>
        <pt x="592" y="1656" on="0"/>
        <pt x="542" y="1538" on="0"/>
        <pt x="498" y="1474" on="0"/>
        <pt x="471" y="1438" on="1"/>
        <pt x="426" y="1385" on="1"/>
        <pt x="399" y="1356" on="1"/>
        <pt x="350" y="1387" on="1"/>
        <pt x="443" y="1489" on="0"/>
        <pt x="460" y="1565" on="1"/>
        <pt x="420" y="1565" on="0"/>
        <pt x="373" y="1612" on="0"/>
        <pt x="373" y="1649" on="1"/>
        <pt x="371" y="1660" on="0"/>
      </contour>
      <contour>
        <pt x="621" y="1684" on="1"/>
        <pt x="646" y="1701" on="0"/>
        <pt x="678" y="1724" on="1"/>
        <pt x="754" y="1780" on="0"/>
        <pt x="824" y="1780" on="1"/>
        <pt x="875" y="1780" on="0"/>
        <pt x="920" y="1726" on="1"/>
        <pt x="935" y="1706" on="0"/>
        <pt x="957" y="1682" on="1"/>
        <pt x="1006" y="1629" on="0"/>
        <pt x="1048" y="1629" on="1"/>
        <pt x="1118" y="1629" on="0"/>
        <pt x="1198" y="1682" on="1"/>
        <pt x="1230" y="1703" on="0"/>
        <pt x="1267" y="1727" on="1"/>
        <pt x="1236" y="1582" on="1"/>
        <pt x="1186" y="1550" on="0"/>
        <pt x="1160" y="1532" on="1"/>
        <pt x="1094" y="1483" on="0"/>
        <pt x="1044" y="1483" on="1"/>
        <pt x="966" y="1483" on="0"/>
        <pt x="917" y="1536" on="1"/>
        <pt x="915" y="1538" on="0"/>
        <pt x="885" y="1572" on="1"/>
        <pt x="831" y="1635" on="0"/>
        <pt x="793" y="1635" on="1"/>
        <pt x="725" y="1635" on="0"/>
        <pt x="655" y="1584" on="1"/>
        <pt x="636" y="1570" on="0"/>
        <pt x="590" y="1538" on="1"/>
      </contour>
    </TTGlyph>
    <TTGlyph name="Etatonos" xMin="219" yMin="0" xMax="1505" yMax="1776">
      <contour>
        <pt x="340" y="1417" on="1"/>
        <pt x="332" y="1434" on="0"/>
        <pt x="336" y="1452" on="1"/>
        <pt x="398" y="1708" on="1"/>
        <pt x="412" y="1749" on="0"/>
        <pt x="465" y="1776" on="0"/>
        <pt x="491" y="1776" on="0"/>
        <pt x="508" y="1774" on="1"/>
        <pt x="528" y="1772" on="0"/>
        <pt x="550" y="1721" on="0"/>
        <pt x="548" y="1710" on="1"/>
        <pt x="545" y="1697" on="0"/>
        <pt x="543" y="1692" on="1"/>
        <pt x="441" y="1441" on="1"/>
        <pt x="425" y="1399" on="0"/>
        <pt x="378" y="1399" on="1"/>
        <pt x="372" y="1399" on="1"/>
        <pt x="351" y="1402" on="0"/>
      </contour>
      <contour>
        <pt x="528" y="1456" on="1"/>
        <pt x="686" y="1456" on="1"/>
        <pt x="550" y="815" on="1"/>
        <pt x="1211" y="815" on="1"/>
        <pt x="1347" y="1456" on="1"/>
        <pt x="1505" y="1456" on="1"/>
        <pt x="1196" y="0" on="1"/>
        <pt x="1038" y="0" on="1"/>
        <pt x="1181" y="674" on="1"/>
        <pt x="520" y="674" on="1"/>
        <pt x="377" y="0" on="1"/>
        <pt x="219" y="0" on="1"/>
      </contour>
    </TTGlyph>
    <TTGlyph name="Eth" xMin="285" yMin="0" xMax="1488" yMax="1456">
      <contour>
        <pt x="467" y="662" on="1"/>
        <pt x="285" y="662" on="1"/>
        <pt x="315" y="803" on="1"/>
        <pt x="497" y="803" on="1"/>
        <pt x="635" y="1456" on="1"/>
        <pt x="1016" y="1456" on="1"/>
        <pt x="1238" y="1456" on="0"/>
        <pt x="1488" y="1165" on="0"/>
        <pt x="1488" y="929" on="1"/>
        <pt x="1488" y="676" on="0"/>
        <pt x="1360" y="442" on="1"/>
        <pt x="1212" y="168" on="0"/>
        <pt x="964" y="56" on="1"/>
        <pt x="839" y="0" on="0"/>
        <pt x="707" y="0" on="1"/>
        <pt x="326" y="0" on="1"/>
      </contour>
      <contour>
        <pt x="624" y="662" on="1"/>
        <pt x="513" y="143" on="1"/>
        <pt x="737" y="143" on="1"/>
        <pt x="931" y="143" on="0"/>
        <pt x="1253" y="468" on="0"/>
        <pt x="1308" y="726" on="1"/>
        <pt x="1328" y="821" on="0"/>
        <pt x="1328" y="899" on="1"/>
        <pt x="1328" y="1088" on="0"/>
        <pt x="1145" y="1312" on="0"/>
        <pt x="986" y="1312" on="1"/>
        <pt x="762" y="1312" on="1"/>
        <pt x="654" y="803" on="1"/>
        <pt x="954" y="803" on="1"/>
        <pt x="924" y="662" on="1"/>
      </contour>
    </TTGlyph>
    <TTGlyph name="Euro" xMin="243" yMin="211" xMax="1178" yMax="1196">
      <contour>
        <pt x="432" y="762" on="1"/>
        <pt x="303" y="762" on="1"/>
        <pt x="332" y="897" on="1"/>
        <pt x="485" y="897" on="1"/>
        <pt x="553" y="1032" on="0"/>
        <pt x="766" y="1196" on="0"/>
        <pt x="1004" y="1196" on="0"/>
        <pt x="1118" y="1138" on="0"/>
        <pt x="1178" y="1063" on="1"/>
        <pt x="1062" y="967" on="1"/>
        <pt x="1022" y="1018" on="0"/>
        <pt x="944" y="1061" on="0"/>
        <pt x="874" y="1061" on="1"/>
        <pt x="745" y="1061" on="0"/>
        <pt x="642" y="897" on="1"/>
        <pt x="912" y="897" on="1"/>
        <pt x="883" y="762" on="1"/>
        <pt x="577" y="762" on="1"/>
        <pt x="557" y="696" on="0"/>
        <pt x="552" y="645" on="1"/>
        <pt x="852" y="645" on="1"/>
        <pt x="823" y="510" on="1"/>
        <pt x="558" y="510" on="1"/>
        <pt x="575" y="434" on="0"/>
        <pt x="663" y="346" on="0"/>
        <pt x="780" y="346" on="0"/>
        <pt x="881" y="389" on="0"/>
        <pt x="957" y="457" on="1"/>
        <pt x="1033" y="360" on="1"/>
        <pt x="908" y="244" on="0"/>
        <pt x="803" y="222" on="1"/>
        <pt x="750" y="211" on="0"/>
        <pt x="682" y="211" on="1"/>
        <pt x="550" y="211" on="0"/>
        <pt x="411" y="375" on="0"/>
        <pt x="402" y="510" on="1"/>
        <pt x="243" y="510" on="1"/>
        <pt x="272" y="645" on="1"/>
        <pt x="408" y="645" on="1"/>
        <pt x="417" y="711" on="0"/>
      </contour>
    </TTGlyph>
    <TTGlyph name="F" xMin="121" yMin="0" xMax="1351" yMax="1456">
      <contour>
        <pt x="430" y="1456" on="1"/>
        <pt x="1351" y="1456" on="1"/>
        <pt x="1322" y="1315" on="1"/>
        <pt x="559" y="1315" on="1"/>
        <pt x="453" y="817" on="1"/>
        <pt x="1173" y="817" on="1"/>
        <pt x="1143" y="676" on="1"/>
        <pt x="423" y="676" on="1"/>
        <pt x="279" y="0" on="1"/>
        <pt x="121" y="0" on="1"/>
      </contour>
    </TTGlyph>
    <TTGlyph name="Fdotaccent" xMin="121" yMin="0" xMax="1351" yMax="1777">
      <contour>
        <pt x="430" y="1456" on="1"/>
        <pt x="1351" y="1456" on="1"/>
        <pt x="1322" y="1315" on="1"/>
        <pt x="559" y="1315" on="1"/>
        <pt x="453" y="817" on="1"/>
        <pt x="1173" y="817" on="1"/>
        <pt x="1143" y="676" on="1"/>
        <pt x="423" y="676" on="1"/>
        <pt x="279" y="0" on="1"/>
        <pt x="121" y="0" on="1"/>
      </contour>
      <contour>
        <pt x="1039" y="1644" on="0"/>
        <pt x="971" y="1588" on="0"/>
        <pt x="901" y="1588" on="0"/>
        <pt x="858" y="1631" on="0"/>
        <pt x="858" y="1713" on="0"/>
        <pt x="936" y="1777" on="0"/>
        <pt x="1007" y="1777" on="0"/>
        <pt x="1028" y="1756" on="1"/>
        <pt x="1059" y="1725" on="0"/>
      </contour>
    </TTGlyph>
    <TTGlyph name="G" xMin="232" yMin="-29" xMax="1405" yMax="1495">
      <contour>
        <pt x="694" y="-29" on="1"/>
        <pt x="462" y="-29" on="0"/>
        <pt x="344" y="130" on="1"/>
        <pt x="232" y="282" on="0"/>
        <pt x="232" y="514" on="1"/>
        <pt x="232" y="856" on="0"/>
        <pt x="438" y="1147" on="1"/>
        <pt x="590" y="1363" on="0"/>
        <pt x="790" y="1448" on="1"/>
        <pt x="901" y="1495" on="0"/>
        <pt x="1040" y="1495" on="1"/>
        <pt x="1305" y="1495" on="0"/>
        <pt x="1405" y="1260" on="1"/>
        <pt x="1252" y="1192" on="1"/>
        <pt x="1211" y="1273" on="0"/>
        <pt x="1096" y="1354" on="0"/>
        <pt x="907" y="1354" on="0"/>
        <pt x="746" y="1277" on="0"/>
        <pt x="618" y="1150" on="0"/>
        <pt x="564" y="1068" on="1"/>
        <pt x="402" y="824" on="0"/>
        <pt x="402" y="546" on="1"/>
        <pt x="402" y="289" on="0"/>
        <pt x="542" y="173" on="1"/>
        <pt x="616" y="111" on="0"/>
        <pt x="808" y="111" on="0"/>
        <pt x="956" y="172" on="0"/>
        <pt x="1058" y="266" on="0"/>
        <pt x="1098" y="327" on="1"/>
        <pt x="1171" y="436" on="0"/>
        <pt x="1195" y="555" on="1"/>
        <pt x="802" y="555" on="1"/>
        <pt x="832" y="696" on="1"/>
        <pt x="1381" y="696" on="1"/>
        <pt x="1363" y="610" on="1"/>
        <pt x="1322" y="418" on="0"/>
        <pt x="1210" y="260" on="1"/>
        <pt x="1004" y="-29" on="0"/>
        <pt x="700" y="-29" on="1"/>
      </contour>
    </TTGlyph>
    <TTGlyph name="Gamma" xMin="121" yMin="0" xMax="1344" yMax="1456">
      <contour>
        <pt x="430" y="1456" on="1"/>
        <pt x="1344" y="1456" on="1"/>
        <pt x="1315" y="1315" on="1"/>
        <pt x="559" y="1315" on="1"/>
        <pt x="279" y="0" on="1"/>
        <pt x="121" y="0" on="1"/>
      </contour>
    </TTGlyph>
    <TTGlyph name="Gbreve" xMin="232" yMin="-29" xMax="1405" yMax="1838">
      <contour>
        <pt x="694" y="-29" on="1"/>
        <pt x="462" y="-29" on="0"/>
        <pt x="344" y="130" on="1"/>
        <pt x="232" y="282" on="0"/>
        <pt x="232" y="514" on="1"/>
        <pt x="232" y="856" on="0"/>
        <pt x="438" y="1147" on="1"/>
        <pt x="590" y="1363" on="0"/>
        <pt x="790" y="1448" on="1"/>
        <pt x="901" y="1495" on="0"/>
        <pt x="1040" y="1495" on="1"/>
        <pt x="1305" y="1495" on="0"/>
        <pt x="1405" y="1260" on="1"/>
        <pt x="1252" y="1192" on="1"/>
        <pt x="1211" y="1273" on="0"/>
        <pt x="1096" y="1354" on="0"/>
        <pt x="907" y="1354" on="0"/>
        <pt x="746" y="1277" on="0"/>
        <pt x="618" y="1150" on="0"/>
        <pt x="564" y="1068" on="1"/>
        <pt x="402" y="824" on="0"/>
        <pt x="402" y="546" on="1"/>
        <pt x="402" y="289" on="0"/>
        <pt x="542" y="173" on="1"/>
        <pt x="616" y="111" on="0"/>
        <pt x="808" y="111" on="0"/>
        <pt x="956" y="172" on="0"/>
        <pt x="1058" y="266" on="0"/>
        <pt x="1098" y="327" on="1"/>
        <pt x="1171" y="436" on="0"/>
        <pt x="1195" y="555" on="1"/>
        <pt x="802" y="555" on="1"/>
        <pt x="832" y="696" on="1"/>
        <pt x="1381" y="696" on="1"/>
        <pt x="1363" y="610" on="1"/>
        <pt x="1322" y="418" on="0"/>
        <pt x="1210" y="260" on="1"/>
        <pt x="1004" y="-29" on="0"/>
        <pt x="700" y="-29" on="1"/>
      </contour>
      <contour>
        <pt x="739" y="1791" on="1"/>
        <pt x="744" y="1832" on="1"/>
        <pt x="744" y="1836" on="0"/>
        <pt x="745" y="1838" on="1"/>
        <pt x="826" y="1838" on="1"/>
        <pt x="851" y="1726" on="0"/>
        <pt x="918" y="1674" on="1"/>
        <pt x="952" y="1649" on="0"/>
        <pt x="1068" y="1651" on="0"/>
        <pt x="1108" y="1674" on="1"/>
        <pt x="1177" y="1717" on="0"/>
        <pt x="1271" y="1838" on="1"/>
        <pt x="1351" y="1838" on="1"/>
        <pt x="1350" y="1836" on="0"/>
        <pt x="1350" y="1829" on="0"/>
        <pt x="1349" y="1828" on="1"/>
        <pt x="1333" y="1758" on="0"/>
        <pt x="1245" y="1649" on="1"/>
        <pt x="1198" y="1592" on="0"/>
        <pt x="1046" y="1514" on="0"/>
        <pt x="913" y="1514" on="0"/>
        <pt x="794" y="1592" on="0"/>
        <pt x="739" y="1733" on="0"/>
      </contour>
    </TTGlyph>
    <TTGlyph name="Gcircumflex" xMin="232" yMin="-29" xMax="1405" yMax="1858">
      <contour>
        <pt x="694" y="-29" on="1"/>
        <pt x="462" y="-29" on="0"/>
        <pt x="344" y="130" on="1"/>
        <pt x="232" y="282" on="0"/>
        <pt x="232" y="514" on="1"/>
        <pt x="232" y="856" on="0"/>
        <pt x="438" y="1147" on="1"/>
        <pt x="590" y="1363" on="0"/>
        <pt x="790" y="1448" on="1"/>
        <pt x="901" y="1495" on="0"/>
        <pt x="1040" y="1495" on="1"/>
        <pt x="1305" y="1495" on="0"/>
        <pt x="1405" y="1260" on="1"/>
        <pt x="1252" y="1192" on="1"/>
        <pt x="1211" y="1273" on="0"/>
        <pt x="1096" y="1354" on="0"/>
        <pt x="907" y="1354" on="0"/>
        <pt x="746" y="1277" on="0"/>
        <pt x="618" y="1150" on="0"/>
        <pt x="564" y="1068" on="1"/>
        <pt x="402" y="824" on="0"/>
        <pt x="402" y="546" on="1"/>
        <pt x="402" y="289" on="0"/>
        <pt x="542" y="173" on="1"/>
        <pt x="616" y="111" on="0"/>
        <pt x="808" y="111" on="0"/>
        <pt x="956" y="172" on="0"/>
        <pt x="1058" y="266" on="0"/>
        <pt x="1098" y="327" on="1"/>
        <pt x="1171" y="436" on="0"/>
        <pt x="1195" y="555" on="1"/>
        <pt x="802" y="555" on="1"/>
        <pt x="832" y="696" on="1"/>
        <pt x="1381" y="696" on="1"/>
        <pt x="1363" y="610" on="1"/>
        <pt x="1322" y="418" on="0"/>
        <pt x="1210" y="260" on="1"/>
        <pt x="1004" y="-29" on="0"/>
        <pt x="700" y="-29" on="1"/>
      </contour>
      <contour>
        <pt x="1368" y="1514" on="1"/>
        <pt x="1180" y="1514" on="1"/>
        <pt x="1069" y="1727" on="1"/>
        <pt x="866" y="1516" on="1"/>
        <pt x="680" y="1516" on="1"/>
        <pt x="1030" y="1858" on="1"/>
        <pt x="1161" y="1858" on="1"/>
      </contour>
    </TTGlyph>
    <TTGlyph name="Gcommaaccent" xMin="232" yMin="-449" xMax="1405" yMax="1495">
      <contour>
        <pt x="694" y="-29" on="1"/>
        <pt x="462" y="-29" on="0"/>
        <pt x="344" y="130" on="1"/>
        <pt x="232" y="282" on="0"/>
        <pt x="232" y="514" on="1"/>
        <pt x="232" y="856" on="0"/>
        <pt x="438" y="1147" on="1"/>
        <pt x="590" y="1363" on="0"/>
        <pt x="790" y="1448" on="1"/>
        <pt x="901" y="1495" on="0"/>
        <pt x="1040" y="1495" on="1"/>
        <pt x="1305" y="1495" on="0"/>
        <pt x="1405" y="1260" on="1"/>
        <pt x="1252" y="1192" on="1"/>
        <pt x="1211" y="1273" on="0"/>
        <pt x="1096" y="1354" on="0"/>
        <pt x="907" y="1354" on="0"/>
        <pt x="746" y="1277" on="0"/>
        <pt x="618" y="1150" on="0"/>
        <pt x="564" y="1068" on="1"/>
        <pt x="402" y="824" on="0"/>
        <pt x="402" y="546" on="1"/>
        <pt x="402" y="289" on="0"/>
        <pt x="542" y="173" on="1"/>
        <pt x="616" y="111" on="0"/>
        <pt x="808" y="111" on="0"/>
        <pt x="956" y="172" on="0"/>
        <pt x="1058" y="266" on="0"/>
        <pt x="1098" y="327" on="1"/>
        <pt x="1171" y="436" on="0"/>
        <pt x="1195" y="555" on="1"/>
        <pt x="802" y="555" on="1"/>
        <pt x="832" y="696" on="1"/>
        <pt x="1381" y="696" on="1"/>
        <pt x="1363" y="610" on="1"/>
        <pt x="1322" y="418" on="0"/>
        <pt x="1210" y="260" on="1"/>
        <pt x="1004" y="-29" on="0"/>
        <pt x="700" y="-29" on="1"/>
      </contour>
      <contour>
        <pt x="712" y="-26" on="0"/>
        <pt x="760" y="-74" on="0"/>
        <pt x="760" y="-153" on="0"/>
        <pt x="710" y="-266" on="0"/>
        <pt x="658" y="-342" on="0"/>
        <pt x="620" y="-391" on="0"/>
        <pt x="569" y="-447" on="0"/>
        <pt x="568" y="-449" on="1"/>
        <pt x="518" y="-418" on="1"/>
        <pt x="613" y="-313" on="0"/>
        <pt x="628" y="-240" on="1"/>
        <pt x="589" y="-240" on="0"/>
        <pt x="541" y="-193" on="0"/>
        <pt x="541" y="-156" on="1"/>
        <pt x="540" y="-152" on="0"/>
        <pt x="553" y="-89" on="0"/>
        <pt x="629" y="-26" on="0"/>
      </contour>
    </TTGlyph>
    <TTGlyph name="Gdotaccent" xMin="232" yMin="-29" xMax="1405" yMax="1777">
      <contour>
        <pt x="694" y="-29" on="1"/>
        <pt x="462" y="-29" on="0"/>
        <pt x="344" y="130" on="1"/>
        <pt x="232" y="282" on="0"/>
        <pt x="232" y="514" on="1"/>
        <pt x="232" y="856" on="0"/>
        <pt x="438" y="1147" on="1"/>
        <pt x="590" y="1363" on="0"/>
        <pt x="790" y="1448" on="1"/>
        <pt x="901" y="1495" on="0"/>
        <pt x="1040" y="1495" on="1"/>
        <pt x="1305" y="1495" on="0"/>
        <pt x="1405" y="1260" on="1"/>
        <pt x="1252" y="1192" on="1"/>
        <pt x="1211" y="1273" on="0"/>
        <pt x="1096" y="1354" on="0"/>
        <pt x="907" y="1354" on="0"/>
        <pt x="746" y="1277" on="0"/>
        <pt x="618" y="1150" on="0"/>
        <pt x="564" y="1068" on="1"/>
        <pt x="402" y="824" on="0"/>
        <pt x="402" y="546" on="1"/>
        <pt x="402" y="289" on="0"/>
        <pt x="542" y="173" on="1"/>
        <pt x="616" y="111" on="0"/>
        <pt x="808" y="111" on="0"/>
        <pt x="956" y="172" on="0"/>
        <pt x="1058" y="266" on="0"/>
        <pt x="1098" y="327" on="1"/>
        <pt x="1171" y="436" on="0"/>
        <pt x="1195" y="555" on="1"/>
        <pt x="802" y="555" on="1"/>
        <pt x="832" y="696" on="1"/>
        <pt x="1381" y="696" on="1"/>
        <pt x="1363" y="610" on="1"/>
        <pt x="1322" y="418" on="0"/>
        <pt x="1210" y="260" on="1"/>
        <pt x="1004" y="-29" on="0"/>
        <pt x="700" y="-29" on="1"/>
      </contour>
      <contour>
        <pt x="1144" y="1644" on="0"/>
        <pt x="1076" y="1588" on="0"/>
        <pt x="1006" y="1588" on="0"/>
        <pt x="963" y="1631" on="0"/>
        <pt x="963" y="1713" on="0"/>
        <pt x="1041" y="1777" on="0"/>
        <pt x="1112" y="1777" on="0"/>
        <pt x="1132" y="1756" on="1"/>
        <pt x="1164" y="1725" on="0"/>
      </contour>
    </TTGlyph>
    <TTGlyph name="Ghemiddlehookcyrillic" xMin="92" yMin="-449" xMax="1315" yMax="1456">
      <contour>
        <pt x="427" y="-449" on="1"/>
        <pt x="459" y="-315" on="1"/>
        <pt x="563" y="-315" on="0"/>
        <pt x="740" y="-168" on="0"/>
        <pt x="769" y="-33" on="1"/>
        <pt x="891" y="541" on="1"/>
        <pt x="910" y="631" on="0"/>
        <pt x="912" y="706" on="1"/>
        <pt x="912" y="714" on="1"/>
        <pt x="912" y="965" on="0"/>
        <pt x="722" y="965" on="1"/>
        <pt x="525" y="965" on="0"/>
        <pt x="417" y="703" on="1"/>
        <pt x="387" y="632" on="0"/>
        <pt x="367" y="540" on="1"/>
        <pt x="252" y="0" on="1"/>
        <pt x="92" y="0" on="1"/>
        <pt x="401" y="1456" on="1"/>
        <pt x="1315" y="1456" on="1"/>
        <pt x="1286" y="1315" on="1"/>
        <pt x="530" y="1315" on="1"/>
        <pt x="442" y="892" on="1"/>
        <pt x="492" y="984" on="0"/>
        <pt x="678" y="1102" on="0"/>
        <pt x="776" y="1102" on="1"/>
        <pt x="1057" y="1102" on="0"/>
        <pt x="1069" y="794" on="1"/>
        <pt x="1069" y="769" on="1"/>
        <pt x="1069" y="668" on="0"/>
        <pt x="1042" y="541" on="1"/>
        <pt x="927" y="1" on="1"/>
        <pt x="928" y="0" on="1"/>
        <pt x="912" y="-70" on="0"/>
        <pt x="850" y="-200" on="1"/>
        <pt x="815" y="-269" on="0"/>
        <pt x="732" y="-333" on="1"/>
        <pt x="583" y="-449" on="0"/>
        <pt x="431" y="-449" on="1"/>
      </contour>
    </TTGlyph>
    <TTGlyph name="Ghestrokecyrillic" xMin="92" yMin="0" xMax="1315" yMax="1456">
      <contour>
        <pt x="401" y="1456" on="1"/>
        <pt x="1315" y="1456" on="1"/>
        <pt x="1286" y="1315" on="1"/>
        <pt x="530" y="1315" on="1"/>
        <pt x="250" y="0" on="1"/>
        <pt x="92" y="0" on="1"/>
      </contour>
    </TTGlyph>
    <TTGlyph name="Gheupturncyrillic" xMin="92" yMin="0" xMax="1536" yMax="1780">
      <contour>
        <pt x="401" y="1456" on="1"/>
        <pt x="1315" y="1456" on="1"/>
        <pt x="1286" y="1315" on="1"/>
        <pt x="530" y="1315" on="1"/>
        <pt x="250" y="0" on="1"/>
        <pt x="92" y="0" on="1"/>
      </contour>
      <contour>
        <pt x="1361" y="1403" on="1"/>
        <pt x="1323" y="1408" on="0"/>
        <pt x="1323" y="1443" on="1"/>
        <pt x="1323" y="1451" on="0"/>
        <pt x="1324" y="1456" on="1"/>
        <pt x="1387" y="1712" on="1"/>
        <pt x="1410" y="1780" on="0"/>
        <pt x="1471" y="1780" on="1"/>
        <pt x="1480" y="1780" on="0"/>
        <pt x="1498" y="1778" on="1"/>
        <pt x="1517" y="1776" on="0"/>
        <pt x="1536" y="1734" on="0"/>
        <pt x="1536" y="1712" on="0"/>
        <pt x="1536" y="1708" on="1"/>
        <pt x="1535" y="1704" on="0"/>
        <pt x="1531" y="1696" on="1"/>
        <pt x="1430" y="1445" on="1"/>
        <pt x="1412" y="1403" on="0"/>
        <pt x="1367" y="1403" on="1"/>
      </contour>
    </TTGlyph>
    <TTGlyph name="H" xMin="121" yMin="0" xMax="1407" yMax="1456">
      <contour>
        <pt x="430" y="1456" on="1"/>
        <pt x="588" y="1456" on="1"/>
        <pt x="452" y="815" on="1"/>
        <pt x="1113" y="815" on="1"/>
        <pt x="1249" y="1456" on="1"/>
        <pt x="1407" y="1456" on="1"/>
        <pt x="1098" y="0" on="1"/>
        <pt x="940" y="0" on="1"/>
        <pt x="1083" y="674" on="1"/>
        <pt x="422" y="674" on="1"/>
        <pt x="279" y="0" on="1"/>
        <pt x="121" y="0" on="1"/>
      </contour>
    </TTGlyph>
    <TTGlyph name="Haabkhasiancyrillic" xMin="228" yMin="-29" xMax="1407" yMax="1495">
      <contour>
        <pt x="1229" y="293" on="1"/>
        <pt x="1155" y="165" on="0"/>
        <pt x="1026" y="72" on="1"/>
        <pt x="888" y="-29" on="0"/>
        <pt x="694" y="-29" on="1"/>
        <pt x="577" y="-29" on="0"/>
        <pt x="484" y="12" on="1"/>
        <pt x="313" y="88" on="0"/>
        <pt x="256" y="292" on="1"/>
        <pt x="228" y="388" on="0"/>
        <pt x="228" y="493" on="1"/>
        <pt x="228" y="498" on="1"/>
        <pt x="232" y="730" on="0"/>
        <pt x="326" y="954" on="1"/>
        <pt x="423" y="1187" on="0"/>
        <pt x="597" y="1336" on="1"/>
        <pt x="680" y="1408" on="0"/>
        <pt x="900" y="1495" on="0"/>
        <pt x="997" y="1495" on="1"/>
        <pt x="1236" y="1495" on="0"/>
        <pt x="1339" y="1358" on="1"/>
        <pt x="1395" y="1282" on="0"/>
        <pt x="1407" y="1194" on="1"/>
        <pt x="1249" y="1153" on="1"/>
        <pt x="1240" y="1242" on="0"/>
        <pt x="1095" y="1354" on="0"/>
        <pt x="990" y="1354" on="1"/>
        <pt x="988" y="1354" on="1"/>
        <pt x="884" y="1354" on="0"/>
        <pt x="788" y="1300" on="1"/>
        <pt x="614" y="1202" on="0"/>
        <pt x="497" y="955" on="1"/>
        <pt x="400" y="747" on="0"/>
        <pt x="400" y="539" on="1"/>
        <pt x="400" y="269" on="0"/>
        <pt x="552" y="162" on="1"/>
        <pt x="624" y="111" on="0"/>
        <pt x="831" y="111" on="0"/>
        <pt x="1040" y="243" on="0"/>
        <pt x="1091" y="334" on="1"/>
      </contour>
    </TTGlyph>
    <TTGlyph name="Hadescendercyrillic" xMin="80" yMin="0" xMax="1464" yMax="1456">
      <contour>
        <pt x="383" y="1456" on="1"/>
        <pt x="565" y="1456" on="1"/>
        <pt x="799" y="850" on="1"/>
        <pt x="1282" y="1456" on="1"/>
        <pt x="1464" y="1456" on="1"/>
        <pt x="857" y="729" on="1"/>
        <pt x="1161" y="0" on="1"/>
        <pt x="971" y="0" on="1"/>
        <pt x="743" y="586" on="1"/>
        <pt x="258" y="0" on="1"/>
        <pt x="80" y="0" on="1"/>
        <pt x="690" y="729" on="1"/>
      </contour>
    </TTGlyph>
    <TTGlyph name="Hbar" xMin="121" yMin="0" xMax="1407" yMax="1456">
      <contour>
        <pt x="430" y="1456" on="1"/>
        <pt x="588" y="1456" on="1"/>
        <pt x="507" y="1071" on="1"/>
        <pt x="1168" y="1071" on="1"/>
        <pt x="1249" y="1456" on="1"/>
        <pt x="1407" y="1456" on="1"/>
        <pt x="1326" y="1071" on="1"/>
        <pt x="1382" y="1071" on="1"/>
        <pt x="1360" y="969" on="1"/>
        <pt x="1304" y="969" on="1"/>
        <pt x="1098" y="0" on="1"/>
        <pt x="940" y="0" on="1"/>
        <pt x="1083" y="674" on="1"/>
        <pt x="422" y="674" on="1"/>
        <pt x="279" y="0" on="1"/>
        <pt x="121" y="0" on="1"/>
        <pt x="327" y="969" on="1"/>
        <pt x="248" y="969" on="1"/>
        <pt x="270" y="1071" on="1"/>
        <pt x="349" y="1071" on="1"/>
      </contour>
      <contour>
        <pt x="1146" y="969" on="1"/>
        <pt x="485" y="969" on="1"/>
        <pt x="452" y="815" on="1"/>
        <pt x="1113" y="815" on="1"/>
      </contour>
    </TTGlyph>
    <TTGlyph name="Hcircumflex" xMin="121" yMin="0" xMax="1407" yMax="1858">
      <contour>
        <pt x="430" y="1456" on="1"/>
        <pt x="588" y="1456" on="1"/>
        <pt x="452" y="815" on="1"/>
        <pt x="1113" y="815" on="1"/>
        <pt x="1249" y="1456" on="1"/>
        <pt x="1407" y="1456" on="1"/>
        <pt x="1098" y="0" on="1"/>
        <pt x="940" y="0" on="1"/>
        <pt x="1083" y="674" on="1"/>
        <pt x="422" y="674" on="1"/>
        <pt x="279" y="0" on="1"/>
        <pt x="121" y="0" on="1"/>
      </contour>
      <contour>
        <pt x="1275" y="1514" on="1"/>
        <pt x="1087" y="1514" on="1"/>
        <pt x="976" y="1727" on="1"/>
        <pt x="773" y="1516" on="1"/>
        <pt x="587" y="1516" on="1"/>
        <pt x="937" y="1858" on="1"/>
        <pt x="1068" y="1858" on="1"/>
      </contour>
    </TTGlyph>
    <TTGlyph name="I" xMin="154" yMin="0" xMax="620" yMax="1456">
      <contour>
        <pt x="154" y="0" on="1"/>
        <pt x="463" y="1456" on="1"/>
        <pt x="620" y="1456" on="1"/>
        <pt x="311" y="0" on="1"/>
      </contour>
    </TTGlyph>
    <TTGlyph name="IJ" xMin="154" yMin="-29" xMax="1552" yMax="1464">
      <contour>
        <pt x="154" y="0" on="1"/>
        <pt x="463" y="1456" on="1"/>
        <pt x="620" y="1456" on="1"/>
        <pt x="311" y="0" on="1"/>
      </contour>
      <contour>
        <pt x="658" y="358" on="1"/>
        <pt x="658" y="108" on="0"/>
        <pt x="847" y="108" on="1"/>
        <pt x="979" y="108" on="0"/>
        <pt x="1076" y="236" on="1"/>
        <pt x="1163" y="353" on="0"/>
        <pt x="1202" y="533" on="1"/>
        <pt x="1400" y="1464" on="1"/>
        <pt x="1552" y="1464" on="1"/>
        <pt x="1356" y="543" on="1"/>
        <pt x="1304" y="296" on="0"/>
        <pt x="1114" y="117" on="1"/>
        <pt x="1049" y="57" on="0"/>
        <pt x="892" y="-29" on="0"/>
        <pt x="794" y="-29" on="1"/>
        <pt x="610" y="-29" on="0"/>
        <pt x="541" y="104" on="1"/>
        <pt x="501" y="180" on="0"/>
        <pt x="501" y="389" on="0"/>
        <pt x="529" y="543" on="1"/>
        <pt x="680" y="543" on="1"/>
        <pt x="660" y="431" on="0"/>
        <pt x="658" y="367" on="1"/>
        <pt x="658" y="367" on="0"/>
      </contour>
    </TTGlyph>
    <TTGlyph name="Iacute" xMin="164" yMin="0" xMax="983" yMax="1944">
      <contour>
        <pt x="536" y="1676" on="1"/>
        <pt x="870" y="1926" on="1"/>
        <pt x="896" y="1944" on="0"/>
        <pt x="915" y="1944" on="1"/>
        <pt x="959" y="1944" on="0"/>
        <pt x="974" y="1914" on="1"/>
        <pt x="983" y="1900" on="0"/>
        <pt x="983" y="1878" on="0"/>
        <pt x="981" y="1865" on="0"/>
        <pt x="980" y="1862" on="1"/>
        <pt x="977" y="1856" on="0"/>
        <pt x="963" y="1827" on="0"/>
        <pt x="939" y="1810" on="1"/>
        <pt x="587" y="1591" on="1"/>
        <pt x="573" y="1582" on="0"/>
        <pt x="564" y="1582" on="1"/>
        <pt x="531" y="1582" on="0"/>
        <pt x="520" y="1602" on="1"/>
        <pt x="504" y="1630" on="0"/>
        <pt x="523" y="1664" on="0"/>
      </contour>
      <contour>
        <pt x="164" y="0" on="1"/>
        <pt x="473" y="1456" on="1"/>
        <pt x="630" y="1456" on="1"/>
        <pt x="321" y="0" on="1"/>
      </contour>
    </TTGlyph>
    <TTGlyph name="Ibreve" xMin="154" yMin="0" xMax="922" yMax="1838">
      <contour>
        <pt x="154" y="0" on="1"/>
        <pt x="463" y="1456" on="1"/>
        <pt x="620" y="1456" on="1"/>
        <pt x="311" y="0" on="1"/>
      </contour>
      <contour>
        <pt x="816" y="1649" on="1"/>
        <pt x="769" y="1592" on="0"/>
        <pt x="617" y="1514" on="0"/>
        <pt x="484" y="1514" on="0"/>
        <pt x="365" y="1592" on="0"/>
        <pt x="310" y="1733" on="0"/>
        <pt x="310" y="1808" on="0"/>
        <pt x="316" y="1838" on="1"/>
        <pt x="397" y="1838" on="1"/>
        <pt x="422" y="1726" on="0"/>
        <pt x="489" y="1674" on="1"/>
        <pt x="523" y="1649" on="0"/>
        <pt x="639" y="1651" on="0"/>
        <pt x="679" y="1674" on="1"/>
        <pt x="748" y="1717" on="0"/>
        <pt x="842" y="1838" on="1"/>
        <pt x="922" y="1838" on="1"/>
        <pt x="907" y="1761" on="0"/>
      </contour>
    </TTGlyph>
    <TTGlyph name="Icircumflex" xMin="164" yMin="0" xMax="914" yMax="1894">
      <contour>
        <pt x="164" y="0" on="1"/>
        <pt x="473" y="1456" on="1"/>
        <pt x="630" y="1456" on="1"/>
        <pt x="321" y="0" on="1"/>
      </contour>
      <contour>
        <pt x="914" y="1550" on="1"/>
        <pt x="726" y="1550" on="1"/>
        <pt x="616" y="1763" on="1"/>
        <pt x="413" y="1552" on="1"/>
        <pt x="227" y="1552" on="1"/>
        <pt x="577" y="1894" on="1"/>
        <pt x="708" y="1894" on="1"/>
      </contour>
    </TTGlyph>
    <TTGlyph name="Idieresis" xMin="164" yMin="0" xMax="929" yMax="1780">
      <contour>
        <pt x="164" y="0" on="1"/>
        <pt x="473" y="1456" on="1"/>
        <pt x="630" y="1456" on="1"/>
        <pt x="321" y="0" on="1"/>
      </contour>
      <contour>
        <pt x="266" y="1632" on="0"/>
        <pt x="266" y="1714" on="0"/>
        <pt x="344" y="1778" on="0"/>
        <pt x="415" y="1778" on="0"/>
        <pt x="456" y="1737" on="0"/>
        <pt x="458" y="1653" on="0"/>
        <pt x="380" y="1589" on="0"/>
        <pt x="309" y="1589" on="0"/>
      </contour>
      <contour>
        <pt x="781" y="1591" on="0"/>
        <pt x="737" y="1635" on="0"/>
        <pt x="737" y="1658" on="1"/>
        <pt x="737" y="1716" on="0"/>
        <pt x="815" y="1780" on="0"/>
        <pt x="851" y="1780" on="1"/>
        <pt x="925" y="1780" on="0"/>
        <pt x="929" y="1705" on="1"/>
        <pt x="929" y="1655" on="0"/>
        <pt x="851" y="1591" on="0"/>
      </contour>
    </TTGlyph>
    <TTGlyph name="Idieresiscyrillic" xMin="121" yMin="0" xMax="1480" yMax="1779">
      <contour>
        <pt x="430" y="1456" on="1"/>
        <pt x="588" y="1456" on="1"/>
        <pt x="336" y="266" on="1"/>
        <pt x="1335" y="1456" on="1"/>
        <pt x="1480" y="1456" on="1"/>
        <pt x="1171" y="0" on="1"/>
        <pt x="1014" y="0" on="1"/>
        <pt x="1261" y="1161" on="1"/>
        <pt x="274" y="0" on="1"/>
        <pt x="121" y="0" on="1"/>
      </contour>
      <contour>
        <pt x="855" y="1644" on="0"/>
        <pt x="787" y="1588" on="0"/>
        <pt x="717" y="1588" on="0"/>
        <pt x="674" y="1631" on="0"/>
        <pt x="674" y="1713" on="0"/>
        <pt x="752" y="1777" on="0"/>
        <pt x="823" y="1777" on="0"/>
        <pt x="844" y="1756" on="1"/>
        <pt x="875" y="1725" on="0"/>
      </contour>
      <contour>
        <pt x="1189" y="1590" on="0"/>
        <pt x="1145" y="1634" on="0"/>
        <pt x="1145" y="1656" on="1"/>
        <pt x="1145" y="1715" on="0"/>
        <pt x="1223" y="1779" on="0"/>
        <pt x="1259" y="1779" on="1"/>
        <pt x="1333" y="1779" on="0"/>
        <pt x="1337" y="1704" on="1"/>
        <pt x="1337" y="1654" on="0"/>
        <pt x="1259" y="1590" on="0"/>
      </contour>
    </TTGlyph>
    <TTGlyph name="Idotaccent" xMin="154" yMin="0" xMax="682" yMax="1777">
      <contour>
        <pt x="154" y="0" on="1"/>
        <pt x="463" y="1456" on="1"/>
        <pt x="620" y="1456" on="1"/>
        <pt x="311" y="0" on="1"/>
      </contour>
      <contour>
        <pt x="672" y="1644" on="0"/>
        <pt x="604" y="1588" on="0"/>
        <pt x="534" y="1588" on="0"/>
        <pt x="491" y="1631" on="0"/>
        <pt x="491" y="1713" on="0"/>
        <pt x="569" y="1777" on="0"/>
        <pt x="640" y="1777" on="0"/>
        <pt x="660" y="1756" on="1"/>
        <pt x="692" y="1725" on="0"/>
      </contour>
    </TTGlyph>
    <TTGlyph name="Iebrevecyrillic" xMin="88" yMin="0" xMax="1319" yMax="1838">
      <contour>
        <pt x="397" y="1456" on="1"/>
        <pt x="1319" y="1456" on="1"/>
        <pt x="1290" y="1315" on="1"/>
        <pt x="526" y="1315" on="1"/>
        <pt x="420" y="817" on="1"/>
        <pt x="1140" y="817" on="1"/>
        <pt x="1110" y="676" on="1"/>
        <pt x="390" y="676" on="1"/>
        <pt x="276" y="141" on="1"/>
        <pt x="1040" y="141" on="1"/>
        <pt x="1010" y="0" on="1"/>
        <pt x="88" y="0" on="1"/>
      </contour>
      <contour>
        <pt x="635" y="1791" on="1"/>
        <pt x="640" y="1832" on="1"/>
        <pt x="640" y="1836" on="0"/>
        <pt x="641" y="1838" on="1"/>
        <pt x="722" y="1838" on="1"/>
        <pt x="747" y="1726" on="0"/>
        <pt x="814" y="1674" on="1"/>
        <pt x="848" y="1649" on="0"/>
        <pt x="964" y="1651" on="0"/>
        <pt x="1004" y="1674" on="1"/>
        <pt x="1073" y="1717" on="0"/>
        <pt x="1167" y="1838" on="1"/>
        <pt x="1247" y="1838" on="1"/>
        <pt x="1246" y="1836" on="0"/>
        <pt x="1246" y="1829" on="0"/>
        <pt x="1245" y="1828" on="1"/>
        <pt x="1229" y="1758" on="0"/>
        <pt x="1141" y="1649" on="1"/>
        <pt x="1094" y="1592" on="0"/>
        <pt x="942" y="1514" on="0"/>
        <pt x="809" y="1514" on="0"/>
        <pt x="690" y="1592" on="0"/>
        <pt x="635" y="1733" on="0"/>
      </contour>
    </TTGlyph>
    <TTGlyph name="Ifraktur" xMin="104" yMin="-29" xMax="1170" yMax="1456">
      <contour>
        <pt x="728" y="795" on="1"/>
        <pt x="728" y="930" on="0"/>
        <pt x="937" y="1314" on="1"/>
        <pt x="313" y="1314" on="1"/>
        <pt x="343" y="1456" on="1"/>
        <pt x="1170" y="1456" on="1"/>
        <pt x="934" y="1088" on="0"/>
        <pt x="882" y="849" on="1"/>
        <pt x="881" y="846" on="0"/>
        <pt x="881" y="838" on="1"/>
        <pt x="881" y="790" on="0"/>
        <pt x="966" y="597" on="0"/>
        <pt x="966" y="497" on="0"/>
        <pt x="957" y="457" on="1"/>
        <pt x="938" y="370" on="0"/>
        <pt x="776" y="125" on="0"/>
        <pt x="531" y="-29" on="0"/>
        <pt x="399" y="-29" on="1"/>
        <pt x="279" y="-29" on="0"/>
        <pt x="203" y="42" on="1"/>
        <pt x="131" y="113" on="0"/>
        <pt x="104" y="187" on="1"/>
        <pt x="242" y="264" on="1"/>
        <pt x="269" y="165" on="0"/>
        <pt x="348" y="124" on="1"/>
        <pt x="383" y="106" on="0"/>
        <pt x="428" y="106" on="1"/>
        <pt x="557" y="106" on="0"/>
        <pt x="671" y="224" on="1"/>
        <pt x="744" y="300" on="0"/>
        <pt x="789" y="414" on="1"/>
        <pt x="802" y="453" on="0"/>
        <pt x="802" y="541" on="0"/>
        <pt x="785" y="600" on="1"/>
        <pt x="728" y="700" on="0"/>
      </contour>
    </TTGlyph>
    <TTGlyph name="Igrave" xMin="154" yMin="0" xMax="657" yMax="1944">
      <contour>
        <pt x="648" y="1676" on="1"/>
        <pt x="657" y="1664" on="0"/>
        <pt x="657" y="1654" on="1"/>
        <pt x="657" y="1628" on="0"/>
        <pt x="638" y="1608" on="1"/>
        <pt x="614" y="1582" on="0"/>
        <pt x="572" y="1582" on="0"/>
        <pt x="561" y="1591" on="1"/>
        <pt x="303" y="1810" on="1"/>
        <pt x="280" y="1834" on="0"/>
        <pt x="291" y="1895" on="0"/>
        <pt x="312" y="1916" on="1"/>
        <pt x="341" y="1944" on="0"/>
        <pt x="402" y="1944" on="0"/>
        <pt x="420" y="1926" on="1"/>
      </contour>
      <contour>
        <pt x="154" y="0" on="1"/>
        <pt x="463" y="1456" on="1"/>
        <pt x="620" y="1456" on="1"/>
        <pt x="311" y="0" on="1"/>
      </contour>
    </TTGlyph>
    <TTGlyph name="Imacron" xMin="154" yMin="0" xMax="928" yMax="1738">
      <contour>
        <pt x="154" y="0" on="1"/>
        <pt x="463" y="1456" on="1"/>
        <pt x="620" y="1456" on="1"/>
        <pt x="311" y="0" on="1"/>
      </contour>
      <contour>
        <pt x="251" y="1738" on="1"/>
        <pt x="928" y="1738" on="1"/>
        <pt x="906" y="1632" on="1"/>
        <pt x="229" y="1632" on="1"/>
      </contour>
    </TTGlyph>
    <TTGlyph name="Imacroncyrillic" xMin="121" yMin="0" xMax="1480" yMax="1456">
      <contour>
        <pt x="430" y="1456" on="1"/>
        <pt x="588" y="1456" on="1"/>
        <pt x="336" y="266" on="1"/>
        <pt x="1335" y="1456" on="1"/>
        <pt x="1480" y="1456" on="1"/>
        <pt x="1171" y="0" on="1"/>
        <pt x="1014" y="0" on="1"/>
        <pt x="1261" y="1161" on="1"/>
        <pt x="274" y="0" on="1"/>
        <pt x="121" y="0" on="1"/>
      </contour>
    </TTGlyph>
    <TTGlyph name="Iogonek" xMin="93" yMin="-315" xMax="620" yMax="1456">
      <contour>
        <pt x="154" y="0" on="1"/>
        <pt x="463" y="1456" on="1"/>
        <pt x="620" y="1456" on="1"/>
        <pt x="311" y="0" on="1"/>
      </contour>
      <contour>
        <pt x="329" y="-190" on="1"/>
        <pt x="259" y="-315" on="1"/>
        <pt x="256" y="-313" on="0"/>
        <pt x="251" y="-310" on="1"/>
        <pt x="236" y="-299" on="0"/>
        <pt x="212" y="-283" on="1"/>
        <pt x="175" y="-258" on="0"/>
        <pt x="103" y="-186" on="0"/>
        <pt x="93" y="-144" on="0"/>
        <pt x="93" y="-130" on="1"/>
        <pt x="93" y="-98" on="0"/>
        <pt x="140" y="13" on="0"/>
        <pt x="217" y="74" on="1"/>
        <pt x="334" y="18" on="1"/>
        <pt x="272" y="-42" on="0"/>
        <pt x="263" y="-71" on="1"/>
        <pt x="250" y="-114" on="0"/>
        <pt x="281" y="-145" on="1"/>
        <pt x="304" y="-168" on="1"/>
        <pt x="311" y="-173" on="0"/>
      </contour>
    </TTGlyph>
    <TTGlyph name="Iota" xMin="154" yMin="0" xMax="620" yMax="1456">
      <contour>
        <pt x="154" y="0" on="1"/>
        <pt x="463" y="1456" on="1"/>
        <pt x="620" y="1456" on="1"/>
        <pt x="311" y="0" on="1"/>
      </contour>
    </TTGlyph>
    <TTGlyph name="Iotaacute" xMin="331" yMin="4" xMax="907" yMax="1780">
      <contour>
        <pt x="441" y="4" on="1"/>
        <pt x="750" y="1460" on="1"/>
        <pt x="907" y="1460" on="1"/>
        <pt x="598" y="4" on="1"/>
      </contour>
      <contour>
        <pt x="407" y="1427" on="1"/>
        <pt x="393" y="1418" on="0"/>
        <pt x="351" y="1418" on="0"/>
        <pt x="331" y="1454" on="0"/>
        <pt x="331" y="1489" on="0"/>
        <pt x="356" y="1512" on="1"/>
        <pt x="691" y="1762" on="1"/>
        <pt x="717" y="1780" on="0"/>
        <pt x="736" y="1780" on="1"/>
        <pt x="779" y="1780" on="0"/>
        <pt x="794" y="1750" on="1"/>
        <pt x="803" y="1736" on="0"/>
        <pt x="803" y="1725" on="1"/>
        <pt x="803" y="1678" on="0"/>
        <pt x="759" y="1646" on="1"/>
      </contour>
    </TTGlyph>
</ttFont>
